RobotoHinted-Regular.ufo
<glyph name="quotesingle" format="2">
  <advance width="357"/>
  <unicode hex="0027"/>
  <outline>
    <contour>
      <point x="253" y="1425" type="line"/>
      <point x="232" y="1057" type="line"/>
      <point x="103" y="1057" type="line"/>
      <point x="104" y="1536" type="line"/>
      <point x="253" y="1536" type="line"/>
    </contour>
  </outline>
</glyph>
<glyph name="asterisk" format="2">
  <advance width="882"/>
  <unicode hex="002A"/>
  <outline>
    <contour>
      <point x="330" y="983" type="line"/>
      <point x="28" y="1073" type="line"/>
      <point x="74" y="1224" type="line"/>
      <point x="376" y="1112" type="line"/>
      <point x="367" y="1456" type="line"/>
      <point x="520" y="1456" type="line"/>
      <point x="510" y="1107" type="line"/>
      <point x="807" y="1217" type="line"/>
      <point x="853" y="1065" type="line"/>
      <point x="546" y="974" type="line"/>
      <point x="744" y="703" type="line"/>
      <point x="620" y="609" type="line"/>
      <point x="434" y="897" type="line"/>
      <point x="254" y="616" type="line"/>
      <point x="129" y="707" type="line"/>
    </contour>
  </outline>
</glyph>
<glyph name="G" format="2">
  <advance width="1395"/>
  <unicode hex="0047"/>
  <outline>
    <contour>
      <point x="1244" y="191" type="line"/>
      <point x="1170" y="85"/>
      <point x="905" y="-20"/>
      <point x="729" y="-20" type="qcurve" smooth="yes"/>
      <point x="551" y="-20"/>
      <point x="275" y="147"/>
      <point x="199.5" y="301.0" type="qcurve" smooth="yes" name="inserted"/>
      <point x="161.75" y="378.0" name="inserted"/>
      <point x="123.0" y="556.5"/>
      <point x="122" y="658" type="qcurve" smooth="yes"/>
      <point x="122" y="785" type="line" smooth="yes"/>
      <point x="122" y="1114"/>
      <point x="429" y="1476"/>
      <point x="707" y="1476" type="qcurve" smooth="yes"/>
      <point x="935" y="1476"/>
      <point x="1213" y="1243"/>
      <point x="1244" y="1029" type="qcurve"/>
      <point x="1052" y="1029" type="line"/>
      <point x="1025.0" y="1173.5" name="inserted"/>
      <point x="853.0" y="1318.0"/>
      <point x="708" y="1318" type="qcurve" smooth="yes"/>
      <point x="515" y="1318"/>
      <point x="316" y="1047"/>
      <point x="315" y="790" type="qcurve"/>
      <point x="315" y="671" type="line" smooth="yes"/>
      <point x="315" y="426"/>
      <point x="539" y="137"/>
      <point x="730" y="137" type="qcurve" smooth="yes"/>
      <point x="838" y="137"/>
      <point x="1000" y="185"/>
      <point x="1053" y="242" type="qcurve"/>
      <point x="1053" y="569" type="line"/>
      <point x="716" y="569" type="line"/>
      <point x="716" y="725" type="line"/>
      <point x="1244" y="725" type="line"/>
    </contour>
  </outline>
</glyph>
<glyph name="R" format="2">
  <advance width="1261"/>
  <unicode hex="0052"/>
  <outline>
    <contour>
      <point x="703" y="589" type="line"/>
      <point x="361" y="589" type="line"/>
      <point x="361" y="0" type="line"/>
      <point x="168" y="0" type="line"/>
      <point x="168" y="1456" type="line"/>
      <point x="650" y="1456" type="line" smooth="yes"/>
      <point x="896" y="1456"/>
      <point x="1161" y="1232"/>
      <point x="1161" y="1018" type="qcurve" smooth="yes"/>
      <point x="1161" y="882"/>
      <point x="1014" y="680"/>
      <point x="883" y="630" type="qcurve"/>
      <point x="1225" y="12" type="line"/>
      <point x="1225" y="0" type="line"/>
      <point x="1019" y="0" type="line"/>
    </contour>
    <contour>
      <point x="361" y="746" type="line"/>
      <point x="656" y="746" type="line" smooth="yes"/>
      <point x="799" y="746"/>
      <point x="968" y="894"/>
      <point x="968" y="1018" type="qcurve" smooth="yes"/>
      <point x="968" y="1153"/>
      <point x="807" y="1297"/>
      <point x="655" y="1298" type="qcurve" smooth="yes"/>
      <point x="361" y="1298" type="line"/>
    </contour>
  </outline>
</glyph>
<glyph name="W" format="2">
  <advance width="1817"/>
  <unicode hex="0057"/>
  <outline>
    <contour>
      <point x="483" y="459" type="line"/>
      <point x="511" y="267" type="line"/>
      <point x="552" y="440" type="line"/>
      <point x="840" y="1456" type="line"/>
      <point x="1002" y="1456" type="line"/>
      <point x="1283" y="440" type="line"/>
      <point x="1323" y="264" type="line"/>
      <point x="1354" y="460" type="line"/>
      <point x="1580" y="1456" type="line"/>
      <point x="1773" y="1456" type="line"/>
      <point x="1420" y="0" type="line"/>
      <point x="1245" y="0" type="line"/>
      <point x="945" y="1061" type="line"/>
      <point x="922" y="1172" type="line"/>
      <point x="899" y="1061" type="line"/>
      <point x="588" y="0" type="line"/>
      <point x="413" y="0" type="line"/>
      <point x="61" y="1456" type="line"/>
      <point x="253" y="1456" type="line"/>
    </contour>
  </outline>
</glyph>
<glyph name="X" format="2">
  <advance width="1284"/>
  <unicode hex="0058"/>
  <outline>
    <contour>
      <point x="644" y="898" type="line"/>
      <point x="993" y="1456" type="line"/>
      <point x="1219" y="1456" type="line"/>
      <point x="759" y="734" type="line"/>
      <point x="1230" y="0" type="line"/>
      <point x="1002" y="0" type="line"/>
      <point x="644" y="568" type="line"/>
      <point x="284" y="0" type="line"/>
      <point x="57" y="0" type="line"/>
      <point x="529" y="734" type="line"/>
      <point x="68" y="1456" type="line"/>
      <point x="293" y="1456" type="line"/>
    </contour>
  </outline>
</glyph>
<glyph name="asciicircum" format="2">
  <advance width="856"/>
  <unicode hex="005E"/>
  <outline>
    <contour>
      <point x="426" y="1211" type="line"/>
      <point x="236" y="729" type="line"/>
      <point x="64" y="729" type="line"/>
      <point x="363" y="1456" type="line"/>
      <point x="490" y="1456" type="line"/>
      <point x="788" y="729" type="line"/>
      <point x="617" y="729" type="line"/>
    </contour>
  </outline>
</glyph>
<glyph name="grave" format="2">
  <advance width="633"/>
  <unicode hex="0060"/>
  <outline>
    <contour>
      <point x="474" y="1242" type="line"/>
      <point x="315" y="1242" type="line"/>
      <point x="57" y="1536" type="line"/>
      <point x="280" y="1536" type="line"/>
    </contour>
  </outline>
</glyph>
<glyph name="a" format="2">
  <advance width="1114"/>
  <unicode hex="0061"/>
  <outline>
    <contour>
      <point x="808" y="0" type="line"/>
      <point x="800.0" y="16.0" name="inserted"/>
      <point x="787.0" y="73.0"/>
      <point x="782" y="114" type="qcurve"/>
      <point x="717.5" y="47.0" name="inserted"/>
      <point x="563.5" y="-20.0"/>
      <point x="474" y="-20" type="qcurve" smooth="yes"/>
      <point x="314" y="-20"/>
      <point x="109" y="161"/>
      <point x="109" y="300" type="qcurve" smooth="yes"/>
      <point x="109" y="469"/>
      <point x="366" y="656"/>
      <point x="599" y="656" type="qcurve" smooth="yes"/>
      <point x="779" y="656" type="line"/>
      <point x="779" y="741" type="line" smooth="yes"/>
      <point x="779" y="838"/>
      <point x="663" y="953"/>
      <point x="550" y="953" type="qcurve" smooth="yes"/>
      <point x="451" y="953"/>
      <point x="317" y="853"/>
      <point x="317" y="782" type="qcurve"/>
      <point x="131" y="782" type="line"/>
      <point x="131" y="863"/>
      <point x="246" y="1014"/>
      <point x="344.5" y="1058.0" type="qcurve" smooth="yes" name="inserted"/>
      <point x="393.75" y="1080.0" name="inserted"/>
      <point x="502.0" y="1102.0"/>
      <point x="561" y="1102" type="qcurve" smooth="yes"/>
      <point x="748" y="1102"/>
      <point x="960" y="915"/>
      <point x="964" y="751" type="qcurve" smooth="yes"/>
      <point x="964" y="253" type="line" smooth="yes"/>
      <point x="964.0" y="178.5" name="inserted"/>
      <point x="983.0" y="60.0"/>
      <point x="1002" y="16" type="qcurve"/>
      <point x="1002" y="0" type="line"/>
    </contour>
    <contour>
      <point x="501" y="141" type="qcurve" smooth="yes"/>
      <point x="588" y="141"/>
      <point x="744" y="231"/>
      <point x="779" y="303" type="qcurve"/>
      <point x="779" y="525" type="line"/>
      <point x="634" y="525" type="line" smooth="yes"/>
      <point x="464.0" y="525.0" name="inserted"/>
      <point x="294.0" y="425.5"/>
      <point x="294" y="326" type="qcurve" smooth="yes"/>
      <point x="294" y="239"/>
      <point x="410" y="141"/>
    </contour>
  </outline>
</glyph>
<glyph name="c" format="2">
  <advance width="1072"/>
  <unicode hex="0063"/>
  <outline>
    <contour>
      <point x="574" y="131" type="qcurve" smooth="yes"/>
      <point x="673" y="131"/>
      <point x="821" y="251"/>
      <point x="829" y="341" type="qcurve"/>
      <point x="1004" y="341" type="line"/>
      <point x="999" y="248"/>
      <point x="881" y="80"/>
      <point x="782.5" y="30.0" type="qcurve" smooth="yes" name="inserted"/>
      <point x="733.25" y="5.0" name="inserted"/>
      <point x="629.0" y="-20.0"/>
      <point x="574" y="-20" type="qcurve" smooth="yes"/>
      <point x="353" y="-20"/>
      <point x="92" y="275"/>
      <point x="92" y="531" type="qcurve" smooth="yes"/>
      <point x="92" y="562" type="line" smooth="yes"/>
      <point x="92" y="720"/>
      <point x="208" y="966"/>
      <point x="316.5" y="1034.0" type="qcurve" smooth="yes" name="inserted"/>
      <point x="370.75" y="1068.0" name="inserted"/>
      <point x="499.0" y="1102.0"/>
      <point x="573" y="1102" type="qcurve" smooth="yes"/>
      <point x="755" y="1102"/>
      <point x="996" y="884"/>
      <point x="1004" y="710" type="qcurve"/>
      <point x="829" y="710" type="line"/>
      <point x="821" y="815"/>
      <point x="678" y="950"/>
      <point x="573" y="950" type="qcurve" smooth="yes"/>
      <point x="432" y="950"/>
      <point x="277" y="747"/>
      <point x="277" y="555" type="qcurve" smooth="yes"/>
      <point x="277" y="520" type="line" smooth="yes"/>
      <point x="277" y="333"/>
      <point x="431" y="131"/>
    </contour>
  </outline>
</glyph>
<glyph name="f" format="2">
  <advance width="711"/>
  <unicode hex="0066"/>
  <outline>
    <contour>
      <point x="231" y="0" type="line"/>
      <point x="231" y="939" type="line"/>
      <point x="60" y="939" type="line"/>
      <point x="60" y="1082" type="line"/>
      <point x="231" y="1082" type="line"/>
      <point x="231" y="1193" type="line" smooth="yes"/>
      <point x="231" y="1367"/>
      <point x="417" y="1557"/>
      <point x="587" y="1557" type="qcurve" smooth="yes"/>
      <point x="619.0" y="1557.0" name="inserted"/>
      <point x="682.5" y="1548.5"/>
      <point x="714" y="1540" type="qcurve"/>
      <point x="704" y="1390" type="line"/>
      <point x="680.5" y="1394.5" name="inserted"/>
      <point x="630.5" y="1399.0"/>
      <point x="604" y="1399" type="qcurve" smooth="yes"/>
      <point x="514" y="1399"/>
      <point x="416" y="1294"/>
      <point x="416" y="1196" type="qcurve" smooth="yes"/>
      <point x="416" y="1082" type="line"/>
      <point x="647" y="1082" type="line"/>
      <point x="647" y="939" type="line"/>
      <point x="416" y="939" type="line"/>
      <point x="416" y="0" type="line"/>
    </contour>
  </outline>
</glyph>
<glyph name="g" format="2">
  <advance width="1149"/>
  <unicode hex="0067"/>
  <outline>
    <contour>
      <point x="96" y="550" type="qcurve" smooth="yes"/>
      <point x="96" y="803"/>
      <point x="330" y="1102"/>
      <point x="523" y="1102" type="qcurve" smooth="yes"/>
      <point x="622.0" y="1102.0" name="inserted"/>
      <point x="776.5" y="1032.0"/>
      <point x="832" y="962" type="qcurve"/>
      <point x="841" y="1082" type="line"/>
      <point x="1010" y="1082" type="line"/>
      <point x="1010" y="26" type="line" smooth="yes"/>
      <point x="1010" y="-184"/>
      <point x="761" y="-426"/>
      <point x="551" y="-426" type="qcurve" smooth="yes"/>
      <point x="434" y="-426"/>
      <point x="210" y="-326"/>
      <point x="151" y="-239" type="qcurve"/>
      <point x="247" y="-128" type="line"/>
      <point x="306.5" y="-201.5" name="inserted"/>
      <point x="452.0" y="-275.0"/>
      <point x="538" y="-275" type="qcurve" smooth="yes"/>
      <point x="673" y="-275"/>
      <point x="824" y="-123"/>
      <point x="824" y="15" type="qcurve" smooth="yes"/>
      <point x="824" y="108" type="line"/>
      <point x="768.5" y="44.0" name="inserted"/>
      <point x="617.0" y="-20.0"/>
      <point x="521" y="-20" type="qcurve" smooth="yes"/>
      <point x="331" y="-20"/>
      <point x="96" y="286"/>
    </contour>
    <contour>
      <point x="282" y="529" type="qcurve" smooth="yes"/>
      <point x="282" y="346"/>
      <point x="432" y="137"/>
      <point x="567" y="137" type="qcurve" smooth="yes"/>
      <point x="654.5" y="137.0" name="inserted"/>
      <point x="783.0" y="216.5"/>
      <point x="824" y="296" type="qcurve"/>
      <point x="824" y="790" type="line"/>
      <point x="781.5" y="867.5" name="inserted"/>
      <point x="654.0" y="945.0"/>
      <point x="569" y="945" type="qcurve" smooth="yes"/>
      <point x="434" y="945"/>
      <point x="282" y="735"/>
    </contour>
  </outline>
</glyph>
<glyph name="h" format="2">
  <advance width="1128"/>
  <unicode hex="0068"/>
  <outline>
    <contour>
      <point x="325" y="951" type="line"/>
      <point x="386.5" y="1026.5" name="inserted"/>
      <point x="546.5" y="1102.0"/>
      <point x="645" y="1102" type="qcurve" smooth="yes"/>
      <point x="816.5" y="1102.0" name="inserted"/>
      <point x="989.5" y="908.5"/>
      <point x="991" y="715" type="qcurve" smooth="yes"/>
      <point x="991" y="0" type="line"/>
      <point x="806" y="0" type="line"/>
      <point x="806" y="716" type="line" smooth="yes"/>
      <point x="805" y="833"/>
      <point x="700" y="945"/>
      <point x="589" y="945" type="qcurve" smooth="yes"/>
      <point x="499" y="945"/>
      <point x="363" y="849"/>
      <point x="325" y="771" type="qcurve"/>
      <point x="325" y="0" type="line"/>
      <point x="140" y="0" type="line"/>
      <point x="140" y="1536" type="line"/>
      <point x="325" y="1536" type="line"/>
    </contour>
  </outline>
</glyph>
<glyph name="j" format="2">
  <advance width="489"/>
  <unicode hex="006A"/>
  <outline>
    <contour>
      <point x="331" y="1082" type="line"/>
      <point x="331" y="-125" type="line" smooth="yes"/>
      <point x="331.0" y="-281.0" name="inserted"/>
      <point x="189.5" y="-437.0"/>
      <point x="48" y="-437" type="qcurve" smooth="yes"/>
      <point x="17.5" y="-437.0" name="inserted"/>
      <point x="-39.0" y="-428.0"/>
      <point x="-65" y="-419" type="qcurve"/>
      <point x="-65" y="-271" type="line"/>
      <point x="-49.0" y="-275.0" name="inserted"/>
      <point x="-7.0" y="-279.0"/>
      <point x="19" y="-279" type="qcurve" smooth="yes"/>
      <point x="81" y="-279"/>
      <point x="146" y="-212"/>
      <point x="146" y="-129" type="qcurve" smooth="yes"/>
      <point x="146" y="1082" type="line"/>
    </contour>
    <contour>
      <point x="127" y="1369" type="qcurve" smooth="yes"/>
      <point x="127" y="1413"/>
      <point x="182" y="1476"/>
      <point x="235" y="1476" type="qcurve" smooth="yes"/>
      <point x="289" y="1476"/>
      <point x="345" y="1414"/>
      <point x="345.0" y="1369.0" type="qcurve" smooth="yes" name="inserted"/>
      <point x="345" y="1324"/>
      <point x="289" y="1264"/>
      <point x="235.0" y="1264.0" type="qcurve" smooth="yes" name="inserted"/>
      <point x="181" y="1264"/>
      <point x="127" y="1324"/>
    </contour>
  </outline>
</glyph>
<glyph name="k" format="2">
  <advance width="1038"/>
  <unicode hex="006B"/>
  <outline>
    <contour>
      <point x="442" y="501" type="line"/>
      <point x="326" y="380" type="line"/>
      <point x="326" y="0" type="line"/>
      <point x="141" y="0" type="line"/>
      <point x="141" y="1536" type="line"/>
      <point x="326" y="1536" type="line"/>
      <point x="326" y="607" type="line"/>
      <point x="425" y="726" type="line"/>
      <point x="762" y="1082" type="line"/>
      <point x="987" y="1082" type="line"/>
      <point x="566" y="630" type="line"/>
      <point x="1036" y="0" type="line"/>
      <point x="819" y="0" type="line"/>
    </contour>
  </outline>
</glyph>
<glyph name="m" format="2">
  <advance width="1795"/>
  <unicode hex="006D"/>
  <outline>
    <contour>
      <point x="314" y="1082" type="line"/>
      <point x="319" y="962" type="line"/>
      <point x="378.5" y="1032.0" name="inserted"/>
      <point x="539.0" y="1102.0"/>
      <point x="640" y="1102" type="qcurve" smooth="yes"/>
      <point x="753.5" y="1102.0" name="inserted"/>
      <point x="908.0" y="1015.0"/>
      <point x="949" y="928" type="qcurve"/>
      <point x="1003" y="1006"/>
      <point x="1176" y="1102"/>
      <point x="1294" y="1102" type="qcurve" smooth="yes"/>
      <point x="1472.0" y="1102.0" name="inserted"/>
      <point x="1653.0" y="913.5"/>
      <point x="1656" y="725" type="qcurve" smooth="yes"/>
      <point x="1656" y="0" type="line"/>
      <point x="1471" y="0" type="line"/>
      <point x="1471" y="714" type="line" smooth="yes"/>
      <point x="1471" y="830"/>
      <point x="1365" y="945"/>
      <point x="1240" y="945" type="qcurve" smooth="yes"/>
      <point x="1137" y="945"/>
      <point x="1001" y="822"/>
      <point x="990" y="718" type="qcurve"/>
      <point x="990" y="0" type="line"/>
      <point x="804" y="0" type="line"/>
      <point x="804" y="709" type="line" smooth="yes"/>
      <point x="804.0" y="827.0" name="inserted"/>
      <point x="688.5" y="945.0"/>
      <point x="573" y="945" type="qcurve" smooth="yes"/>
      <point x="482.0" y="945.0" name="inserted"/>
      <point x="357.5" y="867.5"/>
      <point x="324" y="790" type="qcurve"/>
      <point x="324" y="0" type="line"/>
      <point x="139" y="0" type="line"/>
      <point x="139" y="1082" type="line"/>
    </contour>
  </outline>
</glyph>
<glyph name="o" format="2">
  <advance width="1168"/>
  <unicode hex="006F"/>
  <outline>
    <contour>
      <point x="91" y="551" type="line" smooth="yes"/>
      <point x="91" y="710"/>
      <point x="216" y="964"/>
      <point x="327.5" y="1033.0" type="qcurve" smooth="yes" name="inserted"/>
      <point x="383.25" y="1067.5" name="inserted"/>
      <point x="510.5" y="1102.0"/>
      <point x="582" y="1102" type="qcurve" smooth="yes"/>
      <point x="803" y="1102"/>
      <point x="1076" y="796"/>
      <point x="1076" y="542" type="qcurve" smooth="yes"/>
      <point x="1076" y="529" type="line" smooth="yes"/>
      <point x="1076" y="371"/>
      <point x="955" y="120"/>
      <point x="842.5" y="50.0" type="qcurve" smooth="yes" name="inserted"/>
      <point x="786.25" y="15.0" name="inserted"/>
      <point x="657.0" y="-20.0"/>
      <point x="584" y="-20" type="qcurve" smooth="yes"/>
      <point x="364" y="-20"/>
      <point x="91" y="286"/>
      <point x="91" y="538" type="qcurve" smooth="yes"/>
    </contour>
    <contour>
      <point x="277" y="529" type="qcurve" smooth="yes"/>
      <point x="277" y="349"/>
      <point x="444" y="131"/>
      <point x="584" y="131" type="qcurve" smooth="yes"/>
      <point x="725" y="131"/>
      <point x="891" y="352"/>
      <point x="891" y="551" type="qcurve" smooth="yes"/>
      <point x="891" y="729"/>
      <point x="722" y="950"/>
      <point x="582" y="950" type="qcurve" smooth="yes"/>
      <point x="445" y="950"/>
      <point x="277" y="732"/>
    </contour>
  </outline>
</glyph>
<glyph name="p" format="2">
  <advance width="1149"/>
  <unicode hex="0070"/>
  <outline>
    <contour>
      <point x="1054" y="529" type="line" smooth="yes"/>
      <point x="1054" y="282"/>
      <point x="828" y="-20"/>
      <point x="635" y="-20" type="qcurve" smooth="yes"/>
      <point x="536.5" y="-20.0" name="inserted"/>
      <point x="381.5" y="42.5"/>
      <point x="325" y="105" type="qcurve"/>
      <point x="325" y="-416" type="line"/>
      <point x="140" y="-416" type="line"/>
      <point x="140" y="1082" type="line"/>
      <point x="309" y="1082" type="line"/>
      <point x="318" y="962" type="line"/>
      <point x="374.5" y="1032.0" name="inserted"/>
      <point x="531.5" y="1102.0"/>
      <point x="632" y="1102" type="qcurve" smooth="yes"/>
      <point x="827" y="1102"/>
      <point x="1054" y="808"/>
      <point x="1054" y="546" type="qcurve" smooth="yes"/>
    </contour>
    <contour>
      <point x="869" y="550" type="qcurve" smooth="yes"/>
      <point x="869" y="733"/>
      <point x="713" y="945"/>
      <point x="577" y="945" type="qcurve" smooth="yes"/>
      <point x="493.0" y="945.0" name="inserted"/>
      <point x="367.0" y="870.5"/>
      <point x="325" y="796" type="qcurve"/>
      <point x="325" y="279" type="line"/>
      <point x="366.5" y="205.0" name="inserted"/>
      <point x="493.5" y="131.0"/>
      <point x="579" y="131" type="qcurve" smooth="yes"/>
      <point x="712" y="131"/>
      <point x="869" y="342"/>
    </contour>
  </outline>
</glyph>
<glyph name="y" format="2">
  <advance width="969"/>
  <unicode hex="0079"/>
  <outline>
    <contour>
      <point x="494" y="271" type="line"/>
      <point x="746" y="1082" type="line"/>
      <point x="944" y="1082" type="line"/>
      <point x="509" y="-167" type="line" smooth="yes"/>
      <point x="458.5" y="-302.0" name="inserted"/>
      <point x="298.0" y="-437.0"/>
      <point x="188" y="-437" type="qcurve"/>
      <point x="153" y="-434" type="line"/>
      <point x="84" y="-421" type="line"/>
      <point x="84" y="-271" type="line"/>
      <point x="134" y="-275" type="line"/>
      <point x="228" y="-275"/>
      <point x="333" y="-199"/>
      <point x="367" y="-98" type="qcurve" smooth="yes"/>
      <point x="408" y="12" type="line"/>
      <point x="22" y="1082" type="line"/>
      <point x="224" y="1082" type="line"/>
    </contour>
  </outline>
</glyph>
<glyph name="bar" format="2">
  <advance width="499"/>
  <unicode hex="007C"/>
  <outline>
    <contour>
      <point x="324" y="-270" type="line"/>
      <point x="175" y="-270" type="line"/>
      <point x="175" y="1456" type="line"/>
      <point x="324" y="1456" type="line"/>
    </contour>
  </outline>
</glyph>
<glyph name="exclamdown" format="2">
  <advance width="499"/>
  <unicode hex="00A1"/>
  <outline>
    <contour>
      <point x="170" y="684" type="line"/>
      <point x="338" y="684" type="line"/>
      <point x="351" y="-360" type="line"/>
      <point x="157" y="-360" type="line"/>
    </contour>
    <contour>
      <point x="358" y="996" type="qcurve" smooth="yes"/>
      <point x="358" y="951"/>
      <point x="303" y="889"/>
      <point x="249.0" y="889.0" type="qcurve" smooth="yes" name="inserted"/>
      <point x="195" y="889"/>
      <point x="139" y="951"/>
      <point x="139.0" y="996.0" type="qcurve" smooth="yes" name="inserted"/>
      <point x="139" y="1041"/>
      <point x="195" y="1101"/>
      <point x="249.0" y="1101.0" type="qcurve" smooth="yes" name="inserted"/>
      <point x="303" y="1101"/>
      <point x="358" y="1041"/>
    </contour>
  </outline>
</glyph>
<glyph name="yen" format="2">
  <advance width="1075"/>
  <unicode hex="00A5"/>
  <outline>
    <contour>
      <point x="539" y="793" type="line"/>
      <point x="847" y="1456" type="line"/>
      <point x="1060" y="1456" type="line"/>
      <point x="693" y="736" type="line"/>
      <point x="954" y="736" type="line"/>
      <point x="954" y="611" type="line"/>
      <point x="630" y="611" type="line"/>
      <point x="630" y="446" type="line"/>
      <point x="954" y="446" type="line"/>
      <point x="954" y="322" type="line"/>
      <point x="630" y="322" type="line"/>
      <point x="630" y="0" type="line"/>
      <point x="437" y="0" type="line"/>
      <point x="437" y="322" type="line"/>
      <point x="119" y="322" type="line"/>
      <point x="119" y="446" type="line"/>
      <point x="437" y="446" type="line"/>
      <point x="437" y="611" type="line"/>
      <point x="119" y="611" type="line"/>
      <point x="119" y="736" type="line"/>
      <point x="382" y="736" type="line"/>
      <point x="15" y="1456" type="line"/>
      <point x="231" y="1456" type="line"/>
    </contour>
  </outline>
</glyph>
<glyph name="section" format="2">
  <advance width="1256"/>
  <unicode hex="00A7"/>
  <outline>
    <contour>
      <point x="1145" y="431" type="qcurve" smooth="yes"/>
      <point x="1145.0" y="336.5" name="inserted"/>
      <point x="1052.0" y="199.5"/>
      <point x="959" y="157" type="qcurve"/>
      <point x="1028" y="108"/>
      <point x="1100" y="-28"/>
      <point x="1100" y="-128" type="qcurve" smooth="yes"/>
      <point x="1100" y="-296"/>
      <point x="840" y="-495"/>
      <point x="612" y="-495" type="qcurve" smooth="yes"/>
      <point x="500" y="-495"/>
      <point x="299" y="-439"/>
      <point x="229" y="-382" type="qcurve" smooth="yes"/>
      <point x="159.5" y="-325.5" name="inserted"/>
      <point x="90.0" y="-166.5"/>
      <point x="90" y="-64" type="qcurve"/>
      <point x="276" y="-62" type="line"/>
      <point x="276" y="-192"/>
      <point x="456" y="-343"/>
      <point x="612" y="-343" type="qcurve" smooth="yes"/>
      <point x="748" y="-343"/>
      <point x="914" y="-226"/>
      <point x="914" y="-130" type="qcurve" smooth="yes"/>
      <point x="914" y="-41"/>
      <point x="772" y="64"/>
      <point x="563" y="126" type="qcurve" smooth="yes"/>
      <point x="381" y="174"/>
      <point x="189" y="285"/>
      <point x="142.5" y="362.5" type="qcurve" smooth="yes" name="inserted"/>
      <point x="119.25" y="401.25" name="inserted"/>
      <point x="96.0" y="495.5"/>
      <point x="96" y="551" type="qcurve" smooth="yes"/>
      <point x="96.0" y="644.0" name="inserted"/>
      <point x="187.0" y="781.0"/>
      <point x="278" y="825" type="qcurve"/>
      <point x="212" y="874"/>
      <point x="141" y="1010"/>
      <point x="141" y="1110" type="qcurve" smooth="yes"/>
      <point x="141" y="1276"/>
      <point x="408" y="1476"/>
      <point x="630" y="1476" type="qcurve" smooth="yes"/>
      <point x="862" y="1476"/>
      <point x="1122" y="1250"/>
      <point x="1122" y="1045" type="qcurve"/>
      <point x="937" y="1045" type="line"/>
      <point x="937" y="1170"/>
      <point x="769" y="1325"/>
      <point x="630" y="1325" type="qcurve" smooth="yes"/>
      <point x="488" y="1325"/>
      <point x="327" y="1210"/>
      <point x="327" y="1112" type="qcurve" smooth="yes"/>
      <point x="327" y="1043"/>
      <point x="383" y="963"/>
      <point x="450.5" y="930.5" type="qcurve" smooth="yes" name="inserted"/>
      <point x="518" y="898"/>
      <point x="805" y="818"/>
      <point x="889.5" y="782.0" type="qcurve" smooth="yes" name="inserted"/>
      <point x="974" y="746"/>
      <point x="1087" y="649"/>
      <point x="1116.0" y="584.5" type="qcurve" smooth="yes" name="inserted"/>
      <point x="1130.5" y="552.25" name="inserted"/>
      <point x="1145.0" y="475.5"/>
    </contour>
    <contour>
      <point x="602" y="691" type="qcurve" smooth="yes"/>
      <point x="557.0" y="703.0" name="inserted"/>
      <point x="474.5" y="728.5"/>
      <point x="437" y="742" type="qcurve"/>
      <point x="357" y="723"/>
      <point x="282" y="622"/>
      <point x="282" y="553" type="qcurve" smooth="yes"/>
      <point x="282" y="483"/>
      <point x="336" y="403"/>
      <point x="402.5" y="370.0" type="qcurve" smooth="yes" name="inserted"/>
      <point x="469" y="337"/>
      <point x="753" y="255"/>
      <point x="797" y="238" type="qcurve"/>
      <point x="875" y="258"/>
      <point x="959" y="359"/>
      <point x="959" y="428" type="qcurve" smooth="yes"/>
      <point x="959" y="516"/>
      <point x="820" y="625"/>
    </contour>
  </outline>
</glyph>
<glyph name="logicalnot" format="2">
  <advance width="1134"/>
  <unicode hex="00AC"/>
  <outline>
    <contour>
      <point x="958" y="375" type="line"/>
      <point x="772" y="375" type="line"/>
      <point x="772" y="639" type="line"/>
      <point x="127" y="639" type="line"/>
      <point x="127" y="800" type="line"/>
      <point x="958" y="800" type="line"/>
    </contour>
  </outline>
</glyph>
<glyph name="degree" format="2">
  <advance width="765"/>
  <unicode hex="00B0"/>
  <outline>
    <contour>
      <point x="130" y="1216" type="qcurve" smooth="yes"/>
      <point x="130" y="1320"/>
      <point x="279" y="1476"/>
      <point x="385" y="1476" type="qcurve" smooth="yes"/>
      <point x="489" y="1476"/>
      <point x="636" y="1321"/>
      <point x="636" y="1216" type="qcurve" smooth="yes"/>
      <point x="636" y="1110"/>
      <point x="489" y="960"/>
      <point x="385" y="960" type="qcurve" smooth="yes"/>
      <point x="280" y="960"/>
      <point x="130" y="1110"/>
    </contour>
    <contour>
      <point x="385" y="1088" type="qcurve" smooth="yes"/>
      <point x="439" y="1088"/>
      <point x="513" y="1159"/>
      <point x="513" y="1216" type="qcurve" smooth="yes"/>
      <point x="513" y="1274"/>
      <point x="439" y="1349"/>
      <point x="385" y="1349" type="qcurve" smooth="yes"/>
      <point x="330" y="1349"/>
      <point x="255" y="1270"/>
      <point x="255.0" y="1216.0" type="qcurve" smooth="yes" name="inserted"/>
      <point x="255" y="1162"/>
      <point x="330" y="1088"/>
    </contour>
  </outline>
</glyph>
<glyph name="plusminus" format="2">
  <advance width="1094"/>
  <unicode hex="00B1"/>
  <outline>
    <contour>
      <point x="649" y="854" type="line"/>
      <point x="1013" y="854" type="line"/>
      <point x="1013" y="703" type="line"/>
      <point x="649" y="703" type="line"/>
      <point x="649" y="289" type="line"/>
      <point x="482" y="289" type="line"/>
      <point x="482" y="703" type="line"/>
      <point x="97" y="703" type="line"/>
      <point x="97" y="854" type="line"/>
      <point x="482" y="854" type="line"/>
      <point x="482" y="1267" type="line"/>
      <point x="649" y="1267" type="line"/>
    </contour>
    <contour>
      <point x="970" y="0" type="line"/>
      <point x="135" y="0" type="line"/>
      <point x="135" y="152" type="line"/>
      <point x="970" y="152" type="line"/>
    </contour>
  </outline>
</glyph>
<glyph name="acute" format="2">
  <advance width="642"/>
  <unicode hex="00B4"/>
  <outline>
    <contour>
      <point x="316" y="1536" type="line"/>
      <point x="540" y="1536" type="line"/>
      <point x="272" y="1242" type="line"/>
      <point x="123" y="1242" type="line"/>
    </contour>
  </outline>
</glyph>
<glyph name="paragraph" format="2">
  <advance width="1001"/>
  <unicode hex="00B6"/>
  <outline>
    <contour>
      <point x="646" y="0" type="line"/>
      <point x="646" y="520" type="line"/>
      <point x="562" y="520" type="line" smooth="yes"/>
      <point x="332" y="520"/>
      <point x="67" y="774"/>
      <point x="67" y="988" type="qcurve" smooth="yes"/>
      <point x="67" y="1201"/>
      <point x="333" y="1456"/>
      <point x="563" y="1456" type="qcurve" smooth="yes"/>
      <point x="832" y="1456" type="line"/>
      <point x="832" y="0" type="line"/>
    </contour>
  </outline>
</glyph>
<glyph name="periodcentered" format="2">
  <advance width="534"/>
  <unicode hex="00B7"/>
  <outline>
    <contour>
      <point x="147" y="729" type="qcurve" smooth="yes"/>
      <point x="147" y="777"/>
      <point x="204" y="841"/>
      <point x="261.0" y="841.0" type="qcurve" smooth="yes" name="inserted"/>
      <point x="318" y="841"/>
      <point x="377" y="777"/>
      <point x="377" y="729" type="qcurve" smooth="yes"/>
      <point x="377" y="682"/>
      <point x="318" y="619"/>
      <point x="261.0" y="619.0" type="qcurve" smooth="yes" name="inserted"/>
      <point x="204" y="619"/>
      <point x="147" y="682"/>
    </contour>
  </outline>
</glyph>
<glyph name="multiply" format="2">
  <advance width="1092"/>
  <unicode hex="00D7"/>
  <outline>
    <contour>
      <point x="89" y="329" type="line"/>
      <point x="419" y="665" type="line"/>
      <point x="91" y="1000" type="line"/>
      <point x="210" y="1123" type="line"/>
      <point x="539" y="788" type="line"/>
      <point x="868" y="1123" type="line"/>
      <point x="987" y="1000" type="line"/>
      <point x="659" y="665" type="line"/>
      <point x="989" y="329" type="line"/>
      <point x="870" y="206" type="line"/>
      <point x="539" y="543" type="line"/>
      <point x="208" y="206" type="line"/>
    </contour>
  </outline>
</glyph>
<glyph name="eth" format="2">
  <advance width="1200"/>
  <unicode hex="00F0"/>
  <outline>
    <contour>
      <point x="820" y="1301" type="line"/>
      <point x="944.5" y="1169.0" name="inserted"/>
      <point x="1069.0" y="832.5"/>
      <point x="1069" y="628" type="qcurve" smooth="yes"/>
      <point x="1069" y="535" type="line" smooth="yes"/>
      <point x="1069" y="377"/>
      <point x="952" y="124"/>
      <point x="844.0" y="52.0" type="qcurve" smooth="yes" name="inserted"/>
      <point x="790.0" y="16.0" name="inserted"/>
      <point x="669.0" y="-20.0"/>
      <point x="602" y="-20" type="qcurve" smooth="yes"/>
      <point x="467" y="-20"/>
      <point x="247" y="109"/>
      <point x="186.5" y="221.0" type="qcurve" smooth="yes" name="inserted"/>
      <point x="156.25" y="277.0" name="inserted"/>
      <point x="126.0" y="400.0"/>
      <point x="126" y="467" type="qcurve" smooth="yes"/>
      <point x="126" y="614"/>
      <point x="238" y="847"/>
      <point x="341.5" y="912.0" type="qcurve" smooth="yes" name="inserted"/>
      <point x="393.25" y="944.5" name="inserted"/>
      <point x="509.5" y="977.0"/>
      <point x="574" y="977" type="qcurve" smooth="yes"/>
      <point x="655.5" y="977.0" name="inserted"/>
      <point x="797.5" y="920.0"/>
      <point x="858" y="863" type="qcurve"/>
      <point x="834.0" y="960.5" name="inserted"/>
      <point x="739.5" y="1128.5"/>
      <point x="669" y="1199" type="qcurve"/>
      <point x="451" y="1051" type="line"/>
      <point x="378" y="1150" type="line"/>
      <point x="570" y="1281" type="line"/>
      <point x="504.0" y="1326.5" name="inserted"/>
      <point x="346.5" y="1396.5"/>
      <point x="255" y="1421" type="qcurve"/>
      <point x="312" y="1580" type="line"/>
      <point x="431.5" y="1553.0" name="inserted"/>
      <point x="638.5" y="1456.5"/>
      <point x="726" y="1387" type="qcurve"/>
      <point x="915" y="1516" type="line"/>
      <point x="988" y="1416" type="line"/>
    </contour>
    <contour>
      <point x="884" y="635" type="line"/>
      <point x="882" y="691" type="line"/>
      <point x="849" y="752"/>
      <point x="710" y="825"/>
      <point x="618" y="825" type="qcurve" smooth="yes"/>
      <point x="473" y="825"/>
      <point x="311" y="634"/>
      <point x="311" y="467" type="qcurve" smooth="yes"/>
      <point x="311" y="327"/>
      <point x="478" y="131"/>
      <point x="606" y="131" type="qcurve" smooth="yes"/>
      <point x="731" y="131"/>
      <point x="884" y="357"/>
      <point x="884" y="541" type="qcurve" smooth="yes"/>
    </contour>
  </outline>
</glyph>
<glyph name="divide" format="2">
  <advance width="1169"/>
  <unicode hex="00F7"/>
  <outline>
    <contour>
      <point x="1069" y="600" type="line"/>
      <point x="71" y="600" type="line"/>
      <point x="71" y="784" type="line"/>
      <point x="1069" y="784" type="line"/>
    </contour>
    <contour>
      <point x="461" y="1098" type="qcurve" smooth="yes"/>
      <point x="461" y="1146"/>
      <point x="518" y="1210"/>
      <point x="575.0" y="1210.0" type="qcurve" smooth="yes" name="inserted"/>
      <point x="632" y="1210"/>
      <point x="691" y="1146"/>
      <point x="691" y="1098" type="qcurve" smooth="yes"/>
      <point x="691" y="1051"/>
      <point x="632" y="989"/>
      <point x="575.0" y="989.0" type="qcurve" smooth="yes" name="inserted"/>
      <point x="518" y="989"/>
      <point x="461" y="1051"/>
    </contour>
    <contour>
      <point x="461" y="281" type="qcurve" smooth="yes"/>
      <point x="461" y="329"/>
      <point x="518" y="393"/>
      <point x="575.0" y="393.0" type="qcurve" smooth="yes" name="inserted"/>
      <point x="632" y="393"/>
      <point x="691" y="329"/>
      <point x="691" y="281" type="qcurve" smooth="yes"/>
      <point x="691" y="235"/>
      <point x="632" y="172"/>
      <point x="575.0" y="172.0" type="qcurve" smooth="yes" name="inserted"/>
      <point x="518" y="172"/>
      <point x="461" y="235"/>
    </contour>
  </outline>
</glyph>
<glyph name="oslash" format="2">
  <advance width="1160"/>
  <unicode hex="00F8"/>
  <outline>
    <contour>
      <point x="91" y="551" type="qcurve" smooth="yes"/>
      <point x="91" y="710"/>
      <point x="214" y="963"/>
      <point x="326.5" y="1032.5" type="qcurve" smooth="yes" name="inserted"/>
      <point x="382.75" y="1067.25" name="inserted"/>
      <point x="510.5" y="1102.0"/>
      <point x="582" y="1102" type="qcurve" smooth="yes"/>
      <point x="637.0" y="1102.0" name="inserted"/>
      <point x="739.0" y="1081.0"/>
      <point x="786" y="1060" type="qcurve"/>
      <point x="859" y="1208" type="line"/>
      <point x="983" y="1208" type="line"/>
      <point x="881" y="1003" type="line"/>
      <point x="978.5" y="926.0" name="inserted"/>
      <point x="1076.0" y="689.0"/>
      <point x="1076" y="529" type="qcurve" smooth="yes"/>
      <point x="1076" y="371"/>
      <point x="952" y="117"/>
      <point x="840.0" y="48.5" type="qcurve" smooth="yes" name="inserted"/>
      <point x="784.0" y="14.25" name="inserted"/>
      <point x="656.0" y="-20.0"/>
      <point x="584" y="-20" type="qcurve" smooth="yes"/>
      <point x="532.0" y="-20.0" name="inserted"/>
      <point x="437.0" y="-2.5"/>
      <point x="394" y="15" type="qcurve"/>
      <point x="320" y="-134" type="line"/>
      <point x="196" y="-134" type="line"/>
      <point x="296" y="69" type="line"/>
      <point x="193.5" y="143.5" name="inserted"/>
      <point x="91.0" y="384.5"/>
    </contour>
    <contour>
      <point x="276" y="529" type="qcurve" smooth="yes"/>
      <point x="276.0" y="432.0" name="inserted"/>
      <point x="324.5" y="279.5"/>
      <point x="373" y="224" type="qcurve"/>
      <point x="716" y="918" type="line"/>
      <point x="685.0" y="934.0" name="inserted"/>
      <point x="618.0" y="950.0"/>
      <point x="582" y="950" type="qcurve" smooth="yes"/>
      <point x="444" y="950"/>
      <point x="276" y="732"/>
    </contour>
    <contour>
      <point x="890" y="551" type="line" smooth="yes"/>
      <point x="890.0" y="642.0" name="inserted"/>
      <point x="846.5" y="788.5"/>
      <point x="803" y="844" type="qcurve"/>
      <point x="463" y="156" type="line"/>
      <point x="490.5" y="143.5" name="inserted"/>
      <point x="551.0" y="131.0"/>
      <point x="584" y="131" type="qcurve" smooth="yes"/>
      <point x="723" y="131"/>
      <point x="890" y="350"/>
      <point x="890" y="535" type="qcurve" smooth="yes"/>
    </contour>
  </outline>
</glyph>
<glyph name="aogonek" format="2">
  <advance width="1114"/>
  <unicode hex="0105"/>
  <outline>
    <contour>
      <point x="804" y="7" type="qcurve"/>
      <point x="796.5" y="26.0" name="inserted"/>
      <point x="785.5" y="79.5"/>
      <point x="782" y="114" type="qcurve"/>
      <point x="717.5" y="47.0" name="inserted"/>
      <point x="563.5" y="-20.0"/>
      <point x="474" y="-20" type="qcurve" smooth="yes"/>
      <point x="314" y="-20"/>
      <point x="109" y="161"/>
      <point x="109" y="300" type="qcurve" smooth="yes"/>
      <point x="109" y="469"/>
      <point x="366" y="656"/>
      <point x="599" y="656" type="qcurve" smooth="yes"/>
      <point x="779" y="656" type="line"/>
      <point x="779" y="741" type="line" smooth="yes"/>
      <point x="779" y="838"/>
      <point x="663" y="953"/>
      <point x="550" y="953" type="qcurve" smooth="yes"/>
      <point x="451" y="953"/>
      <point x="317" y="853"/>
      <point x="317" y="782" type="qcurve"/>
      <point x="131" y="782" type="line"/>
      <point x="131" y="863"/>
      <point x="246" y="1014"/>
      <point x="344.5" y="1058.0" type="qcurve" smooth="yes" name="inserted"/>
      <point x="393.75" y="1080.0" name="inserted"/>
      <point x="502.0" y="1102.0"/>
      <point x="561" y="1102" type="qcurve" smooth="yes"/>
      <point x="748" y="1102"/>
      <point x="960" y="915"/>
      <point x="964" y="751" type="qcurve" smooth="yes"/>
      <point x="964" y="253" type="line" smooth="yes"/>
      <point x="964.0" y="178.5" name="inserted"/>
      <point x="983.0" y="60.0"/>
      <point x="1002" y="16" type="qcurve"/>
      <point x="1002" y="0" type="line"/>
      <point x="969" y="0" type="line"/>
      <point x="911" y="-45" type="line" smooth="yes"/>
      <point x="854.5" y="-90.5" name="inserted"/>
      <point x="798.0" y="-179.0"/>
      <point x="798" y="-222" type="qcurve" smooth="yes"/>
      <point x="798.0" y="-258.0" name="inserted"/>
      <point x="837.0" y="-294.0"/>
      <point x="876" y="-294" type="qcurve" smooth="yes"/>
      <point x="900.0" y="-294.0" name="inserted"/>
      <point x="950.0" y="-281.0"/>
      <point x="976" y="-268" type="qcurve"/>
      <point x="989" y="-389" type="line"/>
      <point x="954.0" y="-411.0" name="inserted"/>
      <point x="874.0" y="-433.0"/>
      <point x="829" y="-433" type="qcurve" smooth="yes"/>
      <point x="740" y="-433"/>
      <point x="637" y="-329"/>
      <point x="637" y="-243" type="qcurve" smooth="yes"/>
      <point x="637.0" y="-171.0" name="inserted"/>
      <point x="720.5" y="-46.0"/>
    </contour>
    <contour>
      <point x="501" y="141" type="qcurve" smooth="yes"/>
      <point x="588" y="141"/>
      <point x="744" y="231"/>
      <point x="779" y="303" type="qcurve"/>
      <point x="779" y="525" type="line"/>
      <point x="634" y="525" type="line" smooth="yes"/>
      <point x="464.0" y="525.0" name="inserted"/>
      <point x="294.0" y="425.5"/>
      <point x="294" y="326" type="qcurve" smooth="yes"/>
      <point x="294" y="239"/>
      <point x="410" y="141"/>
    </contour>
  </outline>
</glyph>
<glyph name="dcroat" format="2">
  <advance width="1223"/>
  <unicode hex="0111"/>
  <outline>
    <contour>
      <point x="1196" y="1233" type="line"/>
      <point x="1008" y="1233" type="line"/>
      <point x="1008" y="0" type="line"/>
      <point x="838" y="0" type="line"/>
      <point x="829" y="116" type="line"/>
      <point x="773.5" y="48.0" name="inserted"/>
      <point x="619.0" y="-20.0"/>
      <point x="520" y="-20" type="qcurve" smooth="yes"/>
      <point x="332" y="-20"/>
      <point x="95" y="288"/>
      <point x="95" y="536" type="qcurve" smooth="yes"/>
      <point x="95" y="550" type="line" smooth="yes"/>
      <point x="95" y="799"/>
      <point x="331" y="1102"/>
      <point x="522" y="1102" type="qcurve" smooth="yes"/>
      <point x="617.0" y="1102.0" name="inserted"/>
      <point x="767.5" y="1037.0"/>
      <point x="823" y="972" type="qcurve"/>
      <point x="823" y="1233" type="line"/>
      <point x="559" y="1233" type="line"/>
      <point x="559" y="1384" type="line"/>
      <point x="823" y="1384" type="line"/>
      <point x="823" y="1536" type="line"/>
      <point x="1008" y="1536" type="line"/>
      <point x="1008" y="1384" type="line"/>
      <point x="1196" y="1384" type="line"/>
    </contour>
    <contour>
      <point x="280" y="529" type="qcurve" smooth="yes"/>
      <point x="280" y="345"/>
      <point x="432" y="137"/>
      <point x="566" y="137" type="qcurve" smooth="yes"/>
      <point x="654.0" y="137.0" name="inserted"/>
      <point x="782.5" y="216.0"/>
      <point x="823" y="295" type="qcurve"/>
      <point x="823" y="792" type="line"/>
      <point x="781.5" y="868.5" name="inserted"/>
      <point x="654.0" y="945.0"/>
      <point x="568" y="945" type="qcurve" smooth="yes"/>
      <point x="432" y="945"/>
      <point x="280" y="735"/>
    </contour>
  </outline>
</glyph>
<glyph name="Hbar" format="2">
  <advance width="1434"/>
  <unicode hex="0126"/>
  <outline>
    <contour>
      <point x="1282" y="1166" type="line"/>
      <point x="1416" y="1166" type="line"/>
      <point x="1416" y="1024" type="line"/>
      <point x="1282" y="1024" type="line"/>
      <point x="1282" y="0" type="line"/>
      <point x="1089" y="0" type="line"/>
      <point x="1089" y="673" type="line"/>
      <point x="356" y="673" type="line"/>
      <point x="356" y="0" type="line"/>
      <point x="163" y="0" type="line"/>
      <point x="163" y="1024" type="line"/>
      <point x="29" y="1024" type="line"/>
      <point x="29" y="1166" type="line"/>
      <point x="163" y="1166" type="line"/>
      <point x="163" y="1456" type="line"/>
      <point x="356" y="1456" type="line"/>
      <point x="356" y="1166" type="line"/>
      <point x="1089" y="1166" type="line"/>
      <point x="1089" y="1456" type="line"/>
      <point x="1282" y="1456" type="line"/>
    </contour>
    <contour>
      <point x="356" y="830" type="line"/>
      <point x="1089" y="830" type="line"/>
      <point x="1089" y="1024" type="line"/>
      <point x="356" y="1024" type="line"/>
    </contour>
  </outline>
</glyph>
<glyph name="dotlessi" format="2">
  <advance width="506"/>
  <unicode hex="0131"/>
  <outline>
    <contour>
      <point x="341" y="0" type="line"/>
      <point x="155" y="0" type="line"/>
      <point x="155" y="1082" type="line"/>
      <point x="341" y="1082" type="line"/>
    </contour>
  </outline>
</glyph>
<glyph name="kgreenlandic" format="2">
  <advance width="1139"/>
  <unicode hex="0138"/>
  <outline>
    <contour>
      <point x="447" y="461" type="line"/>
      <point x="340" y="461" type="line"/>
      <point x="340" y="0" type="line"/>
      <point x="154" y="0" type="line"/>
      <point x="154" y="1082" type="line"/>
      <point x="340" y="1082" type="line"/>
      <point x="340" y="624" type="line"/>
      <point x="431" y="624" type="line"/>
      <point x="828" y="1082" type="line"/>
      <point x="1051" y="1082" type="line"/>
      <point x="599" y="557" type="line"/>
      <point x="1087" y="0" type="line"/>
      <point x="854" y="0" type="line"/>
    </contour>
  </outline>
</glyph>
<glyph name="Lslash" format="2">
  <advance width="1103"/>
  <unicode hex="0141"/>
  <outline>
    <contour>
      <point x="361" y="843" type="line"/>
      <point x="624" y="927" type="line"/>
      <point x="624" y="802" type="line"/>
      <point x="361" y="718" type="line"/>
      <point x="361" y="157" type="line"/>
      <point x="1051" y="157" type="line"/>
      <point x="1051" y="0" type="line"/>
      <point x="168" y="0" type="line"/>
      <point x="168" y="657" type="line"/>
      <point x="34" y="615" type="line"/>
      <point x="34" y="740" type="line"/>
      <point x="168" y="782" type="line"/>
      <point x="168" y="1456" type="line"/>
      <point x="361" y="1456" type="line"/>
    </contour>
  </outline>
</glyph>
<glyph name="Eng" format="2">
  <advance width="1419"/>
  <unicode hex="014A"/>
  <outline>
    <contour>
      <point x="1265" y="1456" type="line"/>
      <point x="1265" y="-83" type="line" smooth="yes"/>
      <point x="1265" y="-251"/>
      <point x="1094" y="-437"/>
      <point x="938" y="-437" type="qcurve" smooth="yes"/>
      <point x="907.5" y="-437.0" name="inserted"/>
      <point x="850.0" y="-428.0"/>
      <point x="823" y="-419" type="qcurve"/>
      <point x="837" y="-265" type="line"/>
      <point x="855.5" y="-272.0" name="inserted"/>
      <point x="904.5" y="-279.0"/>
      <point x="935" y="-279" type="qcurve" smooth="yes"/>
      <point x="1003.0" y="-279.0" name="inserted"/>
      <point x="1071.0" y="-175.0"/>
      <point x="1071" y="-71" type="qcurve" smooth="yes"/>
      <point x="1071" y="0" type="line"/>
      <point x="354" y="1130" type="line"/>
      <point x="354" y="0" type="line"/>
      <point x="162" y="0" type="line"/>
      <point x="162" y="1456" type="line"/>
      <point x="354" y="1456" type="line"/>
      <point x="1071" y="328" type="line"/>
      <point x="1071" y="1456" type="line"/>
    </contour>
  </outline>
</glyph>
<glyph name="eng" format="2">
  <advance width="1160"/>
  <unicode hex="014B"/>
  <outline>
    <contour>
      <point x="311" y="1082" type="line"/>
      <point x="324" y="928" type="line"/>
      <point x="382.0" y="1015.0" name="inserted"/>
      <point x="541.5" y="1102.0"/>
      <point x="643" y="1102" type="qcurve" smooth="yes"/>
      <point x="822" y="1102"/>
      <point x="1006" y="894"/>
      <point x="1008" y="691" type="qcurve" smooth="yes"/>
      <point x="1008" y="-89" type="line" smooth="yes"/>
      <point x="1008" y="-253"/>
      <point x="841" y="-437"/>
      <point x="686" y="-437" type="qcurve" smooth="yes"/>
      <point x="655.5" y="-437.0" name="inserted"/>
      <point x="598.0" y="-428.0"/>
      <point x="571" y="-419" type="qcurve"/>
      <point x="585" y="-262" type="line"/>
      <point x="602.5" y="-268.5" name="inserted"/>
      <point x="653.0" y="-275.0"/>
      <point x="686" y="-275" type="qcurve" smooth="yes"/>
      <point x="754.5" y="-275.0" name="inserted"/>
      <point x="823.0" y="-178.0"/>
      <point x="823" y="-81" type="qcurve" smooth="yes"/>
      <point x="823" y="678" type="line" smooth="yes"/>
      <point x="823" y="817"/>
      <point x="712" y="945"/>
      <point x="587" y="945" type="qcurve" smooth="yes"/>
      <point x="499.5" y="945.0" name="inserted"/>
      <point x="371.5" y="878.5"/>
      <point x="331" y="812" type="qcurve"/>
      <point x="331" y="0" type="line"/>
      <point x="145" y="0" type="line"/>
      <point x="145" y="1082" type="line"/>
    </contour>
  </outline>
</glyph>
<glyph name="oe" format="2">
  <advance width="1860"/>
  <unicode hex="0153"/>
  <outline>
    <contour>
      <point x="97" y="551" type="line" smooth="yes"/>
      <point x="97" y="711"/>
      <point x="218" y="965"/>
      <point x="327.5" y="1033.5" type="qcurve" smooth="yes" name="inserted"/>
      <point x="382.25" y="1067.75" name="inserted"/>
      <point x="508.0" y="1102.0"/>
      <point x="579" y="1102" type="qcurve" smooth="yes"/>
      <point x="716" y="1102"/>
      <point x="917" y="985"/>
      <point x="978" y="885" type="qcurve"/>
      <point x="1043" y="987"/>
      <point x="1239" y="1102"/>
      <point x="1351" y="1102" type="qcurve" smooth="yes"/>
      <point x="1558" y="1102"/>
      <point x="1792" y="848"/>
      <point x="1792" y="613" type="qcurve" smooth="yes"/>
      <point x="1792" y="497" type="line"/>
      <point x="1074" y="497" type="line"/>
      <point x="1081" y="327"/>
      <point x="1245" y="130"/>
      <point x="1379" y="130" type="qcurve" smooth="yes"/>
      <point x="1473.0" y="130.0" name="inserted"/>
      <point x="1627.0" y="184.0"/>
      <point x="1687" y="238" type="qcurve"/>
      <point x="1761" y="112" type="line"/>
      <point x="1692.5" y="46.0" name="inserted"/>
      <point x="1501.5" y="-20.0"/>
      <point x="1379" y="-20" type="qcurve" smooth="yes"/>
      <point x="1244" y="-20"/>
      <point x="1039" y="92"/>
      <point x="976" y="192" type="qcurve"/>
      <point x="914" y="93"/>
      <point x="715" y="-20"/>
      <point x="581" y="-20" type="qcurve" smooth="yes"/>
      <point x="361" y="-20"/>
      <point x="97" y="284"/>
      <point x="97" y="538" type="qcurve" smooth="yes"/>
    </contour>
    <contour>
      <point x="282" y="529" type="qcurve" smooth="yes"/>
      <point x="282" y="346"/>
      <point x="442" y="130"/>
      <point x="581" y="130" type="qcurve" smooth="yes"/>
      <point x="718" y="130"/>
      <point x="878" y="345"/>
      <point x="878" y="551" type="qcurve" smooth="yes"/>
      <point x="878" y="733"/>
      <point x="717" y="950"/>
      <point x="579" y="950" type="qcurve" smooth="yes"/>
      <point x="444" y="950"/>
      <point x="282" y="736"/>
    </contour>
    <contour>
      <point x="1351" y="950" type="qcurve" smooth="yes"/>
      <point x="1252" y="950"/>
      <point x="1102" y="787"/>
      <point x="1080" y="649" type="qcurve"/>
      <point x="1606" y="649" type="line"/>
      <point x="1606" y="675" type="line" smooth="yes"/>
      <point x="1606" y="800"/>
      <point x="1469" y="950"/>
    </contour>
  </outline>
</glyph>
<glyph name="uhorn" format="2">
  <advance width="1267"/>
  <unicode hex="01B0"/>
  <outline>
    <contour>
      <point x="1295" y="1168" type="line"/>
      <point x="1295" y="988"/>
      <point x="1148" y="841"/>
      <point x="988" y="837" type="qcurve"/>
      <point x="988" y="0" type="line"/>
      <point x="812" y="0" type="line"/>
      <point x="808" y="107" type="line"/>
      <point x="754.0" y="43.5" name="inserted"/>
      <point x="595.5" y="-20.0"/>
      <point x="491" y="-20" type="qcurve" smooth="yes"/>
      <point x="318" y="-20"/>
      <point x="137" y="181"/>
      <point x="136" y="378" type="qcurve" smooth="yes"/>
      <point x="136" y="1082" type="line"/>
      <point x="321" y="1082" type="line"/>
      <point x="321" y="383" type="line" smooth="yes"/>
      <point x="321.0" y="260.0" name="inserted"/>
      <point x="421.0" y="137.0"/>
      <point x="521" y="137" type="qcurve" smooth="yes"/>
      <point x="627.0" y="137.0" name="inserted"/>
      <point x="768.0" y="216.0"/>
      <point x="803" y="295" type="qcurve"/>
      <point x="803" y="1082" type="line"/>
      <point x="988" y="1082" type="line"/>
      <point x="988" y="951" type="line"/>
      <point x="1056" y="953"/>
      <point x="1124" y="988"/>
      <point x="1138.5" y="1024.0" type="qcurve" smooth="yes" name="inserted"/>
      <point x="1145.75" y="1042.0" name="inserted"/>
      <point x="1153.0" y="1114.0"/>
      <point x="1153" y="1168" type="qcurve"/>
    </contour>
  </outline>
</glyph>
<glyph name="uni0237" format="2">
  <advance width="515"/>
  <unicode hex="0237"/>
  <outline>
    <contour>
      <point x="357" y="1082" type="line"/>
      <point x="357" y="-89" type="line" smooth="yes"/>
      <point x="357" y="-259"/>
      <point x="187" y="-437"/>
      <point x="35" y="-437" type="qcurve" smooth="yes"/>
      <point x="5.5" y="-437.0" name="inserted"/>
      <point x="-50.0" y="-428.0"/>
      <point x="-76" y="-419" type="qcurve"/>
      <point x="-62" y="-272" type="line"/>
      <point x="-47.0" y="-278.5" name="inserted"/>
      <point x="1.5" y="-285.0"/>
      <point x="35" y="-285" type="qcurve" smooth="yes"/>
      <point x="100" y="-285"/>
      <point x="172" y="-181"/>
      <point x="172" y="-89" type="qcurve" smooth="yes"/>
      <point x="172" y="1082" type="line"/>
    </contour>
  </outline>
</glyph>
<glyph name="uni0259" format="2">
  <advance width="1079"/>
  <unicode hex="0259"/>
  <outline>
    <contour>
      <point x="511" y="1103" type="qcurve" smooth="yes"/>
      <point x="731" y="1103"/>
      <point x="1001" y="803"/>
      <point x="1001" y="554" type="qcurve" smooth="yes"/>
      <point x="1001" y="518" type="line" smooth="yes"/>
      <point x="1001" y="369"/>
      <point x="877" y="121"/>
      <point x="769.0" y="50.5" type="qcurve" smooth="yes" name="inserted"/>
      <point x="715.0" y="15.25" name="inserted"/>
      <point x="600.0" y="-19.5"/>
      <point x="539" y="-19" type="qcurve" smooth="yes"/>
      <point x="331" y="-19"/>
      <point x="98" y="235"/>
      <point x="98" y="468" type="qcurve" smooth="yes"/>
      <point x="98" y="584" type="line"/>
      <point x="815" y="584" type="line"/>
      <point x="808" y="752"/>
      <point x="647" y="952"/>
      <point x="511" y="952" type="qcurve" smooth="yes"/>
      <point x="418.0" y="952.0" name="inserted"/>
      <point x="263.5" y="898.0"/>
      <point x="202" y="844" type="qcurve"/>
      <point x="129" y="969" type="line"/>
      <point x="199.0" y="1036.0" name="inserted"/>
      <point x="390.0" y="1103.0"/>
    </contour>
    <contour>
      <point x="539" y="132" type="qcurve" smooth="yes"/>
      <point x="637" y="132"/>
      <point x="788" y="296"/>
      <point x="809" y="433" type="qcurve"/>
      <point x="284" y="433" type="line"/>
      <point x="284" y="407" type="line" smooth="yes"/>
      <point x="284" y="282"/>
      <point x="421" y="132"/>
    </contour>
  </outline>
</glyph>
<glyph name="ring" format="2">
  <advance width="685"/>
  <unicode hex="02DA"/>
  <outline>
    <contour>
      <point x="551" y="1408" type="qcurve" smooth="yes"/>
      <point x="551" y="1321"/>
      <point x="427" y="1204"/>
      <point x="336" y="1204" type="qcurve" smooth="yes"/>
      <point x="244" y="1204"/>
      <point x="121" y="1322"/>
      <point x="121.0" y="1408.0" type="qcurve" smooth="yes" name="inserted"/>
      <point x="121" y="1494"/>
      <point x="244" y="1616"/>
      <point x="336.0" y="1616.0" type="qcurve" smooth="yes" name="inserted"/>
      <point x="428" y="1616"/>
      <point x="551" y="1494"/>
    </contour>
    <contour>
      <point x="220" y="1408" type="qcurve" smooth="yes"/>
      <point x="220" y="1361"/>
      <point x="287" y="1293"/>
      <point x="336" y="1293" type="qcurve" smooth="yes"/>
      <point x="384" y="1293"/>
      <point x="452" y="1359"/>
      <point x="452.0" y="1408.0" type="qcurve" smooth="yes" name="inserted"/>
      <point x="452" y="1457"/>
      <point x="385" y="1526"/>
      <point x="336" y="1526" type="qcurve" smooth="yes"/>
      <point x="286" y="1526"/>
      <point x="220" y="1456"/>
    </contour>
  </outline>
</glyph>
<glyph name="hookabovecomb" format="2">
  <unicode hex="0309"/>
  <outline>
    <contour>
      <point x="-652" y="1241" type="line"/>
      <point x="-653" y="1394" type="line"/>
      <point x="-578" y="1399"/>
      <point x="-508" y="1429"/>
      <point x="-508.0" y="1468.0" type="qcurve" smooth="yes" name="inserted"/>
      <point x="-508" y="1507"/>
      <point x="-599" y="1546"/>
      <point x="-674" y="1546" type="qcurve"/>
      <point x="-667" y="1652" type="line"/>
      <point x="-518" y="1652"/>
      <point x="-364" y="1549"/>
      <point x="-364" y="1464" type="qcurve" smooth="yes"/>
      <point x="-364" y="1403"/>
      <point x="-442" y="1323"/>
      <point x="-519" y="1312" type="qcurve"/>
      <point x="-520" y="1241" type="line"/>
    </contour>
  </outline>
</glyph>
<glyph name="uni030F" format="2">
  <unicode hex="030F"/>
  <outline>
    <contour>
      <point x="-510" y="1252" type="line"/>
      <point x="-679" y="1252" type="line"/>
      <point x="-985" y="1518" type="line"/>
      <point x="-760" y="1518" type="line"/>
    </contour>
    <contour>
      <point x="-249" y="1252" type="line"/>
      <point x="-399" y="1252" type="line"/>
      <point x="-645" y="1518" type="line"/>
      <point x="-439" y="1518" type="line"/>
    </contour>
  </outline>
</glyph>
<glyph name="tonos" format="2">
  <advance width="525"/>
  <unicode hex="0384"/>
  <outline>
    <contour>
      <point x="237" y="1599" type="line"/>
      <point x="411" y="1599" type="line"/>
      <point x="295" y="1262" type="line"/>
      <point x="183" y="1262" type="line"/>
    </contour>
  </outline>
</glyph>
<glyph name="gamma" format="2">
  <advance width="1026"/>
  <unicode hex="03B3"/>
  <outline>
    <contour>
      <point x="522" y="276" type="line"/>
      <point x="802" y="1082" type="line"/>
      <point x="991" y="1082" type="line"/>
      <point x="612" y="57" type="line"/>
      <point x="612" y="-416" type="line"/>
      <point x="426" y="-416" type="line"/>
      <point x="426" y="64" type="line"/>
      <point x="46" y="1082" type="line"/>
      <point x="235" y="1082" type="line"/>
    </contour>
  </outline>
</glyph>
<glyph name="epsilon" format="2">
  <advance width="1104"/>
  <unicode hex="03B5"/>
  <outline>
    <contour>
      <point x="286" y="304" type="qcurve" smooth="yes"/>
      <point x="286" y="227"/>
      <point x="433" y="129"/>
      <point x="551" y="129" type="qcurve" smooth="yes"/>
      <point x="664" y="129"/>
      <point x="819" y="239"/>
      <point x="819" y="320" type="qcurve"/>
      <point x="1004" y="320" type="line"/>
      <point x="1004" y="165"/>
      <point x="749" y="-20"/>
      <point x="551" y="-20" type="qcurve" smooth="yes"/>
      <point x="347" y="-20"/>
      <point x="99" y="157"/>
      <point x="99" y="304" type="qcurve" smooth="yes"/>
      <point x="99.0" y="397.0" name="inserted"/>
      <point x="201.5" y="523.0"/>
      <point x="304" y="556" type="qcurve"/>
      <point x="216" y="592"/>
      <point x="118" y="714"/>
      <point x="118" y="787" type="qcurve" smooth="yes"/>
      <point x="118" y="935"/>
      <point x="349" y="1101"/>
      <point x="551" y="1101" type="qcurve" smooth="yes"/>
      <point x="737" y="1101"/>
      <point x="986" y="922"/>
      <point x="986" y="780" type="qcurve"/>
      <point x="801" y="780" type="line"/>
      <point x="801" y="850"/>
      <point x="658" y="951"/>
      <point x="551" y="951" type="qcurve" smooth="yes"/>
      <point x="439" y="951"/>
      <point x="304" y="860"/>
      <point x="304" y="786" type="qcurve" smooth="yes"/>
      <point x="304.0" y="706.0" name="inserted"/>
      <point x="426.0" y="626.0"/>
      <point x="548" y="626" type="qcurve" smooth="yes"/>
      <point x="744" y="626" type="line"/>
      <point x="744" y="478" type="line"/>
      <point x="520" y="478" type="line" smooth="yes"/>
      <point x="403.0" y="475.0" name="inserted"/>
      <point x="286.0" y="388.0"/>
    </contour>
  </outline>
</glyph>
<glyph name="xi" format="2">
  <advance width="1004"/>
  <unicode hex="03BE"/>
  <outline>
    <contour>
      <point x="882" y="1288" type="line"/>
      <point x="816.0" y="1306.0" name="inserted"/>
      <point x="701.5" y="1324.0"/>
      <point x="653" y="1324" type="qcurve" smooth="yes"/>
      <point x="512" y="1324"/>
      <point x="352" y="1221"/>
      <point x="352" y="1136" type="qcurve" smooth="yes"/>
      <point x="352.0" y="1026.5" name="inserted"/>
      <point x="518.5" y="917.0"/>
      <point x="685" y="917" type="qcurve" smooth="yes"/>
      <point x="818" y="917" type="line"/>
      <point x="818" y="765" type="line"/>
      <point x="668" y="765" type="line" smooth="yes"/>
      <point x="486" y="763"/>
      <point x="287" y="607"/>
      <point x="287" y="444" type="qcurve" smooth="yes"/>
      <point x="287" y="332"/>
      <point x="431" y="175"/>
      <point x="566.5" y="142.5" type="qcurve" smooth="yes" name="inserted"/>
      <point x="702" y="110"/>
      <point x="826" y="73"/>
      <point x="858" y="53" type="qcurve" smooth="yes"/>
      <point x="897.5" y="28.5" name="inserted"/>
      <point x="937.0" y="-48.5"/>
      <point x="937" y="-101" type="qcurve" smooth="yes"/>
      <point x="937" y="-165"/>
      <point x="833" y="-332"/>
      <point x="761" y="-393" type="qcurve"/>
      <point x="654" y="-309" type="line"/>
      <point x="711" y="-245" type="line" smooth="yes"/>
      <point x="735.5" y="-215.0" name="inserted"/>
      <point x="760.0" y="-154.0"/>
      <point x="760" y="-123" type="qcurve" smooth="yes"/>
      <point x="760" y="-84"/>
      <point x="684" y="-38"/>
      <point x="569.0" y="-12.5" type="qcurve" smooth="yes" name="inserted"/>
      <point x="454" y="13"/>
      <point x="285" y="79"/>
      <point x="225.5" y="131.5" type="qcurve" smooth="yes" name="inserted"/>
      <point x="166" y="184"/>
      <point x="101" y="337"/>
      <point x="101" y="448" type="qcurve" smooth="yes"/>
      <point x="101" y="593"/>
      <point x="265" y="796"/>
      <point x="415" y="842" type="qcurve"/>
      <point x="297" y="884"/>
      <point x="166" y="1036"/>
      <point x="166" y="1132" type="qcurve" smooth="yes"/>
      <point x="166" y="1291"/>
      <point x="424" y="1476"/>
      <point x="652" y="1476" type="qcurve" smooth="yes"/>
      <point x="724.5" y="1476.0" name="inserted"/>
      <point x="853.0" y="1456.5"/>
      <point x="909" y="1437" type="qcurve"/>
    </contour>
  </outline>
</glyph>
<glyph name="rho" format="2">
  <advance width="1160"/>
  <unicode hex="03C1"/>
  <outline>
    <contour>
      <point x="592" y="1102" type="qcurve" smooth="yes"/>
      <point x="799" y="1102"/>
      <point x="1043" y="820"/>
      <point x="1054" y="566" type="qcurve" smooth="yes"/>
      <point x="1055" y="500" type="line" smooth="yes"/>
      <point x="1055" y="260"/>
      <point x="831" y="-20"/>
      <point x="640" y="-20" type="qcurve" smooth="yes"/>
      <point x="542.5" y="-20.0" name="inserted"/>
      <point x="388.0" y="42.0"/>
      <point x="331" y="104" type="qcurve"/>
      <point x="331" y="-416" type="line"/>
      <point x="145" y="-416" type="line"/>
      <point x="145" y="580" type="line" smooth="yes"/>
      <point x="145" y="738"/>
      <point x="258" y="974"/>
      <point x="360.5" y="1038.0" type="qcurve" smooth="yes" name="inserted"/>
      <point x="411.75" y="1070.0" name="inserted"/>
      <point x="527.5" y="1102.0"/>
    </contour>
    <contour>
      <point x="331" y="278" type="line"/>
      <point x="372.5" y="204.5" name="inserted"/>
      <point x="499.5" y="131.0"/>
      <point x="585" y="131" type="qcurve" smooth="yes"/>
      <point x="720" y="131"/>
      <point x="870" y="326"/>
      <point x="870" y="521" type="qcurve" smooth="yes"/>
      <point x="870" y="726"/>
      <point x="725" y="950"/>
      <point x="592" y="950" type="qcurve" smooth="yes"/>
      <point x="475" y="950"/>
      <point x="331" y="734"/>
      <point x="331" y="565" type="qcurve" smooth="yes"/>
    </contour>
  </outline>
</glyph>
<glyph name="uni040A" format="2">
  <advance width="2212"/>
  <unicode hex="040A"/>
  <outline>
    <contour>
      <point x="370" y="825" type="line"/>
      <point x="1088" y="825" type="line"/>
      <point x="1088" y="1456" type="line"/>
      <point x="1280" y="1456" type="line"/>
      <point x="1280" y="846" type="line"/>
      <point x="1642" y="846" type="line" smooth="yes"/>
      <point x="1868" y="843"/>
      <point x="2125" y="617"/>
      <point x="2125" y="428" type="qcurve" smooth="yes"/>
      <point x="2125" y="237"/>
      <point x="1868" y="4"/>
      <point x="1645" y="0" type="qcurve" smooth="yes"/>
      <point x="1088" y="0" type="line"/>
      <point x="1088" y="668" type="line"/>
      <point x="370" y="668" type="line"/>
      <point x="370" y="0" type="line"/>
      <point x="177" y="0" type="line"/>
      <point x="177" y="1456" type="line"/>
      <point x="370" y="1456" type="line"/>
    </contour>
    <contour>
      <point x="1280" y="689" type="line"/>
      <point x="1280" y="166" type="line"/>
      <point x="1631" y="166" type="line" smooth="yes"/>
      <point x="1773" y="166"/>
      <point x="1933" y="308"/>
      <point x="1933" y="430" type="qcurve" smooth="yes"/>
      <point x="1933" y="546"/>
      <point x="1781" y="686"/>
      <point x="1643" y="689" type="qcurve" smooth="yes"/>
    </contour>
  </outline>
</glyph>
<glyph name="uni040B" format="2">
  <advance width="1666"/>
  <unicode hex="040B"/>
  <outline>
    <contour>
      <point x="1190" y="1298" type="line"/>
      <point x="662" y="1298" type="line"/>
      <point x="662" y="866" type="line"/>
      <point x="742.0" y="886.0" name="inserted"/>
      <point x="909.5" y="906.0"/>
      <point x="997" y="906" type="qcurve" smooth="yes"/>
      <point x="1247" y="906"/>
      <point x="1489" y="688"/>
      <point x="1492" y="467" type="qcurve" smooth="yes"/>
      <point x="1492" y="0" type="line"/>
      <point x="1299" y="0" type="line"/>
      <point x="1299" y="462" type="line" smooth="yes"/>
      <point x="1298" y="614"/>
      <point x="1161" y="748"/>
      <point x="997" y="748" type="qcurve" smooth="yes"/>
      <point x="912.5" y="748.0" name="inserted"/>
      <point x="745.0" y="727.0"/>
      <point x="662" y="706" type="qcurve"/>
      <point x="662" y="0" type="line"/>
      <point x="470" y="0" type="line"/>
      <point x="470" y="1298" type="line"/>
      <point x="62" y="1298" type="line"/>
      <point x="62" y="1456" type="line"/>
      <point x="1190" y="1456" type="line"/>
    </contour>
  </outline>
</glyph>
<glyph name="uni042F" format="2">
  <advance width="1304"/>
  <unicode hex="042F"/>
  <outline>
    <contour>
      <point x="931" y="0" type="line"/>
      <point x="931" y="567" type="line"/>
      <point x="595" y="567" type="line"/>
      <point x="294" y="0" type="line"/>
      <point x="89" y="0" type="line"/>
      <point x="427" y="620" type="line"/>
      <point x="286.0" y="675.5" name="inserted"/>
      <point x="145.0" y="874.0"/>
      <point x="145" y="1017" type="qcurve" smooth="yes"/>
      <point x="145" y="1225"/>
      <point x="418" y="1456"/>
      <point x="661" y="1456" type="qcurve" smooth="yes"/>
      <point x="1124" y="1456" type="line"/>
      <point x="1124" y="0" type="line"/>
    </contour>
    <contour>
      <point x="337" y="1017" type="qcurve" smooth="yes"/>
      <point x="337" y="885"/>
      <point x="502" y="725"/>
      <point x="649" y="724" type="qcurve" smooth="yes"/>
      <point x="931" y="724" type="line"/>
      <point x="931" y="1298" type="line"/>
      <point x="658" y="1298" type="line" smooth="yes"/>
      <point x="502" y="1298"/>
      <point x="337" y="1150"/>
    </contour>
  </outline>
</glyph>
<glyph name="uni0438" format="2">
  <advance width="1182"/>
  <unicode hex="0438"/>
  <outline>
    <contour>
      <point x="840" y="1082" type="line"/>
      <point x="1025" y="1082" type="line"/>
      <point x="1025" y="0" type="line"/>
      <point x="840" y="0" type="line"/>
      <point x="840" y="789" type="line"/>
      <point x="341" y="0" type="line"/>
      <point x="156" y="0" type="line"/>
      <point x="156" y="1082" type="line"/>
      <point x="341" y="1082" type="line"/>
      <point x="341" y="292" type="line"/>
    </contour>
  </outline>
</glyph>
<glyph name="uni043F" format="2">
  <advance width="1182"/>
  <unicode hex="043F"/>
  <outline>
    <contour>
      <point x="1025" y="0" type="line"/>
      <point x="840" y="0" type="line"/>
      <point x="840" y="929" type="line"/>
      <point x="342" y="929" type="line"/>
      <point x="342" y="0" type="line"/>
      <point x="156" y="0" type="line"/>
      <point x="156" y="1082" type="line"/>
      <point x="1025" y="1082" type="line"/>
    </contour>
  </outline>
</glyph>
<glyph name="uni0447" format="2">
  <advance width="1113"/>
  <unicode hex="0447"/>
  <outline>
    <contour>
      <point x="957" y="0" type="line"/>
      <point x="771" y="0" type="line"/>
      <point x="771" y="392" type="line"/>
      <point x="710.0" y="376.0" name="inserted"/>
      <point x="585.0" y="360.0"/>
      <point x="521" y="360" type="qcurve" smooth="yes"/>
      <point x="318" y="360"/>
      <point x="105" y="568"/>
      <point x="103" y="760" type="qcurve" smooth="yes"/>
      <point x="103" y="1083" type="line"/>
      <point x="288" y="1083" type="line"/>
      <point x="288" y="754" type="line" smooth="yes"/>
      <point x="290.5" y="633.0" name="inserted"/>
      <point x="407.0" y="512.0"/>
      <point x="521" y="512" type="qcurve" smooth="yes"/>
      <point x="585.0" y="512.0" name="inserted"/>
      <point x="710.0" y="528.0"/>
      <point x="771" y="544" type="qcurve"/>
      <point x="771" y="1082" type="line"/>
      <point x="957" y="1082" type="line"/>
    </contour>
  </outline>
</glyph>
<glyph name="uni044F" format="2">
  <advance width="1124"/>
  <unicode hex="044F"/>
  <outline>
    <contour>
      <point x="967" y="1082" type="line"/>
      <point x="967" y="0" type="line"/>
      <point x="781" y="0" type="line"/>
      <point x="781" y="421" type="line"/>
      <point x="502" y="421" type="line"/>
      <point x="247" y="0" type="line"/>
      <point x="47" y="0" type="line"/>
      <point x="319" y="449" type="line"/>
      <point x="215" y="487"/>
      <point x="104" y="646"/>
      <point x="104" y="752" type="qcurve" smooth="yes"/>
      <point x="104" y="900"/>
      <point x="326" y="1081"/>
      <point x="512" y="1082" type="qcurve" smooth="yes"/>
    </contour>
    <contour>
      <point x="290" y="750" type="qcurve" smooth="yes"/>
      <point x="290" y="671"/>
      <point x="398" y="574"/>
      <point x="487" y="573" type="qcurve" smooth="yes"/>
      <point x="781" y="573" type="line"/>
      <point x="781" y="932" type="line"/>
      <point x="515" y="932" type="line" smooth="yes"/>
      <point x="412" y="932"/>
      <point x="290" y="831"/>
    </contour>
  </outline>
</glyph>
<glyph name="uni045F" format="2">
  <advance width="1182"/>
  <unicode hex="045F"/>
  <outline>
    <contour>
      <point x="342" y="1082" type="line"/>
      <point x="342" y="151" type="line"/>
      <point x="840" y="151" type="line"/>
      <point x="840" y="1082" type="line"/>
      <point x="1025" y="1082" type="line"/>
      <point x="1025" y="0" type="line"/>
      <point x="686" y="0" type="line"/>
      <point x="686" y="-356" type="line"/>
      <point x="501" y="-356" type="line"/>
      <point x="501" y="0" type="line"/>
      <point x="156" y="0" type="line"/>
      <point x="156" y="1082" type="line"/>
    </contour>
  </outline>
</glyph>
<glyph name="uni0461" format="2">
  <advance width="1579"/>
  <unicode hex="0461"/>
  <outline>
    <contour>
      <point x="1453" y="1082" type="line"/>
      <point x="1453" y="353" type="line" smooth="yes"/>
      <point x="1453" y="177"/>
      <point x="1251" y="-21"/>
      <point x="1077" y="-21" type="qcurve" smooth="yes"/>
      <point x="978.0" y="-21.0" name="inserted"/>
      <point x="834.5" y="53.0"/>
      <point x="790" y="127" type="qcurve"/>
      <point x="742.5" y="53.0" name="inserted"/>
      <point x="592.0" y="-21.0"/>
      <point x="489" y="-21" type="qcurve" smooth="yes"/>
      <point x="322" y="-21"/>
      <point x="130" y="174"/>
      <point x="129" y="350" type="qcurve" smooth="yes"/>
      <point x="129" y="1082" type="line"/>
      <point x="314" y="1082" type="line"/>
      <point x="314" y="349" type="line" smooth="yes"/>
      <point x="315" y="247"/>
      <point x="406" y="130"/>
      <point x="489" y="130" type="qcurve" smooth="yes"/>
      <point x="587" y="130"/>
      <point x="698" y="250"/>
      <point x="698" y="353" type="qcurve" smooth="yes"/>
      <point x="698" y="1082" type="line"/>
      <point x="884" y="1082" type="line"/>
      <point x="884" y="353" type="line" smooth="yes"/>
      <point x="884" y="250"/>
      <point x="985" y="130"/>
      <point x="1077" y="130" type="qcurve" smooth="yes"/>
      <point x="1166" y="130"/>
      <point x="1267" y="247"/>
      <point x="1268" y="349" type="qcurve" smooth="yes"/>
      <point x="1268" y="1082" type="line"/>
    </contour>
  </outline>
</glyph>
<glyph name="uni0466" format="2">
  <advance width="1234"/>
  <unicode hex="0466"/>
  <outline>
    <contour>
      <point x="905" y="438" type="line"/>
      <point x="735" y="438" type="line"/>
      <point x="735" y="0" type="line"/>
      <point x="547" y="0" type="line"/>
      <point x="547" y="438" type="line"/>
      <point x="389" y="438" type="line"/>
      <point x="237" y="0" type="line"/>
      <point x="40" y="0" type="line"/>
      <point x="565" y="1456" type="line"/>
      <point x="736" y="1456" type="line"/>
      <point x="1252" y="0" type="line"/>
      <point x="1055" y="0" type="line"/>
    </contour>
    <contour>
      <point x="446" y="602" type="line"/>
      <point x="849" y="602" type="line"/>
      <point x="650" y="1187" type="line"/>
    </contour>
  </outline>
</glyph>
<glyph name="uni0468" format="2">
  <advance width="1803"/>
  <unicode hex="0468"/>
  <outline>
    <contour>
      <point x="394" y="601" type="line"/>
      <point x="785" y="601" type="line"/>
      <point x="1094" y="1456" type="line"/>
      <point x="1265" y="1456" type="line"/>
      <point x="1781" y="0" type="line"/>
      <point x="1584" y="0" type="line"/>
      <point x="1434" y="438" type="line"/>
      <point x="1264" y="438" type="line"/>
      <point x="1264" y="0" type="line"/>
      <point x="1076" y="0" type="line"/>
      <point x="1076" y="438" type="line"/>
      <point x="918" y="438" type="line"/>
      <point x="766" y="0" type="line"/>
      <point x="569" y="0" type="line"/>
      <point x="727" y="440" type="line"/>
      <point x="394" y="440" type="line"/>
      <point x="394" y="0" type="line"/>
      <point x="201" y="0" type="line"/>
      <point x="201" y="1456" type="line"/>
      <point x="394" y="1456" type="line"/>
    </contour>
    <contour>
      <point x="975" y="602" type="line"/>
      <point x="1378" y="602" type="line"/>
      <point x="1179" y="1187" type="line"/>
    </contour>
  </outline>
</glyph>
<glyph name="uni0469" format="2">
  <advance width="1547"/>
  <unicode hex="0469"/>
  <outline>
    <contour>
      <point x="374" y="449" type="line"/>
      <point x="645" y="449" type="line"/>
      <point x="904" y="1082" type="line"/>
      <point x="1063" y="1082" type="line"/>
      <point x="1508" y="0" type="line"/>
      <point x="1318" y="0" type="line"/>
      <point x="1196" y="297" type="line"/>
      <point x="1079" y="297" type="line"/>
      <point x="1079" y="0" type="line"/>
      <point x="894" y="0" type="line"/>
      <point x="894" y="297" type="line"/>
      <point x="770" y="297" type="line"/>
      <point x="651" y="0" type="line"/>
      <point x="462" y="0" type="line"/>
      <point x="583" y="296" type="line"/>
      <point x="374" y="296" type="line"/>
      <point x="374" y="0" type="line"/>
      <point x="188" y="0" type="line"/>
      <point x="188" y="1082" type="line"/>
      <point x="374" y="1082" type="line"/>
    </contour>
    <contour>
      <point x="831" y="449" type="line"/>
      <point x="1134" y="449" type="line"/>
      <point x="1006" y="764" type="line"/>
      <point x="982" y="853" type="line"/>
      <point x="958" y="764" type="line"/>
    </contour>
  </outline>
</glyph>
<glyph name="uni0475" format="2">
  <advance width="1027"/>
  <unicode hex="0475"/>
  <outline>
    <contour>
      <point x="475" y="316" type="line"/>
      <point x="498" y="216" type="line"/>
      <point x="523" y="316" type="line"/>
      <point x="680" y="859" type="line" smooth="yes"/>
      <point x="718.5" y="980.0" name="inserted"/>
      <point x="843.0" y="1101.0"/>
      <point x="929" y="1101" type="qcurve" smooth="yes"/>
      <point x="964.5" y="1101.0" name="inserted"/>
      <point x="1017.5" y="1089.0"/>
      <point x="1035" y="1077" type="qcurve"/>
      <point x="1014" y="929" type="line"/>
      <point x="1007.5" y="933.0" name="inserted"/>
      <point x="986.5" y="937.0"/>
      <point x="972" y="937" type="qcurve" smooth="yes"/>
      <point x="941" y="937"/>
      <point x="881" y="889"/>
      <point x="865" y="844" type="qcurve" smooth="yes"/>
      <point x="568" y="0" type="line"/>
      <point x="427" y="0" type="line"/>
      <point x="46" y="1082" type="line"/>
      <point x="235" y="1082" type="line"/>
    </contour>
  </outline>
</glyph>
<glyph name="uni049C" format="2">
  <advance width="1289"/>
  <unicode hex="049C"/>
  <outline>
    <contour>
      <point x="1234" y="1456" type="line"/>
      <point x="834" y="766" type="line"/>
      <point x="1279" y="0" type="line"/>
      <point x="1038" y="0" type="line"/>
      <point x="688" y="654" type="line"/>
      <point x="608" y="654" type="line"/>
      <point x="608" y="410" type="line"/>
      <point x="460" y="410" type="line"/>
      <point x="460" y="654" type="line"/>
      <point x="356" y="654" type="line"/>
      <point x="356" y="0" type="line"/>
      <point x="163" y="0" type="line"/>
      <point x="163" y="1456" type="line"/>
      <point x="356" y="1456" type="line"/>
      <point x="356" y="815" type="line"/>
      <point x="460" y="815" type="line"/>
      <point x="460" y="1071" type="line"/>
      <point x="608" y="1071" type="line"/>
      <point x="608" y="815" type="line"/>
      <point x="685" y="815" type="line"/>
      <point x="1008" y="1456" type="line"/>
    </contour>
  </outline>
</glyph>
<glyph name="uni049F" format="2">
  <advance width="1063"/>
  <unicode hex="049F"/>
  <outline>
    <contour>
      <point x="480" y="501" type="line"/>
      <point x="352" y="501" type="line"/>
      <point x="352" y="0" type="line"/>
      <point x="166" y="0" type="line"/>
      <point x="166" y="1217" type="line"/>
      <point x="-65" y="1217" type="line"/>
      <point x="-65" y="1368" type="line"/>
      <point x="166" y="1368" type="line"/>
      <point x="166" y="1536" type="line"/>
      <point x="352" y="1536" type="line"/>
      <point x="352" y="1368" type="line"/>
      <point x="571" y="1368" type="line"/>
      <point x="571" y="1217" type="line"/>
      <point x="352" y="1217" type="line"/>
      <point x="352" y="654" type="line"/>
      <point x="478" y="654" type="line"/>
      <point x="793" y="1082" type="line"/>
      <point x="1012" y="1082" type="line"/>
      <point x="634" y="589" type="line"/>
      <point x="1064" y="0" type="line"/>
      <point x="845" y="0" type="line"/>
    </contour>
  </outline>
</glyph>
<glyph name="uni04A0" format="2">
  <advance width="1676"/>
  <unicode hex="04A0"/>
  <outline>
    <contour>
      <point x="912" y="654" type="line"/>
      <point x="736" y="654" type="line"/>
      <point x="736" y="0" type="line"/>
      <point x="543" y="0" type="line"/>
      <point x="543" y="1304" type="line"/>
      <point x="68" y="1304" type="line"/>
      <point x="68" y="1456" type="line"/>
      <point x="736" y="1456" type="line"/>
      <point x="736" y="814" type="line"/>
      <point x="886" y="814" type="line"/>
      <point x="1394" y="1456" type="line"/>
      <point x="1633" y="1456" type="line"/>
      <point x="1077" y="751" type="line"/>
      <point x="1675" y="0" type="line"/>
      <point x="1439" y="0" type="line"/>
    </contour>
  </outline>
</glyph>
<glyph name="uni04A9" format="2">
  <advance width="1235"/>
  <unicode hex="04A9"/>
  <outline>
    <contour>
      <point x="1180" y="-12" type="line"/>
      <point x="1091.0" y="-12.0" name="inserted"/>
      <point x="932.0" y="16.5"/>
      <point x="862" y="45" type="qcurve"/>
      <point x="803.0" y="12.0" name="inserted"/>
      <point x="672.5" y="-21.0"/>
      <point x="601" y="-21" type="qcurve" smooth="yes"/>
      <point x="461" y="-21"/>
      <point x="236" y="128"/>
      <point x="172.5" y="265.0" type="qcurve" smooth="yes" name="inserted"/>
      <point x="140.75" y="333.5" name="inserted"/>
      <point x="109.0" y="485.5"/>
      <point x="109" y="569" type="qcurve" smooth="yes"/>
      <point x="109" y="627" type="line" smooth="yes"/>
      <point x="109" y="832"/>
      <point x="306" y="1102"/>
      <point x="461" y="1102" type="qcurve"/>
      <point x="461" y="944" type="line"/>
      <point x="388" y="944"/>
      <point x="295" y="771"/>
      <point x="295" y="625" type="qcurve" smooth="yes"/>
      <point x="295" y="569" type="line" smooth="yes"/>
      <point x="295" y="376"/>
      <point x="464" y="136"/>
      <point x="601" y="136" type="qcurve" smooth="yes"/>
      <point x="624.0" y="136.0" name="inserted"/>
      <point x="669.0" y="141.5"/>
      <point x="691" y="147" type="qcurve"/>
      <point x="594.5" y="228.0" name="inserted"/>
      <point x="498.0" y="445.5"/>
      <point x="498" y="582" type="qcurve" smooth="yes"/>
      <point x="498" y="676" type="line" smooth="yes"/>
      <point x="498" y="868"/>
      <point x="671" y="1103"/>
      <point x="814" y="1103" type="qcurve" smooth="yes"/>
      <point x="954" y="1103"/>
      <point x="1132" y="854"/>
      <point x="1132" y="648" type="qcurve" smooth="yes"/>
      <point x="1132" y="550" type="line" smooth="yes"/>
      <point x="1132.0" y="436.5" name="inserted"/>
      <point x="1068.0" y="244.5"/>
      <point x="1004" y="166" type="qcurve"/>
      <point x="1043.5" y="155.5" name="inserted"/>
      <point x="1131.5" y="145.0"/>
      <point x="1180" y="145" type="qcurve"/>
    </contour>
    <contour>
      <point x="683" y="570" type="line" smooth="yes"/>
      <point x="683.0" y="463.0" name="inserted"/>
      <point x="762.5" y="298.0"/>
      <point x="842" y="240" type="qcurve"/>
      <point x="893.0" y="297.5" name="inserted"/>
      <point x="945.5" y="448.0"/>
      <point x="947" y="541" type="qcurve" smooth="yes"/>
      <point x="947" y="658" type="line" smooth="yes"/>
      <point x="947" y="788"/>
      <point x="874" y="946"/>
      <point x="814.0" y="946.0" type="qcurve" smooth="yes" name="inserted"/>
      <point x="754" y="946"/>
      <point x="684" y="805"/>
      <point x="683" y="683" type="qcurve"/>
    </contour>
  </outline>
</glyph>
<glyph name="uni04B1" format="2">
  <advance width="1026"/>
  <unicode hex="04B1"/>
  <outline>
    <contour>
      <point x="842" y="-11" type="line"/>
      <point x="612" y="-11" type="line"/>
      <point x="612" y="-416" type="line"/>
      <point x="426" y="-416" type="line"/>
      <point x="426" y="-11" type="line"/>
      <point x="206" y="-11" type="line"/>
      <point x="206" y="140" type="line"/>
      <point x="397" y="140" type="line"/>
      <point x="46" y="1082" type="line"/>
      <point x="235" y="1082" type="line"/>
      <point x="522" y="276" type="line"/>
      <point x="802" y="1082" type="line"/>
      <point x="991" y="1082" type="line"/>
      <point x="642" y="140" type="line"/>
      <point x="842" y="140" type="line"/>
    </contour>
  </outline>
</glyph>
<glyph name="uni04BC" format="2">
  <advance width="1583"/>
  <unicode hex="04BC"/>
  <outline>
    <contour>
      <point x="1001" y="-22" type="qcurve" smooth="yes"/>
      <point x="715" y="-22"/>
      <point x="382" y="315"/>
      <point x="382" y="612" type="qcurve" smooth="yes"/>
      <point x="382" y="703" type="line"/>
      <point x="229" y="722"/>
      <point x="63" y="919"/>
      <point x="63" y="1081" type="qcurve"/>
      <point x="215" y="1081" type="line"/>
      <point x="215" y="991"/>
      <point x="295" y="866"/>
      <point x="382" y="846" type="qcurve"/>
      <point x="382" y="1026"/>
      <point x="524" y="1313"/>
      <point x="650.5" y="1394.0" type="qcurve" smooth="yes" name="inserted"/>
      <point x="713.75" y="1434.5" name="inserted"/>
      <point x="852.0" y="1475.0"/>
      <point x="927" y="1475" type="qcurve" smooth="yes"/>
      <point x="1185" y="1475"/>
      <point x="1469" y="1126"/>
      <point x="1469" y="804" type="qcurve" smooth="yes"/>
      <point x="1469" y="696" type="line"/>
      <point x="575" y="696" type="line"/>
      <point x="575" y="603" type="line" smooth="yes"/>
      <point x="575" y="383"/>
      <point x="797" y="136"/>
      <point x="1001" y="136" type="qcurve" smooth="yes"/>
      <point x="1090.5" y="136.0" name="inserted"/>
      <point x="1263.0" y="177.5"/>
      <point x="1346" y="219" type="qcurve"/>
      <point x="1393" y="76" type="line"/>
      <point x="1329" y="31"/>
      <point x="1119" y="-22"/>
    </contour>
    <contour>
      <point x="575" y="836" type="qcurve"/>
      <point x="1277" y="836" type="line"/>
      <point x="1277" y="869" type="line" smooth="yes"/>
      <point x="1277" y="1086"/>
      <point x="1098" y="1315"/>
      <point x="927" y="1315" type="qcurve" smooth="yes"/>
      <point x="769" y="1315"/>
      <point x="575" y="1056"/>
    </contour>
  </outline>
</glyph>
<glyph name="uni04FE" format="2">
  <advance width="1284"/>
  <unicode hex="04FE"/>
  <outline>
    <contour>
      <point x="964" y="670" type="line"/>
      <point x="800" y="670" type="line"/>
      <point x="1230" y="0" type="line"/>
      <point x="1002" y="0" type="line"/>
      <point x="644" y="568" type="line"/>
      <point x="284" y="0" type="line"/>
      <point x="57" y="0" type="line"/>
      <point x="488" y="670" type="line"/>
      <point x="328" y="670" type="line"/>
      <point x="328" y="821" type="line"/>
      <point x="473" y="821" type="line"/>
      <point x="68" y="1456" type="line"/>
      <point x="293" y="1456" type="line"/>
      <point x="644" y="898" type="line"/>
      <point x="993" y="1456" type="line"/>
      <point x="1219" y="1456" type="line"/>
      <point x="814" y="821" type="line"/>
      <point x="964" y="821" type="line"/>
    </contour>
  </outline>
</glyph>
<glyph name="uni04FF" format="2">
  <advance width="1015"/>
  <unicode hex="04FF"/>
  <outline>
    <contour>
      <point x="828" y="481" type="line"/>
      <point x="649" y="481" type="line"/>
      <point x="970" y="0" type="line"/>
      <point x="756" y="0" type="line"/>
      <point x="506" y="405" type="line"/>
      <point x="256" y="0" type="line"/>
      <point x="41" y="0" type="line"/>
      <point x="362" y="481" type="line"/>
      <point x="192" y="481" type="line"/>
      <point x="192" y="632" type="line"/>
      <point x="350" y="632" type="line"/>
      <point x="52" y="1082" type="line"/>
      <point x="266" y="1082" type="line"/>
      <point x="503" y="687" type="line"/>
      <point x="743" y="1082" type="line"/>
      <point x="959" y="1082" type="line"/>
      <point x="661" y="632" type="line"/>
      <point x="828" y="632" type="line"/>
    </contour>
  </outline>
</glyph>
<glyph name="uni0503" format="2">
  <advance width="1764"/>
  <unicode hex="0503"/>
  <outline>
    <contour>
      <point x="100" y="521" type="line" smooth="yes"/>
      <point x="100" y="785"/>
      <point x="326" y="1102"/>
      <point x="522" y="1102" type="qcurve" smooth="yes"/>
      <point x="613.5" y="1102.0" name="inserted"/>
      <point x="758.0" y="1036.5"/>
      <point x="811" y="971" type="qcurve"/>
      <point x="811" y="1560" type="line"/>
      <point x="996" y="1560" type="line"/>
      <point x="996" y="345" type="line"/>
      <point x="994" y="250"/>
      <point x="1089" y="130"/>
      <point x="1167" y="130" type="qcurve" smooth="yes"/>
      <point x="1304" y="132"/>
      <point x="1455" y="340"/>
      <point x="1459" y="529" type="qcurve" smooth="yes"/>
      <point x="1461.0" y="622.0" name="inserted"/>
      <point x="1430.5" y="823.0"/>
      <point x="1398" y="931" type="qcurve"/>
      <point x="1577" y="932" type="line"/>
      <point x="1605" y="830"/>
      <point x="1646" y="631"/>
      <point x="1644" y="529" type="qcurve" smooth="yes"/>
      <point x="1642" y="360"/>
      <point x="1521" y="111"/>
      <point x="1412.5" y="45.0" type="qcurve" smooth="yes" name="inserted"/>
      <point x="1358.25" y="12.0" name="inserted"/>
      <point x="1235.5" y="-21.0"/>
      <point x="1167" y="-21" type="qcurve" smooth="yes"/>
      <point x="1046.0" y="-23.0" name="inserted"/>
      <point x="886.0" y="68.0"/>
      <point x="847" y="161" type="qcurve"/>
      <point x="793.0" y="70.0" name="inserted"/>
      <point x="629.5" y="-21.0"/>
      <point x="520" y="-21" type="qcurve" smooth="yes"/>
      <point x="328" y="-21"/>
      <point x="100" y="262"/>
      <point x="100" y="506" type="qcurve" smooth="yes"/>
    </contour>
    <contour>
      <point x="811" y="811" type="line"/>
      <point x="770.0" y="878.0" name="inserted"/>
      <point x="648.5" y="945.0"/>
      <point x="568" y="945" type="qcurve" smooth="yes"/>
      <point x="433" y="945"/>
      <point x="285" y="722"/>
      <point x="285" y="500" type="qcurve" smooth="yes"/>
      <point x="285" y="327"/>
      <point x="430" y="136"/>
      <point x="566" y="136" type="qcurve" smooth="yes"/>
      <point x="649.5" y="136.0" name="inserted"/>
      <point x="774.5" y="209.5"/>
      <point x="816" y="283" type="qcurve"/>
      <point x="811" y="345" type="line"/>
    </contour>
  </outline>
</glyph>
<glyph name="uni0505" format="2">
  <advance width="1323"/>
  <unicode hex="0505"/>
  <outline>
    <contour>
      <point x="743" y="213" type="line"/>
      <point x="742.0" y="169.0" name="inserted"/>
      <point x="788.5" y="125.0"/>
      <point x="836" y="125" type="qcurve" smooth="yes"/>
      <point x="948" y="127"/>
      <point x="1066" y="282"/>
      <point x="1069" y="419" type="qcurve" smooth="yes"/>
      <point x="1071.0" y="495.5" name="inserted"/>
      <point x="1040.0" y="655.0"/>
      <point x="1007" y="738" type="qcurve"/>
      <point x="1187" y="738" type="line"/>
      <point x="1232" y="604"/>
      <point x="1256" y="476"/>
      <point x="1255" y="419" type="qcurve" smooth="yes"/>
      <point x="1251" y="214"/>
      <point x="1020" y="-26"/>
      <point x="836" y="-26" type="qcurve" smooth="yes"/>
      <point x="701" y="-29"/>
      <point x="564" y="83"/>
      <point x="557" y="214" type="qcurve"/>
      <point x="557" y="285" type="line" smooth="yes"/>
      <point x="557.0" y="363.5" name="inserted"/>
      <point x="449.0" y="442.0"/>
      <point x="341" y="442" type="qcurve" smooth="yes"/>
      <point x="136" y="442" type="line"/>
      <point x="134" y="592" type="line"/>
      <point x="326" y="592" type="line" smooth="yes"/>
      <point x="448" y="593"/>
      <point x="558" y="680"/>
      <point x="558" y="754" type="qcurve" smooth="yes"/>
      <point x="558" y="839"/>
      <point x="433" y="932"/>
      <point x="316" y="932" type="qcurve" smooth="yes"/>
      <point x="55" y="932" type="line"/>
      <point x="49" y="1082" type="line"/>
      <point x="329" y="1082" type="line" smooth="yes"/>
      <point x="525" y="1079"/>
      <point x="745" y="912"/>
      <point x="745" y="760" type="qcurve" smooth="yes"/>
      <point x="745.0" y="681.5" name="inserted"/>
      <point x="651.0" y="566.0"/>
      <point x="557" y="529" type="qcurve"/>
      <point x="648.0" y="503.0" name="inserted"/>
      <point x="741.0" y="388.0"/>
      <point x="743" y="299" type="qcurve" smooth="yes"/>
    </contour>
  </outline>
</glyph>
<glyph name="uni0507" format="2">
  <advance width="1031"/>
  <unicode hex="0507"/>
  <outline>
    <contour>
      <point x="194" y="440" type="line"/>
      <point x="193" y="591" type="line"/>
      <point x="412" y="591" type="line" smooth="yes"/>
      <point x="528.5" y="592.0" name="inserted"/>
      <point x="645.0" y="673.5"/>
      <point x="645" y="754" type="qcurve" smooth="yes"/>
      <point x="645.0" y="843.0" name="inserted"/>
      <point x="522.5" y="932.0"/>
      <point x="400" y="932" type="qcurve" smooth="yes"/>
      <point x="121" y="932" type="line"/>
      <point x="121" y="1082" type="line"/>
      <point x="416" y="1082" type="line" smooth="yes"/>
      <point x="526.5" y="1080.5" name="inserted"/>
      <point x="691.0" y="1027.5"/>
      <point x="745" y="976" type="qcurve" smooth="yes"/>
      <point x="788.0" y="934.5" name="inserted"/>
      <point x="831.0" y="827.0"/>
      <point x="831" y="761" type="qcurve" smooth="yes"/>
      <point x="831.0" y="680.5" name="inserted"/>
      <point x="736.0" y="563.5"/>
      <point x="641" y="527" type="qcurve"/>
      <point x="735.5" y="500.5" name="inserted"/>
      <point x="830.5" y="373.0"/>
      <point x="831" y="272" type="qcurve" smooth="yes"/>
      <point x="831" y="196" type="line"/>
      <point x="985" y="196" type="line"/>
      <point x="985" y="48" type="line" smooth="yes"/>
      <point x="985" y="-49"/>
      <point x="887" y="-251"/>
      <point x="810" y="-313" type="qcurve"/>
      <point x="705" y="-241" type="line"/>
      <point x="747.0" y="-183.0" name="inserted"/>
      <point x="795.5" y="-62.5"/>
      <point x="802" y="0" type="qcurve"/>
      <point x="699" y="0" type="line"/>
      <point x="673.5" y="16.5" name="inserted"/>
      <point x="647.0" y="99.5"/>
      <point x="646" y="166" type="qcurve" smooth="yes"/>
      <point x="646" y="260" type="line" smooth="yes"/>
      <point x="646.0" y="350.0" name="inserted"/>
      <point x="537.0" y="440.0"/>
      <point x="428" y="440" type="qcurve" smooth="yes"/>
    </contour>
  </outline>
</glyph>
<glyph name="uni0508" format="2">
  <advance width="1985"/>
  <unicode hex="0508"/>
  <outline>
    <contour>
      <point x="1063" y="1298" type="line"/>
      <point x="577" y="1298" type="line"/>
      <point x="551" y="721" type="line" smooth="yes"/>
      <point x="536" y="431"/>
      <point x="447" y="139"/>
      <point x="361.0" y="70.5" type="qcurve" smooth="yes" name="inserted"/>
      <point x="318.0" y="36.25" name="inserted"/>
      <point x="203.0" y="1.0"/>
      <point x="131" y="0" type="qcurve" smooth="yes"/>
      <point x="68" y="0" type="line"/>
      <point x="68" y="157" type="line"/>
      <point x="108" y="159" type="line" smooth="yes"/>
      <point x="201" y="166"/>
      <point x="301" y="273"/>
      <point x="327.0" y="390.0" type="qcurve" smooth="yes" name="inserted"/>
      <point x="340.0" y="448.5" name="inserted"/>
      <point x="358.5" y="628.5"/>
      <point x="364" y="750" type="qcurve" smooth="yes"/>
      <point x="394" y="1456" type="line"/>
      <point x="1257" y="1456" type="line"/>
      <point x="1257" y="348" type="line" smooth="yes"/>
      <point x="1257" y="252"/>
      <point x="1346" y="136"/>
      <point x="1425" y="136" type="qcurve" smooth="yes"/>
      <point x="1555" y="136"/>
      <point x="1706" y="341"/>
      <point x="1710" y="529" type="qcurve" smooth="yes"/>
      <point x="1711.0" y="625.0" name="inserted"/>
      <point x="1680.5" y="826.0"/>
      <point x="1649" y="931" type="qcurve"/>
      <point x="1835" y="932" type="line"/>
      <point x="1863" y="830"/>
      <point x="1904" y="631"/>
      <point x="1902" y="529" type="qcurve" smooth="yes"/>
      <point x="1899" y="293"/>
      <point x="1666" y="-1"/>
      <point x="1471" y="-19" type="qcurve" smooth="yes"/>
      <point x="1425" y="-21" type="line" smooth="yes"/>
      <point x="1246" y="-21"/>
      <point x="1063" y="165"/>
      <point x="1063" y="345" type="qcurve" smooth="yes"/>
    </contour>
  </outline>
</glyph>
<glyph name="uni050B" format="2">
  <advance width="1697"/>
  <unicode hex="050B"/>
  <outline>
    <contour>
      <point x="835" y="461" type="line"/>
      <point x="329" y="461" type="line"/>
      <point x="329" y="0" type="line"/>
      <point x="144" y="0" type="line"/>
      <point x="144" y="1082" type="line"/>
      <point x="329" y="1082" type="line"/>
      <point x="329" y="612" type="line"/>
      <point x="835" y="612" type="line"/>
      <point x="835" y="1082" type="line"/>
      <point x="1020" y="1082" type="line"/>
      <point x="1020" y="347" type="line" smooth="yes"/>
      <point x="1020" y="247"/>
      <point x="1112" y="130"/>
      <point x="1189" y="130" type="qcurve" smooth="yes"/>
      <point x="1297" y="132"/>
      <point x="1421" y="313"/>
      <point x="1425" y="484" type="qcurve" smooth="yes"/>
      <point x="1427.0" y="570.0" name="inserted"/>
      <point x="1396.5" y="760.5"/>
      <point x="1364" y="865" type="qcurve"/>
      <point x="1542" y="865" type="line"/>
      <point x="1565" y="782" type="line" smooth="yes"/>
      <point x="1589.0" y="693.5" name="inserted"/>
      <point x="1611.5" y="544.5"/>
      <point x="1610" y="484" type="qcurve" smooth="yes"/>
      <point x="1606" y="250"/>
      <point x="1376" y="-21"/>
      <point x="1189" y="-21" type="qcurve" smooth="yes"/>
      <point x="1022" y="-25"/>
      <point x="843" y="158"/>
      <point x="835" y="345" type="qcurve" smooth="yes"/>
    </contour>
  </outline>
</glyph>
<glyph name="uni050C" format="2">
  <advance width="1270"/>
  <unicode hex="050C"/>
  <outline>
    <contour>
      <point x="697" y="-21" type="qcurve" smooth="yes"/>
      <point x="533" y="-21"/>
      <point x="269" y="134"/>
      <point x="194.5" y="274.0" type="qcurve" smooth="yes" name="inserted"/>
      <point x="157.25" y="344.0" name="inserted"/>
      <point x="119.0" y="500.5"/>
      <point x="118" y="587" type="qcurve" smooth="yes"/>
      <point x="118" y="859" type="line" smooth="yes"/>
      <point x="118" y="1034"/>
      <point x="266" y="1320"/>
      <point x="399.0" y="1398.5" type="qcurve" smooth="yes" name="inserted"/>
      <point x="465.5" y="1437.75" name="inserted"/>
      <point x="614.5" y="1477.0"/>
      <point x="697" y="1477" type="qcurve" smooth="yes"/>
      <point x="807.0" y="1477.0" name="inserted"/>
      <point x="984.5" y="1433.0"/>
      <point x="1052" y="1389" type="qcurve"/>
      <point x="993" y="1251" type="line"/>
      <point x="926.0" y="1285.0" name="inserted"/>
      <point x="778.0" y="1319.0"/>
      <point x="697" y="1319" type="qcurve" smooth="yes"/>
      <point x="525" y="1319"/>
      <point x="310" y="1061"/>
      <point x="310" y="851" type="qcurve" smooth="yes"/>
      <point x="310" y="597" type="line" smooth="yes"/>
      <point x="310" y="466"/>
      <point x="408" y="253"/>
      <point x="496.0" y="194.5" type="qcurve" smooth="yes" name="inserted"/>
      <point x="540.0" y="165.25" name="inserted"/>
      <point x="640.5" y="136.0"/>
      <point x="697" y="136" type="qcurve" smooth="yes"/>
      <point x="838" y="138"/>
      <point x="988" y="291"/>
      <point x="991" y="425" type="qcurve" smooth="yes"/>
      <point x="992.5" y="502.0" name="inserted"/>
      <point x="967.5" y="682.5"/>
      <point x="941" y="786" type="qcurve"/>
      <point x="1127" y="786" type="line"/>
      <point x="1165" y="607" type="line" smooth="yes"/>
      <point x="1174.5" y="561.5" name="inserted"/>
      <point x="1183.5" y="470.5"/>
      <point x="1183" y="425" type="qcurve" smooth="yes"/>
      <point x="1181" y="289"/>
      <point x="1058" y="88"/>
      <point x="947.0" y="33.5" type="qcurve" smooth="yes" name="inserted"/>
      <point x="891.5" y="6.25" name="inserted"/>
      <point x="766.5" y="-21.0"/>
    </contour>
  </outline>
</glyph>
<glyph name="quoteleft" format="2">
  <advance width="409"/>
  <unicode hex="2018"/>
  <outline>
    <contour>
      <point x="270" y="1555" type="qcurve"/>
      <point x="376" y="1483" type="line"/>
      <point x="329.5" y="1419.5" name="inserted"/>
      <point x="281.5" y="1282.5"/>
      <point x="280" y="1209" type="qcurve"/>
      <point x="280" y="1073" type="line"/>
      <point x="96" y="1073" type="line"/>
      <point x="96" y="1189" type="line" smooth="yes"/>
      <point x="96" y="1291"/>
      <point x="193" y="1491"/>
    </contour>
  </outline>
</glyph>
<glyph name="quoteright" format="2">
  <advance width="409"/>
  <unicode hex="2019"/>
  <outline>
    <contour>
      <point x="153" y="1046" type="qcurve"/>
      <point x="48" y="1118" type="line"/>
      <point x="94.5" y="1183.0" name="inserted"/>
      <point x="142.5" y="1320.0"/>
      <point x="144" y="1392" type="qcurve" smooth="yes"/>
      <point x="144" y="1536" type="line"/>
      <point x="327" y="1536" type="line"/>
      <point x="327" y="1406" type="line"/>
      <point x="326" y="1306"/>
      <point x="229" y="1107"/>
    </contour>
  </outline>
</glyph>
<glyph name="uni20A6" format="2">
  <advance width="1621"/>
  <unicode hex="20A6"/>
  <outline>
    <contour>
      <point x="1367" y="940" type="line"/>
      <point x="1590" y="940" type="line"/>
      <point x="1590" y="788" type="line"/>
      <point x="1367" y="788" type="line"/>
      <point x="1367" y="640" type="line"/>
      <point x="1590" y="640" type="line"/>
      <point x="1590" y="488" type="line"/>
      <point x="1367" y="488" type="line"/>
      <point x="1367" y="0" type="line"/>
      <point x="1173" y="0" type="line"/>
      <point x="854" y="488" type="line"/>
      <point x="440" y="488" type="line"/>
      <point x="440" y="0" type="line"/>
      <point x="248" y="0" type="line"/>
      <point x="248" y="488" type="line"/>
      <point x="31" y="488" type="line"/>
      <point x="31" y="640" type="line"/>
      <point x="248" y="640" type="line"/>
      <point x="248" y="788" type="line"/>
      <point x="31" y="788" type="line"/>
      <point x="31" y="940" type="line"/>
      <point x="248" y="940" type="line"/>
      <point x="248" y="1456" type="line"/>
      <point x="440" y="1456" type="line"/>
      <point x="777" y="940" type="line"/>
      <point x="1176" y="940" type="line"/>
      <point x="1176" y="1456" type="line"/>
      <point x="1367" y="1456" type="line"/>
    </contour>
    <contour>
      <point x="440" y="640" type="line"/>
      <point x="755" y="640" type="line"/>
      <point x="658" y="788" type="line"/>
      <point x="440" y="788" type="line"/>
    </contour>
    <contour>
      <point x="972" y="640" type="line"/>
      <point x="1176" y="640" type="line"/>
      <point x="1176" y="788" type="line"/>
      <point x="876" y="788" type="line"/>
    </contour>
    <contour>
      <point x="440" y="940" type="line"/>
      <point x="559" y="940" type="line"/>
      <point x="440" y="1122" type="line"/>
    </contour>
    <contour>
      <point x="1176" y="329" type="line"/>
      <point x="1176" y="488" type="line"/>
      <point x="1072" y="488" type="line"/>
    </contour>
  </outline>
</glyph>
<glyph name="peseta" format="2">
  <advance width="1680"/>
  <unicode hex="20A7"/>
  <outline>
    <contour>
      <point x="1534" y="939" type="line"/>
      <point x="1332" y="939" type="line"/>
      <point x="1332" y="268" type="line" smooth="yes"/>
      <point x="1332" y="203"/>
      <point x="1386" y="138"/>
      <point x="1451" y="138" type="qcurve" smooth="yes"/>
      <point x="1468.5" y="138.0" name="inserted"/>
      <point x="1512.0" y="144.0"/>
      <point x="1538" y="150" type="qcurve"/>
      <point x="1539" y="0" type="line"/>
      <point x="1502.5" y="-10.0" name="inserted"/>
      <point x="1431.0" y="-20.0"/>
      <point x="1396" y="-20" type="qcurve" smooth="yes"/>
      <point x="1272" y="-20"/>
      <point x="1146" y="130"/>
      <point x="1146" y="268" type="qcurve" smooth="yes"/>
      <point x="1146" y="939" type="line"/>
      <point x="1003" y="939" type="line"/>
      <point x="983" y="756"/>
      <point x="752" y="567"/>
      <point x="553" y="565" type="qcurve" smooth="yes"/>
      <point x="352" y="565" type="line"/>
      <point x="352" y="0" type="line"/>
      <point x="167" y="0" type="line"/>
      <point x="167" y="1456" type="line"/>
      <point x="544" y="1456" type="line" smooth="yes"/>
      <point x="746" y="1456"/>
      <point x="983" y="1264"/>
      <point x="1003" y="1082" type="qcurve"/>
      <point x="1146" y="1082" type="line"/>
      <point x="1146" y="1344" type="line"/>
      <point x="1332" y="1344" type="line"/>
      <point x="1332" y="1082" type="line"/>
      <point x="1534" y="1082" type="line"/>
    </contour>
    <contour>
      <point x="352" y="716" type="line"/>
      <point x="544" y="716" type="line" smooth="yes"/>
      <point x="683" y="716"/>
      <point x="822" y="857"/>
      <point x="822" y="1008" type="qcurve" smooth="yes"/>
      <point x="822" y="1160"/>
      <point x="687" y="1302"/>
      <point x="555" y="1304" type="qcurve" smooth="yes"/>
      <point x="352" y="1304" type="line"/>
    </contour>
  </outline>
</glyph>
<glyph name="uni20AA" format="2">
  <advance width="1579"/>
  <unicode hex="20AA"/>
  <outline>
    <contour>
      <point x="698" y="1082" type="line" smooth="yes"/>
      <point x="873" y="1082"/>
      <point x="1041" y="889"/>
      <point x="1045" y="698" type="qcurve" smooth="yes"/>
      <point x="1045" y="349" type="line"/>
      <point x="860" y="349" type="line"/>
      <point x="860" y="681" type="line" smooth="yes"/>
      <point x="860" y="808"/>
      <point x="759" y="928"/>
      <point x="648" y="929" type="qcurve" smooth="yes"/>
      <point x="325" y="929" type="line"/>
      <point x="325" y="0" type="line"/>
      <point x="140" y="0" type="line"/>
      <point x="140" y="1082" type="line"/>
    </contour>
    <contour>
      <point x="533" y="0" type="line"/>
      <point x="533" y="733" type="line"/>
      <point x="718" y="733" type="line"/>
      <point x="718" y="152" type="line"/>
      <point x="1036" y="152" type="line" smooth="yes"/>
      <point x="1149" y="152"/>
      <point x="1252" y="269"/>
      <point x="1253" y="395" type="qcurve" smooth="yes"/>
      <point x="1253" y="1082" type="line"/>
      <point x="1438" y="1082" type="line"/>
      <point x="1438" y="392" type="line"/>
      <point x="1436" y="198"/>
      <point x="1271" y="2"/>
      <point x="1098" y="0" type="qcurve" smooth="yes"/>
    </contour>
  </outline>
</glyph>
<glyph name="uni20B1" format="2">
  <advance width="1498"/>
  <unicode hex="20B1"/>
  <outline>
    <contour>
      <point x="421" y="570" type="line"/>
      <point x="421" y="0" type="line"/>
      <point x="229" y="0" type="line"/>
      <point x="229" y="816" type="line"/>
      <point x="31" y="816" type="line"/>
      <point x="31" y="967" type="line"/>
      <point x="229" y="967" type="line"/>
      <point x="229" y="1061" type="line"/>
      <point x="31" y="1061" type="line"/>
      <point x="31" y="1212" type="line"/>
      <point x="229" y="1212" type="line"/>
      <point x="229" y="1456" type="line"/>
      <point x="766" y="1456" type="line" smooth="yes"/>
      <point x="943" y="1456"/>
      <point x="1178" y="1324"/>
      <point x="1232" y="1212" type="qcurve"/>
      <point x="1468" y="1212" type="line"/>
      <point x="1468" y="1061" type="line"/>
      <point x="1273" y="1061" type="line"/>
      <point x="1276" y="1011" type="line"/>
      <point x="1274" y="967" type="line"/>
      <point x="1468" y="967" type="line"/>
      <point x="1468" y="816" type="line"/>
      <point x="1239" y="816" type="line"/>
      <point x="1185.5" y="693.0" name="inserted"/>
      <point x="946.0" y="570.0"/>
      <point x="760" y="570" type="qcurve" smooth="yes"/>
    </contour>
    <contour>
      <point x="1084" y="1009" type="line"/>
      <point x="1080" y="1061" type="line"/>
      <point x="421" y="1061" type="line"/>
      <point x="421" y="967" type="line"/>
      <point x="1082" y="967" type="line"/>
    </contour>
    <contour>
      <point x="1019" y="816" type="qcurve"/>
      <point x="421" y="816" type="line"/>
      <point x="421" y="727" type="line"/>
      <point x="766" y="727" type="line" smooth="yes"/>
      <point x="852.0" y="727.0" name="inserted"/>
      <point x="978.5" y="771.5"/>
    </contour>
    <contour>
      <point x="421" y="1212" type="line"/>
      <point x="1007" y="1212" type="line"/>
      <point x="965.0" y="1255.0" name="inserted"/>
      <point x="844.0" y="1298.0"/>
      <point x="765" y="1298" type="qcurve" smooth="yes"/>
      <point x="421" y="1298" type="line"/>
    </contour>
  </outline>
</glyph>
<glyph name="uni20BC" format="2">
  <advance width="1352"/>
  <unicode hex="20BC"/>
  <outline>
    <contour>
      <point x="767" y="881" type="line"/>
      <point x="998" y="848"/>
      <point x="1259" y="477"/>
      <point x="1259" y="183" type="qcurve" smooth="yes"/>
      <point x="1259" y="0" type="line"/>
      <point x="1074" y="0" type="line"/>
      <point x="1074" y="200" type="line" smooth="yes"/>
      <point x="1072" y="423"/>
      <point x="914" y="684"/>
      <point x="767" y="716" type="qcurve"/>
      <point x="767" y="0" type="line"/>
      <point x="582" y="0" type="line"/>
      <point x="582" y="714" type="line"/>
      <point x="439" y="681"/>
      <point x="280" y="414"/>
      <point x="278" y="198" type="qcurve"/>
      <point x="278" y="0" type="line"/>
      <point x="93" y="0" type="line"/>
      <point x="93" y="197" type="line" smooth="yes"/>
      <point x="96" y="482"/>
      <point x="359" y="847"/>
      <point x="582" y="881" type="qcurve"/>
      <point x="582" y="1082" type="line"/>
      <point x="767" y="1082" type="line"/>
    </contour>
  </outline>
</glyph>
<glyph name="uni2105" format="2">
  <advance width="1511"/>
  <unicode hex="2105"/>
  <outline>
    <contour>
      <point x="680" y="1054" type="line"/>
      <point x="680" y="944"/>
      <point x="528" y="800"/>
      <point x="405" y="800" type="qcurve" smooth="yes"/>
      <point x="283" y="800"/>
      <point x="122" y="968"/>
      <point x="122" y="1105" type="qcurve" smooth="yes"/>
      <point x="122" y="1176" type="line" smooth="yes"/>
      <point x="122" y="1306"/>
      <point x="280" y="1477"/>
      <point x="403" y="1477" type="qcurve" smooth="yes"/>
      <point x="524" y="1477"/>
      <point x="680" y="1332"/>
      <point x="680" y="1221" type="qcurve"/>
      <point x="542" y="1221" type="line"/>
      <point x="542" y="1279"/>
      <point x="469" y="1356"/>
      <point x="403" y="1356" type="qcurve" smooth="yes"/>
      <point x="338" y="1356"/>
      <point x="261" y="1254"/>
      <point x="261" y="1172" type="qcurve" smooth="yes"/>
      <point x="261" y="1099" type="line" smooth="yes"/>
      <point x="261" y="1021"/>
      <point x="340" y="920"/>
      <point x="405" y="920" type="qcurve" smooth="yes"/>
      <point x="466" y="920"/>
      <point x="542" y="996"/>
      <point x="542" y="1054" type="qcurve"/>
    </contour>
    <contour>
      <point x="814" y="357" type="line" smooth="yes"/>
      <point x="814" y="488"/>
      <point x="981" y="657"/>
      <point x="1112.0" y="657.0" type="qcurve" smooth="yes" name="inserted"/>
      <point x="1243" y="657"/>
      <point x="1411" y="489"/>
      <point x="1411" y="350" type="qcurve" smooth="yes"/>
      <point x="1411" y="279" type="line" smooth="yes"/>
      <point x="1411" y="148"/>
      <point x="1244" y="-21"/>
      <point x="1114.0" y="-21.0" type="qcurve" smooth="yes" name="inserted"/>
      <point x="984" y="-21"/>
      <point x="814" y="146"/>
      <point x="814" y="285" type="qcurve" smooth="yes"/>
    </contour>
    <contour>
      <point x="952" y="279" type="line" smooth="yes"/>
      <point x="952" y="200"/>
      <point x="1040" y="99"/>
      <point x="1114" y="99" type="qcurve" smooth="yes"/>
      <point x="1186" y="99"/>
      <point x="1272" y="198"/>
      <point x="1272" y="283" type="qcurve" smooth="yes"/>
      <point x="1272" y="357" type="line" smooth="yes"/>
      <point x="1272" y="436"/>
      <point x="1185" y="536"/>
      <point x="1112" y="536" type="qcurve" smooth="yes"/>
      <point x="1041" y="536"/>
      <point x="952" y="437"/>
      <point x="952" y="353" type="qcurve" smooth="yes"/>
    </contour>
    <contour>
      <point x="446" y="110" type="line"/>
      <point x="341" y="176" type="line"/>
      <point x="1052" y="1314" type="line"/>
      <point x="1157" y="1248" type="line"/>
    </contour>
  </outline>
</glyph>
<glyph name="uni2113" format="2">
  <advance width="974"/>
  <unicode hex="2113"/>
  <outline>
    <contour>
      <point x="716" y="-21" type="line"/>
      <point x="522" y="-21"/>
      <point x="312" y="213"/>
      <point x="312" y="448" type="qcurve"/>
      <point x="263.0" y="434.0" name="inserted"/>
      <point x="159.0" y="420.0"/>
      <point x="104" y="420" type="qcurve"/>
      <point x="104" y="596" type="line"/>
      <point x="160.5" y="596.0" name="inserted"/>
      <point x="264.5" y="613.5"/>
      <point x="312" y="631" type="qcurve"/>
      <point x="312" y="1179" type="line" smooth="yes"/>
      <point x="313" y="1357"/>
      <point x="470" y="1555"/>
      <point x="603" y="1555" type="qcurve" smooth="yes"/>
      <point x="723" y="1555"/>
      <point x="874" y="1382"/>
      <point x="874" y="1235" type="qcurve" smooth="yes"/>
      <point x="874" y="1198" type="line" smooth="yes"/>
      <point x="874" y="1005"/>
      <point x="668" y="636"/>
      <point x="497" y="529" type="qcurve"/>
      <point x="497" y="431" type="line" smooth="yes"/>
      <point x="497" y="277"/>
      <point x="604" y="136"/>
      <point x="716" y="136" type="qcurve"/>
    </contour>
    <contour>
      <point x="497" y="747" type="line"/>
      <point x="586" y="832"/>
      <point x="689" y="1077"/>
      <point x="689" y="1200" type="qcurve" smooth="yes"/>
      <point x="689" y="1239" type="line" smooth="yes"/>
      <point x="689" y="1321"/>
      <point x="641" y="1397"/>
      <point x="603" y="1397" type="qcurve" smooth="yes"/>
      <point x="551.5" y="1397.0" name="inserted"/>
      <point x="498.5" y="1292.5"/>
      <point x="497" y="1188" type="qcurve"/>
    </contour>
  </outline>
</glyph>
<glyph name="uni2116" format="2">
  <advance width="2106"/>
  <unicode hex="2116"/>
  <outline>
    <contour>
      <point x="1956" y="412" type="line"/>
      <point x="1341" y="412" type="line"/>
      <point x="1341" y="554" type="line"/>
      <point x="1956" y="554" type="line"/>
    </contour>
    <contour>
      <point x="1305" y="1127" type="line" smooth="yes"/>
      <point x="1305" y="1282"/>
      <point x="1491" y="1472"/>
      <point x="1647.0" y="1472.0" type="qcurve" smooth="yes" name="inserted"/>
      <point x="1803" y="1472"/>
      <point x="1990" y="1285"/>
      <point x="1990" y="1122" type="qcurve" smooth="yes"/>
      <point x="1990" y="1029" type="line" smooth="yes"/>
      <point x="1990" y="872"/>
      <point x="1805" y="686"/>
      <point x="1649" y="686" type="qcurve" smooth="yes"/>
      <point x="1491" y="686"/>
      <point x="1305" y="873"/>
      <point x="1305" y="1034" type="qcurve" smooth="yes"/>
    </contour>
    <contour>
      <point x="1468" y="1029" type="line" smooth="yes"/>
      <point x="1468" y="931"/>
      <point x="1563" y="824"/>
      <point x="1649" y="824" type="qcurve" smooth="yes"/>
      <point x="1733" y="824"/>
      <point x="1826" y="930"/>
      <point x="1827" y="1026" type="qcurve" smooth="yes"/>
      <point x="1827" y="1127" type="line" smooth="yes"/>
      <point x="1827" y="1224"/>
      <point x="1732" y="1331"/>
      <point x="1647" y="1331" type="qcurve" smooth="yes"/>
      <point x="1563" y="1331"/>
      <point x="1468" y="1224"/>
      <point x="1468" y="1125" type="qcurve" smooth="yes"/>
    </contour>
    <contour>
      <point x="1144" y="0" type="line"/>
      <point x="940" y="0" type="line"/>
      <point x="347" y="1134" type="line"/>
      <point x="347" y="0" type="line"/>
      <point x="162" y="0" type="line"/>
      <point x="162" y="1456" type="line"/>
      <point x="365" y="1456" type="line"/>
      <point x="961" y="319" type="line"/>
      <point x="961" y="1456" type="line"/>
      <point x="1144" y="1456" type="line"/>
    </contour>
  </outline>
</glyph>
<glyph name="estimated" format="2">
  <advance width="1303"/>
  <unicode hex="212E"/>
  <outline>
    <contour>
      <point x="1046" y="94" type="line"/>
      <point x="954.5" y="37.0" name="inserted"/>
      <point x="769.5" y="-20.0"/>
      <point x="676" y="-20" type="qcurve" smooth="yes"/>
      <point x="531" y="-20"/>
      <point x="287" y="137"/>
      <point x="219.5" y="265.5" type="qcurve" smooth="yes" name="inserted"/>
      <point x="185.75" y="329.75" name="inserted"/>
      <point x="152.0" y="467.5"/>
      <point x="152" y="541" type="qcurve" smooth="yes"/>
      <point x="152" y="684"/>
      <point x="296" y="943"/>
      <point x="420.0" y="1022.5" type="qcurve" smooth="yes" name="inserted"/>
      <point x="482.0" y="1062.25" name="inserted"/>
      <point x="610.0" y="1102.0"/>
      <point x="676" y="1102" type="qcurve" smooth="yes"/>
      <point x="809" y="1102"/>
      <point x="1036" y="963"/>
      <point x="1102.0" y="841.5" type="qcurve" smooth="yes" name="inserted"/>
      <point x="1135.0" y="780.75" name="inserted"/>
      <point x="1169.5" y="648.0"/>
      <point x="1171" y="576" type="qcurve" smooth="yes"/>
      <point x="1171" y="514" type="line"/>
      <point x="403" y="514" type="line"/>
      <point x="403" y="186" type="line"/>
      <point x="462.5" y="131.0" name="inserted"/>
      <point x="599.0" y="76.0"/>
      <point x="676" y="76" type="qcurve" smooth="yes"/>
      <point x="774.0" y="76.0" name="inserted"/>
      <point x="958.0" y="137.0"/>
      <point x="1044" y="198" type="qcurve"/>
    </contour>
    <contour>
      <point x="676" y="1008" type="qcurve" smooth="yes"/>
      <point x="600.5" y="1008.0" name="inserted"/>
      <point x="464.0" y="947.0"/>
      <point x="403" y="886" type="qcurve"/>
      <point x="403" y="609" type="line"/>
      <point x="943" y="609" type="line"/>
      <point x="943" y="895" type="line"/>
      <point x="885.5" y="951.5" name="inserted"/>
      <point x="752.0" y="1008.0"/>
    </contour>
  </outline>
</glyph>
<glyph name="partialdiff" format="2">
  <advance width="1167"/>
  <unicode hex="2202"/>
  <outline>
    <contour>
      <point x="572" y="1022" type="qcurve" smooth="yes"/>
      <point x="665" y="1022"/>
      <point x="831" y="945"/>
      <point x="889" y="877" type="qcurve"/>
      <point x="875" y="1017"/>
      <point x="770" y="1234"/>
      <point x="687.0" y="1294.5" type="qcurve" smooth="yes" name="inserted"/>
      <point x="645.5" y="1324.75" name="inserted"/>
      <point x="556.0" y="1355.0"/>
      <point x="508" y="1355" type="qcurve" smooth="yes"/>
      <point x="443.5" y="1355.0" name="inserted"/>
      <point x="301.5" y="1325.5"/>
      <point x="224" y="1296" type="qcurve"/>
      <point x="208" y="1447" type="line"/>
      <point x="257" y="1468" type="line" smooth="yes"/>
      <point x="315.0" y="1492.0" name="inserted"/>
      <point x="448.5" y="1516.0"/>
      <point x="524" y="1516" type="qcurve" smooth="yes"/>
      <point x="787" y="1516"/>
      <point x="1074" y="1082"/>
      <point x="1074" y="680" type="qcurve" smooth="yes"/>
      <point x="1074" y="630" type="line" smooth="yes"/>
      <point x="1074" y="442"/>
      <point x="954" y="144"/>
      <point x="843.0" y="61.5" type="qcurve" smooth="yes" name="inserted"/>
      <point x="787.5" y="20.25" name="inserted"/>
      <point x="660.0" y="-21.0"/>
      <point x="588" y="-21" type="qcurve" smooth="yes"/>
      <point x="370" y="-21"/>
      <point x="106" y="270"/>
      <point x="106" y="516" type="qcurve" smooth="yes"/>
      <point x="106" y="530" type="line" smooth="yes"/>
      <point x="106" y="750"/>
      <point x="362" y="1022"/>
    </contour>
    <contour>
      <point x="590" y="870" type="qcurve" smooth="yes"/>
      <point x="450" y="870"/>
      <point x="291" y="683"/>
      <point x="291" y="523" type="qcurve" smooth="yes"/>
      <point x="291" y="507" type="line" smooth="yes"/>
      <point x="291" y="337"/>
      <point x="450" y="130"/>
      <point x="588" y="130" type="qcurve" smooth="yes"/>
      <point x="730" y="130"/>
      <point x="889" y="379"/>
      <point x="889" y="598" type="qcurve" smooth="yes"/>
      <point x="889" y="659" type="line"/>
      <point x="885" y="674" type="line" smooth="yes"/>
      <point x="857" y="764"/>
      <point x="697" y="870"/>
    </contour>
  </outline>
</glyph>
<glyph name="uni0394" format="2">
  <advance width="1444"/>
  <unicode hex="2206"/>
  <unicode hex="0394"/>
  <outline>
    <contour>
      <point x="646" y="1456" type="line"/>
      <point x="816" y="1456" type="line"/>
      <point x="1395" y="0" type="line"/>
      <point x="31" y="0" type="line"/>
    </contour>
    <contour>
      <point x="293" y="157" type="line"/>
      <point x="1137" y="157" type="line"/>
      <point x="728" y="1221" type="line"/>
    </contour>
  </outline>
</glyph>
<glyph name="integral" format="2">
  <advance width="524"/>
  <unicode hex="222B"/>
  <outline>
    <contour>
      <point x="357" y="-107" type="line" smooth="yes"/>
      <point x="357" y="-269"/>
      <point x="193" y="-437"/>
      <point x="35" y="-437" type="qcurve" smooth="yes"/>
      <point x="6.5" y="-437.0" name="inserted"/>
      <point x="-51.0" y="-427.0"/>
      <point x="-80" y="-417" type="qcurve"/>
      <point x="-62" y="-272" type="line"/>
      <point x="-39.0" y="-278.5" name="inserted"/>
      <point x="0.5" y="-285.0"/>
      <point x="17" y="-285" type="qcurve" smooth="yes"/>
      <point x="94.5" y="-285.0" name="inserted"/>
      <point x="172.0" y="-196.5"/>
      <point x="172" y="-108" type="qcurve" smooth="yes"/>
      <point x="172" y="1197" type="line" smooth="yes"/>
      <point x="172" y="1367"/>
      <point x="349" y="1557"/>
      <point x="510" y="1557" type="qcurve" smooth="yes"/>
      <point x="540.0" y="1557.0" name="inserted"/>
      <point x="612.0" y="1546.5"/>
      <point x="654" y="1536" type="qcurve"/>
      <point x="630" y="1394" type="line"/>
      <point x="611.5" y="1399.5" name="inserted"/>
      <point x="566.0" y="1405.0"/>
      <point x="539" y="1405" type="qcurve" smooth="yes"/>
      <point x="448.0" y="1405.0" name="inserted"/>
      <point x="357.0" y="1295.5"/>
      <point x="357" y="1186" type="qcurve" smooth="yes"/>
    </contour>
  </outline>
</glyph>
<glyph name="uniEE02" format="2">
  <advance width="655"/>
  <unicode hex="EE02"/>
  <outline>
    <contour>
      <point x="251" y="633" type="line"/>
      <point x="110" y="633" type="line"/>
      <point x="110" y="1082" type="line"/>
      <point x="251" y="1082" type="line"/>
    </contour>
    <contour>
      <point x="563" y="633" type="line"/>
      <point x="422" y="633" type="line"/>
      <point x="422" y="1082" type="line"/>
      <point x="563" y="1082" type="line"/>
    </contour>
  </outline>
</glyph>
<glyph name="glyph00456" format="2">
  <advance width="1039"/>
  <outline>
    <contour>
      <point x="735" y="492" type="qcurve"/>
      <point x="684.5" y="437.0" name="inserted"/>
      <point x="548.5" y="382.0"/>
      <point x="463" y="382" type="qcurve" smooth="yes"/>
      <point x="289" y="382"/>
      <point x="85" y="597"/>
      <point x="85" y="773" type="qcurve" smooth="yes"/>
      <point x="85" y="953"/>
      <point x="314" y="1181"/>
      <point x="500" y="1181" type="qcurve" smooth="yes"/>
      <point x="698" y="1181"/>
      <point x="922" y="927"/>
      <point x="922" y="701" type="qcurve" smooth="yes"/>
      <point x="922" y="638" type="line" smooth="yes"/>
      <point x="922" y="319"/>
      <point x="614" y="-1"/>
      <point x="314" y="-6" type="qcurve" smooth="yes"/>
      <point x="273" y="-6" type="line"/>
      <point x="273" y="146" type="line"/>
      <point x="308" y="146" type="line" smooth="yes"/>
      <point x="510.0" y="149.5" name="inserted"/>
      <point x="723.5" y="322.5"/>
    </contour>
    <contour>
      <point x="497" y="529" type="qcurve" smooth="yes"/>
      <point x="576" y="529"/>
      <point x="707" y="608"/>
      <point x="737" y="672" type="qcurve"/>
      <point x="737" y="738" type="line" smooth="yes"/>
      <point x="737" y="870"/>
      <point x="605" y="1028"/>
      <point x="500" y="1028" type="qcurve" smooth="yes"/>
      <point x="396" y="1028"/>
      <point x="269" y="885"/>
      <point x="269" y="777" type="qcurve" smooth="yes"/>
      <point x="269" y="668"/>
      <point x="393" y="529"/>
    </contour>
  </outline>
</glyph>
<glyph name="glyph00460" format="2">
  <advance width="1039"/>
  <outline>
    <contour>
      <point x="164" y="579" type="line"/>
      <point x="233" y="1165" type="line"/>
      <point x="913" y="1165" type="line"/>
      <point x="913" y="1003" type="line"/>
      <point x="389" y="1003" type="line"/>
      <point x="352" y="714" type="line"/>
      <point x="401.5" y="738.0" name="inserted"/>
      <point x="508.5" y="762.0"/>
      <point x="566" y="762" type="qcurve" smooth="yes"/>
      <point x="750" y="762"/>
      <point x="965" y="552"/>
      <point x="965" y="372" type="qcurve" smooth="yes"/>
      <point x="965" y="194"/>
      <point x="742" y="-16"/>
      <point x="546" y="-16" type="qcurve" smooth="yes"/>
      <point x="375" y="-16"/>
      <point x="141" y="161"/>
      <point x="128" y="312" type="qcurve"/>
      <point x="306" y="312" type="line"/>
      <point x="320" y="221"/>
      <point x="448" y="135"/>
      <point x="546" y="135" type="qcurve" smooth="yes"/>
      <point x="658" y="135"/>
      <point x="779" y="265"/>
      <point x="779" y="378" type="qcurve" smooth="yes"/>
      <point x="779" y="484"/>
      <point x="639" y="611"/>
      <point x="524" y="611" type="qcurve" smooth="yes"/>
      <point x="471.5" y="611.0" name="inserted"/>
      <point x="386.0" y="590.0"/>
      <point x="353" y="569" type="qcurve" smooth="yes"/>
      <point x="312" y="542" type="line"/>
    </contour>
  </outline>
</glyph>
<glyph name="glyph00462" format="2">
  <advance width="1039"/>
  <outline>
    <contour>
      <point x="352" y="667" type="line"/>
      <point x="474" y="667" type="line" smooth="yes"/>
      <point x="592" y="667"/>
      <point x="721" y="766"/>
      <point x="721" y="850" type="qcurve" smooth="yes"/>
      <point x="721" y="933"/>
      <point x="613" y="1029"/>
      <point x="501" y="1029" type="qcurve" smooth="yes"/>
      <point x="403" y="1029"/>
      <point x="276" y="938"/>
      <point x="276" y="861" type="qcurve"/>
      <point x="91" y="861" type="line"/>
      <point x="91" y="1001"/>
      <point x="321" y="1181"/>
      <point x="500" y="1181" type="qcurve" smooth="yes"/>
      <point x="688" y="1181"/>
      <point x="906" y="1006"/>
      <point x="906" y="850" type="qcurve" smooth="yes"/>
      <point x="906" y="771"/>
      <point x="805" y="634"/>
      <point x="714" y="597" type="qcurve"/>
      <point x="820.5" y="565.0" name="inserted"/>
      <point x="927.0" y="428.5"/>
      <point x="927" y="324" type="qcurve" smooth="yes"/>
      <point x="927" y="170"/>
      <point x="694" y="-16"/>
      <point x="501" y="-16" type="qcurve" smooth="yes"/>
      <point x="312" y="-16"/>
      <point x="78" y="163"/>
      <point x="78" y="313" type="qcurve"/>
      <point x="263" y="313" type="line"/>
      <point x="263" y="234"/>
      <point x="394" y="135"/>
      <point x="502" y="135" type="qcurve" smooth="yes"/>
      <point x="614" y="135"/>
      <point x="741" y="233"/>
      <point x="741" y="324" type="qcurve" smooth="yes"/>
      <point x="741.0" y="421.5" name="inserted"/>
      <point x="603.0" y="519.0"/>
      <point x="465" y="519" type="qcurve" smooth="yes"/>
      <point x="352" y="519" type="line"/>
    </contour>
  </outline>
</glyph>
<glyph name="glyph00463" format="2">
  <advance width="1039"/>
  <outline>
    <contour>
      <point x="970" y="0" type="line"/>
      <point x="105" y="0" type="line"/>
      <point x="105" y="131" type="line"/>
      <point x="532" y="544" type="line" smooth="yes"/>
      <point x="635" y="638"/>
      <point x="728" y="777"/>
      <point x="728" y="842" type="qcurve" smooth="yes"/>
      <point x="728" y="924"/>
      <point x="612" y="1029"/>
      <point x="518" y="1029" type="qcurve" smooth="yes"/>
      <point x="397" y="1029"/>
      <point x="264" y="917"/>
      <point x="264" y="810" type="qcurve"/>
      <point x="78" y="810" type="line"/>
      <point x="78" y="975"/>
      <point x="323" y="1181"/>
      <point x="518" y="1181" type="qcurve" smooth="yes"/>
      <point x="700" y="1181"/>
      <point x="914" y="995"/>
      <point x="914" y="846" type="qcurve" smooth="yes"/>
      <point x="914" y="765"/>
      <point x="815" y="591"/>
      <point x="660" y="430" type="qcurve"/>
      <point x="332" y="151" type="line"/>
      <point x="970" y="151" type="line"/>
    </contour>
  </outline>
</glyph>
<glyph name="glyph00466" format="2">
  <advance width="1059"/>
  <outline>
    <contour>
      <point x="303" y="151" type="line"/>
      <point x="992" y="151" type="line"/>
      <point x="992" y="0" type="line"/>
      <point x="71" y="0" type="line"/>
      <point x="71" y="124" type="line"/>
      <point x="735" y="1012" type="line"/>
      <point x="80" y="1012" type="line"/>
      <point x="80" y="1165" type="line"/>
      <point x="968" y="1165" type="line"/>
      <point x="968" y="1044" type="line"/>
    </contour>
  </outline>
</glyph>
<glyph name="glyph00468" format="2">
  <advance width="1108"/>
  <outline>
    <contour>
      <point x="552" y="730" type="line"/>
      <point x="839" y="1165" type="line"/>
      <point x="1059" y="1165" type="line"/>
      <point x="664" y="587" type="line"/>
      <point x="1073" y="0" type="line"/>
      <point x="853" y="0" type="line"/>
      <point x="554" y="443" type="line"/>
      <point x="258" y="0" type="line"/>
      <point x="38" y="0" type="line"/>
      <point x="444" y="587" type="line"/>
      <point x="47" y="1165" type="line"/>
      <point x="266" y="1165" type="line"/>
    </contour>
  </outline>
</glyph>
<glyph name="glyph00471" format="2">
  <advance width="1148"/>
  <outline>
    <contour>
      <point x="1034" y="1165" type="line"/>
      <point x="1034" y="385" type="line" smooth="yes"/>
      <point x="1034" y="203"/>
      <point x="784" y="-16"/>
      <point x="575" y="-16" type="qcurve" smooth="yes"/>
      <point x="365" y="-16"/>
      <point x="119" y="195"/>
      <point x="116" y="377" type="qcurve" smooth="yes"/>
      <point x="116" y="1165" type="line"/>
      <point x="299" y="1165" type="line"/>
      <point x="299" y="385" type="line" smooth="yes"/>
      <point x="299" y="264"/>
      <point x="442" y="135"/>
      <point x="575" y="135" type="qcurve" smooth="yes"/>
      <point x="706" y="135"/>
      <point x="849" y="262"/>
      <point x="849" y="385" type="qcurve" smooth="yes"/>
      <point x="849" y="1165" type="line"/>
    </contour>
  </outline>
</glyph>
<glyph name="glyph00478" format="2">
  <advance width="1251"/>
  <outline>
    <contour>
      <point x="1112" y="0" type="line"/>
      <point x="928" y="0" type="line"/>
      <point x="323" y="876" type="line"/>
      <point x="323" y="0" type="line"/>
      <point x="138" y="0" type="line"/>
      <point x="138" y="1165" type="line"/>
      <point x="323" y="1165" type="line"/>
      <point x="928" y="288" type="line"/>
      <point x="928" y="1165" type="line"/>
      <point x="1112" y="1165" type="line"/>
    </contour>
  </outline>
</glyph>
<glyph name="glyph00484" format="2">
  <advance width="1251"/>
  <outline>
    <contour>
      <point x="1112" y="0" type="line"/>
      <point x="927" y="0" type="line"/>
      <point x="927" y="498" type="line"/>
      <point x="323" y="498" type="line"/>
      <point x="323" y="0" type="line"/>
      <point x="138" y="0" type="line"/>
      <point x="138" y="1165" type="line"/>
      <point x="323" y="1165" type="line"/>
      <point x="323" y="650" type="line"/>
      <point x="927" y="650" type="line"/>
      <point x="927" y="1165" type="line"/>
      <point x="1112" y="1165" type="line"/>
    </contour>
  </outline>
</glyph>
<glyph name="glyph00485" format="2">
  <advance width="1196"/>
  <outline>
    <contour>
      <point x="1077" y="150" type="line"/>
      <point x="1011" y="67"/>
      <point x="778" y="-16"/>
      <point x="627" y="-16" type="qcurve" smooth="yes"/>
      <point x="389" y="-16"/>
      <point x="101" y="282"/>
      <point x="99" y="534" type="qcurve" smooth="yes"/>
      <point x="99" y="624" type="line" smooth="yes"/>
      <point x="99" y="886"/>
      <point x="366" y="1181"/>
      <point x="608" y="1181" type="qcurve" smooth="yes"/>
      <point x="808" y="1181"/>
      <point x="1050" y="993"/>
      <point x="1077" y="812" type="qcurve"/>
      <point x="893" y="812" type="line"/>
      <point x="874.0" y="920.5" name="inserted"/>
      <point x="732.5" y="1029.0"/>
      <point x="610" y="1029" type="qcurve" smooth="yes"/>
      <point x="451" y="1029"/>
      <point x="285" y="823"/>
      <point x="285" y="624" type="qcurve" smooth="yes"/>
      <point x="285" y="540" type="line" smooth="yes"/>
      <point x="285" y="350"/>
      <point x="470" y="135"/>
      <point x="630" y="135" type="qcurve" smooth="yes"/>
      <point x="721.0" y="135.0" name="inserted"/>
      <point x="852.5" y="172.0"/>
      <point x="893" y="209" type="qcurve"/>
      <point x="893" y="447" type="line"/>
      <point x="612" y="447" type="line"/>
      <point x="612" y="591" type="line"/>
      <point x="1077" y="591" type="line"/>
    </contour>
  </outline>
</glyph>
<glyph name="glyph00488" format="2">
  <advance width="1075"/>
  <outline>
    <contour>
      <point x="797" y="500" type="line"/>
      <point x="397" y="500" type="line"/>
      <point x="398" y="466" type="line" smooth="yes"/>
      <point x="400.5" y="364.5" name="inserted"/>
      <point x="375.0" y="207.5"/>
      <point x="347" y="152" type="qcurve"/>
      <point x="1007" y="152" type="line"/>
      <point x="1006" y="0" type="line"/>
      <point x="114" y="0" type="line"/>
      <point x="114" y="152" type="line"/>
      <point x="124" y="152" type="line"/>
      <point x="163.5" y="163.5" name="inserted"/>
      <point x="207.5" y="285.5"/>
      <point x="212" y="396" type="qcurve" smooth="yes"/>
      <point x="213" y="466" type="line"/>
      <point x="212" y="500" type="line"/>
      <point x="48" y="500" type="line"/>
      <point x="48" y="621" type="line"/>
      <point x="208" y="621" type="line"/>
      <point x="204" y="744" type="line" smooth="yes"/>
      <point x="198" y="945"/>
      <point x="401" y="1181"/>
      <point x="582" y="1181" type="qcurve" smooth="yes"/>
      <point x="765" y="1181"/>
      <point x="967" y="977"/>
      <point x="967" y="794" type="qcurve"/>
      <point x="782" y="794" type="line"/>
      <point x="782" y="906"/>
      <point x="678" y="1025"/>
      <point x="582" y="1025" type="qcurve" smooth="yes"/>
      <point x="489" y="1025"/>
      <point x="385" y="882"/>
      <point x="389" y="744" type="qcurve" smooth="yes"/>
      <point x="393" y="621" type="line"/>
      <point x="797" y="621" type="line"/>
    </contour>
  </outline>
</glyph>
<glyph name="glyph00500" format="2">
  <advance width="1394"/>
  <outline>
    <contour>
      <point x="394" y="1012" type="line"/>
      <point x="38" y="1012" type="line"/>
      <point x="38" y="1165" type="line"/>
      <point x="943" y="1165" type="line"/>
      <point x="943" y="1012" type="line"/>
      <point x="579" y="1012" type="line"/>
      <point x="579" y="715" type="line"/>
      <point x="654.5" y="739.5" name="inserted"/>
      <point x="808.0" y="764.0"/>
      <point x="886" y="764" type="qcurve" smooth="yes"/>
      <point x="1098" y="764"/>
      <point x="1324" y="556"/>
      <point x="1324" y="360" type="qcurve" smooth="yes"/>
      <point x="1324" y="170"/>
      <point x="1095" y="-20"/>
      <point x="871" y="-20" type="qcurve"/>
      <point x="871" y="131" type="line"/>
      <point x="1012" y="131"/>
      <point x="1139" y="240"/>
      <point x="1139" y="360" type="qcurve" smooth="yes"/>
      <point x="1139" y="491"/>
      <point x="1014" y="612"/>
      <point x="886" y="612" type="qcurve" smooth="yes"/>
      <point x="807.5" y="612.0" name="inserted"/>
      <point x="654.0" y="587.0"/>
      <point x="579" y="562" type="qcurve"/>
      <point x="579" y="0" type="line"/>
      <point x="394" y="0" type="line"/>
    </contour>
  </outline>
</glyph>
<glyph name="glyph00502" format="2">
  <advance width="1857"/>
  <outline>
    <contour>
      <point x="1787" y="366" type="qcurve" smooth="yes"/>
      <point x="1787" y="201"/>
      <point x="1557" y="2"/>
      <point x="1362" y="0" type="qcurve" smooth="yes"/>
      <point x="893" y="0" type="line"/>
      <point x="893" y="1012" type="line"/>
      <point x="475" y="1012" type="line"/>
      <point x="460" y="601" type="line" smooth="yes"/>
      <point x="449" y="364"/>
      <point x="372" y="118"/>
      <point x="296.5" y="59.5" type="qcurve" smooth="yes" name="inserted"/>
      <point x="258.75" y="30.25" name="inserted"/>
      <point x="159.5" y="0.5"/>
      <point x="98" y="0" type="qcurve" smooth="yes"/>
      <point x="39" y="0" type="line"/>
      <point x="43" y="165" type="line"/>
      <point x="89" y="166" type="line" smooth="yes"/>
      <point x="185" y="170"/>
      <point x="266" y="360"/>
      <point x="276" y="625" type="qcurve" smooth="yes"/>
      <point x="296" y="1165" type="line"/>
      <point x="1078" y="1165" type="line"/>
      <point x="1078" y="727" type="line"/>
      <point x="1370" y="727" type="line" smooth="yes"/>
      <point x="1563" y="723"/>
      <point x="1787" y="530"/>
    </contour>
    <contour>
      <point x="1078" y="575" type="line"/>
      <point x="1078" y="152" type="line"/>
      <point x="1355" y="152" type="line" smooth="yes"/>
      <point x="1469" y="152"/>
      <point x="1601" y="269"/>
      <point x="1601" y="368" type="qcurve" smooth="yes"/>
      <point x="1601" y="463"/>
      <point x="1470" y="575"/>
      <point x="1355" y="575" type="qcurve" smooth="yes"/>
    </contour>
  </outline>
</glyph>
<glyph name="glyph00509" format="2">
  <advance width="1087"/>
  <outline>
    <contour>
      <point x="776" y="848" type="qcurve" smooth="yes"/>
      <point x="776" y="932"/>
      <point x="638" y="1025"/>
      <point x="513" y="1025" type="qcurve" smooth="yes"/>
      <point x="403" y="1025"/>
      <point x="274" y="937"/>
      <point x="274" y="858" type="qcurve"/>
      <point x="88" y="858" type="line"/>
      <point x="88" y="1000"/>
      <point x="325" y="1181"/>
      <point x="513" y="1181" type="qcurve" smooth="yes"/>
      <point x="724" y="1181"/>
      <point x="962" y="1013"/>
      <point x="962" y="863" type="qcurve" smooth="yes"/>
      <point x="962" y="777"/>
      <point x="852" y="636"/>
      <point x="749" y="595" type="qcurve"/>
      <point x="867" y="559"/>
      <point x="980" y="413"/>
      <point x="980" y="322" type="qcurve" smooth="yes"/>
      <point x="980" y="164"/>
      <point x="726" y="-16"/>
      <point x="513" y="-16" type="qcurve" smooth="yes"/>
      <point x="422" y="-16"/>
      <point x="253" y="28"/>
      <point x="192" y="74" type="qcurve" smooth="yes"/>
      <point x="131.5" y="118.5" name="inserted"/>
      <point x="71.0" y="241.5"/>
      <point x="71" y="320" type="qcurve"/>
      <point x="256" y="320" type="line"/>
      <point x="261" y="234"/>
      <point x="392" y="138"/>
      <point x="513" y="138" type="qcurve" smooth="yes"/>
      <point x="649" y="138"/>
      <point x="795" y="234"/>
      <point x="795" y="322" type="qcurve" smooth="yes"/>
      <point x="795.0" y="418.5" name="inserted"/>
      <point x="666.5" y="517.5"/>
      <point x="538" y="520" type="qcurve" smooth="yes"/>
      <point x="381" y="520" type="line"/>
      <point x="381" y="672" type="line"/>
      <point x="537" y="672" type="line" smooth="yes"/>
      <point x="656.5" y="674.5" name="inserted"/>
      <point x="776.0" y="762.5"/>
    </contour>
  </outline>
</glyph>
<glyph name="glyph00511" format="2">
  <advance width="1102"/>
  <outline>
    <contour>
      <point x="430" y="502" type="line"/>
      <point x="324" y="502" type="line"/>
      <point x="324" y="0" type="line"/>
      <point x="139" y="0" type="line"/>
      <point x="139" y="1165" type="line"/>
      <point x="324" y="1165" type="line"/>
      <point x="324" y="656" type="line"/>
      <point x="424" y="656" type="line"/>
      <point x="813" y="1165" type="line"/>
      <point x="1036" y="1165" type="line"/>
      <point x="577" y="594" type="line"/>
      <point x="1068" y="0" type="line"/>
      <point x="829" y="0" type="line"/>
    </contour>
  </outline>
</glyph>
<glyph name="glyph00512" format="2">
  <advance width="1217"/>
  <outline>
    <contour>
      <point x="1078" y="1165" type="line"/>
      <point x="1078" y="0" type="line"/>
      <point x="893" y="0" type="line"/>
      <point x="893" y="1012" type="line"/>
      <point x="475" y="1012" type="line"/>
      <point x="460" y="630" type="line" smooth="yes"/>
      <point x="447" y="288"/>
      <point x="283" y="5"/>
      <point x="107" y="0" type="qcurve" smooth="yes"/>
      <point x="39" y="0" type="line"/>
      <point x="43" y="165" type="line"/>
      <point x="84" y="168" type="line" smooth="yes"/>
      <point x="178" y="175"/>
      <point x="258" y="333"/>
      <point x="271" y="559" type="qcurve" smooth="yes"/>
      <point x="296" y="1165" type="line"/>
    </contour>
  </outline>
</glyph>
<glyph name="glyph00518" format="2">
  <advance width="1309"/>
  <outline>
    <contour>
      <point x="1238" y="366" type="qcurve" smooth="yes"/>
      <point x="1238" y="202"/>
      <point x="1010" y="2"/>
      <point x="814" y="0" type="qcurve" smooth="yes"/>
      <point x="344" y="0" type="line"/>
      <point x="344" y="1012" type="line"/>
      <point x="8" y="1012" type="line"/>
      <point x="8" y="1165" type="line"/>
      <point x="530" y="1165" type="line"/>
      <point x="530" y="727" type="line"/>
      <point x="808" y="727" type="line" smooth="yes"/>
      <point x="940" y="727"/>
      <point x="1134" y="639"/>
      <point x="1186.0" y="557.5" type="qcurve" smooth="yes" name="inserted"/>
      <point x="1212.0" y="516.75" name="inserted"/>
      <point x="1238.0" y="421.0"/>
    </contour>
    <contour>
      <point x="807" y="152" type="line" smooth="yes"/>
      <point x="921" y="152"/>
      <point x="1053" y="269"/>
      <point x="1053" y="368" type="qcurve" smooth="yes"/>
      <point x="1053" y="463"/>
      <point x="922" y="575"/>
      <point x="807" y="575" type="qcurve" smooth="yes"/>
      <point x="530" y="575" type="line"/>
      <point x="530" y="152" type="line"/>
    </contour>
  </outline>
</glyph>
<glyph name="glyph00526" format="2">
  <advance width="1145"/>
  <outline>
    <contour>
      <point x="577" y="594" type="line"/>
      <point x="944" y="150" type="line"/>
      <point x="1102" y="150" type="line"/>
      <point x="1102" y="-340" type="line"/>
      <point x="934" y="-340" type="line"/>
      <point x="934" y="0" type="line"/>
      <point x="829" y="0" type="line"/>
      <point x="430" y="502" type="line"/>
      <point x="324" y="502" type="line"/>
      <point x="324" y="0" type="line"/>
      <point x="139" y="0" type="line"/>
      <point x="139" y="1165" type="line"/>
      <point x="324" y="1165" type="line"/>
      <point x="324" y="656" type="line"/>
      <point x="424" y="656" type="line"/>
      <point x="813" y="1165" type="line"/>
      <point x="1036" y="1165" type="line"/>
    </contour>
  </outline>
</glyph>
<glyph name="glyph00528" format="2">
  <advance width="1335"/>
  <outline>
    <contour>
      <point x="663" y="502" type="line"/>
      <point x="558" y="502" type="line"/>
      <point x="558" y="0" type="line"/>
      <point x="372" y="0" type="line"/>
      <point x="372" y="1013" type="line"/>
      <point x="35" y="1013" type="line"/>
      <point x="35" y="1165" type="line"/>
      <point x="558" y="1165" type="line"/>
      <point x="558" y="656" type="line"/>
      <point x="657" y="656" type="line"/>
      <point x="1046" y="1165" type="line"/>
      <point x="1270" y="1165" type="line"/>
      <point x="810" y="594" type="line"/>
      <point x="1301" y="0" type="line"/>
      <point x="1062" y="0" type="line"/>
    </contour>
  </outline>
</glyph>
<glyph name="glyph00529" format="2">
  <advance width="1474"/>
  <outline>
    <contour>
      <point x="1371" y="-20" type="line"/>
      <point x="1262.5" y="-20.0" name="inserted"/>
      <point x="1071.0" y="9.5"/>
      <point x="988" y="39" type="qcurve"/>
      <point x="919.5" y="9.0" name="inserted"/>
      <point x="769.5" y="-21.0"/>
      <point x="688" y="-21" type="qcurve" smooth="yes"/>
      <point x="410" y="-21"/>
      <point x="96" y="304"/>
      <point x="96" y="602" type="qcurve" smooth="yes"/>
      <point x="96" y="628" type="line" smooth="yes"/>
      <point x="96" y="887"/>
      <point x="340" y="1183"/>
      <point x="550" y="1183" type="qcurve"/>
      <point x="551" y="1025" type="line"/>
      <point x="425" y="1025"/>
      <point x="281" y="830"/>
      <point x="281" y="630" type="qcurve" smooth="yes"/>
      <point x="281" y="597" type="line" smooth="yes"/>
      <point x="281" y="365"/>
      <point x="489" y="136"/>
      <point x="688" y="136" type="qcurve" smooth="yes"/>
      <point x="715.0" y="136.0" name="inserted"/>
      <point x="767.0" y="140.0"/>
      <point x="792" y="144" type="qcurve"/>
      <point x="678.5" y="233.0" name="inserted"/>
      <point x="564.5" y="484.5"/>
      <point x="564" y="647" type="qcurve" smooth="yes"/>
      <point x="564" y="686" type="line" smooth="yes"/>
      <point x="564" y="921"/>
      <point x="771" y="1181"/>
      <point x="952" y="1181" type="qcurve" smooth="yes"/>
      <point x="1136" y="1181"/>
      <point x="1341" y="924"/>
      <point x="1341" y="683" type="qcurve" smooth="yes"/>
      <point x="1341" y="627" type="line" smooth="yes"/>
      <point x="1341.0" y="480.0" name="inserted"/>
      <point x="1250.0" y="244.0"/>
      <point x="1159" y="155" type="qcurve"/>
      <point x="1206.0" y="146.0" name="inserted"/>
      <point x="1312.0" y="137.0"/>
      <point x="1371" y="137" type="qcurve"/>
    </contour>
    <contour>
      <point x="749" y="646" type="line" smooth="yes"/>
      <point x="749.0" y="492.0" name="inserted"/>
      <point x="861.5" y="277.5"/>
      <point x="974" y="217" type="qcurve"/>
      <point x="1065.0" y="281.5" name="inserted"/>
      <point x="1156.0" y="489.0"/>
      <point x="1156" y="632" type="qcurve" smooth="yes"/>
      <point x="1156" y="688" type="line" smooth="yes"/>
      <point x="1156" y="860"/>
      <point x="1058" y="1023"/>
      <point x="952" y="1023" type="qcurve" smooth="yes"/>
      <point x="853.0" y="1023.0" name="inserted"/>
      <point x="751.5" y="864.5"/>
      <point x="749" y="706" type="qcurve"/>
    </contour>
  </outline>
</glyph>
<glyph name="glyph00533" format="2">
  <advance width="1130"/>
  <outline>
    <contour>
      <point x="991" y="0" type="line"/>
      <point x="806" y="0" type="line"/>
      <point x="806" y="450" type="line"/>
      <point x="756.5" y="433.5" name="inserted"/>
      <point x="654.5" y="411.5"/>
      <point x="602" y="406" type="qcurve"/>
      <point x="602" y="208" type="line"/>
      <point x="453" y="208" type="line"/>
      <point x="453" y="403" type="line"/>
      <point x="265" y="413"/>
      <point x="64" y="614"/>
      <point x="61" y="800" type="qcurve" smooth="yes"/>
      <point x="61" y="1165" type="line"/>
      <point x="246" y="1165" type="line"/>
      <point x="246" y="810" type="line" smooth="yes"/>
      <point x="246" y="687"/>
      <point x="349" y="567"/>
      <point x="453" y="556" type="qcurve"/>
      <point x="453" y="796" type="line"/>
      <point x="602" y="796" type="line"/>
      <point x="602" y="559" type="line"/>
      <point x="653.5" y="564.5" name="inserted"/>
      <point x="755.5" y="587.0"/>
      <point x="806" y="604" type="qcurve"/>
      <point x="806" y="1165" type="line"/>
      <point x="991" y="1165" type="line"/>
    </contour>
  </outline>
</glyph>
<glyph name="glyph00534" format="2">
  <advance width="1130"/>
  <outline>
    <contour>
      <point x="138" y="1165" type="line"/>
      <point x="323" y="1165" type="line"/>
      <point x="323" y="715" type="line"/>
      <point x="400.0" y="739.5" name="inserted"/>
      <point x="553.5" y="764.0"/>
      <point x="630" y="764" type="qcurve" smooth="yes"/>
      <point x="842" y="764"/>
      <point x="1064" y="562"/>
      <point x="1068" y="369" type="qcurve" smooth="yes"/>
      <point x="1068" y="0" type="line"/>
      <point x="883" y="0" type="line"/>
      <point x="883" y="356" type="line" smooth="yes"/>
      <point x="883" y="491"/>
      <point x="757" y="612"/>
      <point x="630" y="612" type="qcurve" smooth="yes"/>
      <point x="554.0" y="612.0" name="inserted"/>
      <point x="400.5" y="586.5"/>
      <point x="323" y="561" type="qcurve"/>
      <point x="323" y="0" type="line"/>
      <point x="138" y="0" type="line"/>
    </contour>
  </outline>
</glyph>
<glyph name="glyph00542" format="2">
  <advance width="1195"/>
  <outline>
    <contour>
      <point x="676" y="180" type="line"/>
      <point x="418" y="180" type="line"/>
      <point x="418" y="0" type="line"/>
      <point x="232" y="0" type="line"/>
      <point x="232" y="180" type="line"/>
      <point x="40" y="180" type="line"/>
      <point x="40" y="332" type="line"/>
      <point x="232" y="332" type="line"/>
      <point x="232" y="421" type="line"/>
      <point x="40" y="421" type="line"/>
      <point x="40" y="573" type="line"/>
      <point x="232" y="573" type="line"/>
      <point x="232" y="1165" type="line"/>
      <point x="695" y="1165" type="line" smooth="yes"/>
      <point x="892" y="1165"/>
      <point x="1126" y="961"/>
      <point x="1126" y="793" type="qcurve" smooth="yes"/>
      <point x="1126" y="628"/>
      <point x="899" y="425"/>
      <point x="709" y="421" type="qcurve" smooth="yes"/>
      <point x="418" y="421" type="line"/>
      <point x="418" y="332" type="line"/>
      <point x="676" y="332" type="line"/>
    </contour>
    <contour>
      <point x="418" y="573" type="line"/>
      <point x="695" y="573" type="line" smooth="yes"/>
      <point x="809" y="573"/>
      <point x="940" y="693"/>
      <point x="940" y="791" type="qcurve" smooth="yes"/>
      <point x="940" y="891"/>
      <point x="808" y="1013"/>
      <point x="696" y="1013" type="qcurve" smooth="yes"/>
      <point x="418" y="1013" type="line"/>
    </contour>
  </outline>
</glyph>
<glyph name="glyph00543" format="2">
  <advance width="751"/>
  <outline>
    <contour>
      <point x="265" y="459" type="line"/>
      <point x="349" y="459" type="line" smooth="yes"/>
      <point x="423" y="459"/>
      <point x="495" y="520"/>
      <point x="495" y="568" type="qcurve" smooth="yes"/>
      <point x="495" y="613"/>
      <point x="432" y="671"/>
      <point x="362" y="671" type="qcurve" smooth="yes"/>
      <point x="305" y="671"/>
      <point x="230" y="620"/>
      <point x="230" y="579" type="qcurve"/>
      <point x="73" y="579" type="line"/>
      <point x="73" y="677"/>
      <point x="236" y="800"/>
      <point x="360" y="800" type="qcurve" smooth="yes"/>
      <point x="497" y="800"/>
      <point x="653" y="679"/>
      <point x="653" y="575" type="qcurve" smooth="yes"/>
      <point x="653" y="520"/>
      <point x="583" y="429"/>
      <point x="517" y="404" type="qcurve"/>
      <point x="591.5" y="383.5" name="inserted"/>
      <point x="666.0" y="291.5"/>
      <point x="666" y="220" type="qcurve" smooth="yes"/>
      <point x="666" y="114"/>
      <point x="496" y="-11"/>
      <point x="360" y="-11" type="qcurve" smooth="yes"/>
      <point x="228" y="-11"/>
      <point x="62" y="115"/>
      <point x="62" y="222" type="qcurve"/>
      <point x="220" y="222" type="line"/>
      <point x="220" y="177"/>
      <point x="299" y="117"/>
      <point x="366" y="117" type="qcurve" smooth="yes"/>
      <point x="436" y="117"/>
      <point x="509" y="177"/>
      <point x="509" y="228" type="qcurve" smooth="yes"/>
      <point x="509.0" y="284.5" name="inserted"/>
      <point x="431.0" y="342.0"/>
      <point x="353" y="343" type="qcurve" smooth="yes"/>
      <point x="265" y="343" type="line"/>
    </contour>
  </outline>
</glyph>
<glyph name="glyph00546" format="2">
  <advance width="751"/>
  <outline>
    <contour>
      <point x="552" y="798" type="line"/>
      <point x="552" y="667" type="line"/>
      <point x="535" y="667" type="line" smooth="yes"/>
      <point x="401.0" y="666.0" name="inserted"/>
      <point x="255.5" y="555.5"/>
      <point x="244" y="446" type="qcurve"/>
      <point x="280.0" y="484.5" name="inserted"/>
      <point x="373.0" y="523.0"/>
      <point x="430" y="523" type="qcurve" smooth="yes"/>
      <point x="548" y="523"/>
      <point x="683" y="378"/>
      <point x="683" y="259" type="qcurve" smooth="yes"/>
      <point x="683" y="143"/>
      <point x="524" y="-11"/>
      <point x="392" y="-11" type="qcurve" smooth="yes"/>
      <point x="253" y="-11"/>
      <point x="86" y="155"/>
      <point x="86" y="306" type="qcurve" smooth="yes"/>
      <point x="86" y="357" type="line" smooth="yes"/>
      <point x="86" y="565"/>
      <point x="308" y="793"/>
      <point x="513" y="798" type="qcurve" smooth="yes"/>
    </contour>
    <contour>
      <point x="387" y="396" type="qcurve" smooth="yes"/>
      <point x="336" y="396"/>
      <point x="259" y="352"/>
      <point x="242" y="320" type="qcurve"/>
      <point x="242" y="286" type="line" smooth="yes"/>
      <point x="242" y="202"/>
      <point x="325" y="117"/>
      <point x="388" y="117" type="qcurve" smooth="yes"/>
      <point x="449" y="117"/>
      <point x="527" y="196"/>
      <point x="527.0" y="258.0" type="qcurve" smooth="yes" name="inserted"/>
      <point x="527" y="320"/>
      <point x="456" y="396"/>
    </contour>
  </outline>
</glyph>
<glyph name="glyph00547" format="2">
  <advance width="751"/>
  <outline>
    <contour>
      <point x="677" y="699" type="line"/>
      <point x="328" y="0" type="line"/>
      <point x="162" y="0" type="line"/>
      <point x="511" y="659" type="line"/>
      <point x="58" y="659" type="line"/>
      <point x="58" y="789" type="line"/>
      <point x="677" y="789" type="line"/>
    </contour>
  </outline>
</glyph>
<glyph name="glyph00552" format="2">
  <advance width="998"/>
  <outline>
    <contour>
      <point x="855" y="526" type="line"/>
      <point x="323" y="526" type="line"/>
      <point x="323" y="151" type="line"/>
      <point x="942" y="151" type="line"/>
      <point x="942" y="0" type="line"/>
      <point x="138" y="0" type="line"/>
      <point x="138" y="1165" type="line"/>
      <point x="936" y="1165" type="line"/>
      <point x="936" y="1012" type="line"/>
      <point x="323" y="1012" type="line"/>
      <point x="323" y="678" type="line"/>
      <point x="855" y="678" type="line"/>
    </contour>
  </outline>
</glyph>
<glyph name="glyph00557" format="2">
  <advance width="1043"/>
  <outline>
    <contour>
      <point x="460" y="501" type="line"/>
      <point x="332" y="501" type="line"/>
      <point x="332" y="0" type="line"/>
      <point x="146" y="0" type="line"/>
      <point x="146" y="1536" type="line"/>
      <point x="332" y="1536" type="line"/>
      <point x="332" y="654" type="line"/>
      <point x="458" y="654" type="line"/>
      <point x="773" y="1082" type="line"/>
      <point x="992" y="1082" type="line"/>
      <point x="614" y="589" type="line"/>
      <point x="1044" y="0" type="line"/>
      <point x="825" y="0" type="line"/>
    </contour>
  </outline>
</glyph>
<glyph name="glyph00560" format="2">
  <advance width="1152"/>
  <outline>
    <contour>
      <point x="138" y="0" type="line"/>
      <point x="138" y="1165" type="line"/>
      <point x="499" y="1165" type="line" smooth="yes"/>
      <point x="661" y="1165"/>
      <point x="912" y="1032"/>
      <point x="982.0" y="909.0" type="qcurve" smooth="yes" name="inserted"/>
      <point x="1017.0" y="847.5" name="inserted"/>
      <point x="1053.5" y="706.5"/>
      <point x="1055" y="627" type="qcurve" smooth="yes"/>
      <point x="1055" y="550" type="line" smooth="yes"/>
      <point x="1055" y="298"/>
      <point x="744" y="0"/>
      <point x="481" y="0" type="qcurve" smooth="yes"/>
    </contour>
    <contour>
      <point x="323" y="1012" type="line"/>
      <point x="323" y="151" type="line"/>
      <point x="487" y="151" type="line" smooth="yes"/>
      <point x="673" y="151"/>
      <point x="871" y="359"/>
      <point x="871" y="551" type="qcurve" smooth="yes"/>
      <point x="871" y="615" type="line" smooth="yes"/>
      <point x="871" y="807"/>
      <point x="682" y="1012"/>
      <point x="499" y="1012" type="qcurve" smooth="yes"/>
    </contour>
  </outline>
</glyph>
<glyph name="glyph00566" format="2">
  <outline>
    <contour>
      <point x="-308" y="1405" type="line"/>
      <point x="-308" y="1331"/>
      <point x="-404" y="1226"/>
      <point x="-474" y="1226" type="qcurve" smooth="yes"/>
      <point x="-527" y="1226"/>
      <point x="-640" y="1292"/>
      <point x="-657.0" y="1296.5" type="qcurve" smooth="yes" name="inserted"/>
      <point x="-665.5" y="1298.75" name="inserted"/>
      <point x="-684.0" y="1301.0"/>
      <point x="-694" y="1301" type="qcurve" smooth="yes"/>
      <point x="-729" y="1301"/>
      <point x="-776" y="1250"/>
      <point x="-776" y="1212" type="qcurve"/>
      <point x="-860" y="1233" type="line"/>
      <point x="-860" y="1308"/>
      <point x="-764" y="1415"/>
      <point x="-694" y="1415" type="qcurve" smooth="yes"/>
      <point x="-647" y="1415"/>
      <point x="-518" y="1340"/>
      <point x="-474" y="1340" type="qcurve" smooth="yes"/>
      <point x="-439" y="1340"/>
      <point x="-391" y="1391"/>
      <point x="-391" y="1429" type="qcurve"/>
    </contour>
    <contour>
      <point x="-532" y="1683" type="line"/>
      <point x="-361" y="1683" type="line"/>
      <point x="-543" y="1458" type="line"/>
      <point x="-663" y="1458" type="line"/>
    </contour>
  </outline>
</glyph>
<glyph name="glyph00568" format="2">
  <advance width="1011"/>
  <outline>
    <contour>
      <point x="838" y="1231" type="line"/>
      <point x="641" y="1231" type="line"/>
      <point x="471" y="1389" type="line"/>
      <point x="301" y="1231" type="line"/>
      <point x="105" y="1231" type="line"/>
      <point x="395" y="1493" type="line"/>
      <point x="547" y="1493" type="line"/>
    </contour>
    <contour>
      <point x="178" y="1408" type="line"/>
      <point x="38" y="1408" type="line"/>
      <point x="-162" y="1666" type="line"/>
      <point x="37" y="1666" type="line"/>
    </contour>
  </outline>
</glyph>
<glyph name="glyph00569" format="2">
  <advance width="1038"/>
  <outline>
    <contour>
      <point x="838" y="1252" type="line"/>
      <point x="668" y="1252" type="line"/>
      <point x="471" y="1438" type="line"/>
      <point x="274" y="1252" type="line"/>
      <point x="105" y="1252" type="line"/>
      <point x="377" y="1514" type="line"/>
      <point x="565" y="1514" type="line"/>
    </contour>
    <contour>
      <point x="755" y="1390" type="line"/>
      <point x="754" y="1521" type="line"/>
      <point x="819" y="1525"/>
      <point x="878" y="1551"/>
      <point x="878" y="1584" type="qcurve" smooth="yes"/>
      <point x="878.0" y="1617.5" name="inserted"/>
      <point x="807.5" y="1651.0"/>
      <point x="737" y="1651" type="qcurve"/>
      <point x="742" y="1743" type="line"/>
      <point x="870" y="1743"/>
      <point x="1004" y="1655"/>
      <point x="1004" y="1582" type="qcurve" smooth="yes"/>
      <point x="1004" y="1523"/>
      <point x="930" y="1457"/>
      <point x="870" y="1450" type="qcurve"/>
      <point x="869" y="1390" type="line"/>
    </contour>
  </outline>
</glyph>
<glyph name="glyph00584" format="2">
  <advance width="1504"/>
  <outline>
    <contour>
      <point x="1375" y="706" type="line" smooth="yes"/>
      <point x="1375" y="500"/>
      <point x="1213" y="164"/>
      <point x="1070.0" y="71.5" type="qcurve" smooth="yes" name="inserted"/>
      <point x="998.5" y="25.25" name="inserted"/>
      <point x="839.5" y="-21.0"/>
      <point x="752" y="-21" type="qcurve" smooth="yes"/>
      <point x="581" y="-21"/>
      <point x="294" y="164"/>
      <point x="211.0" y="329.0" type="qcurve" smooth="yes" name="inserted"/>
      <point x="169.5" y="411.5" name="inserted"/>
      <point x="127.0" y="594.0"/>
      <point x="126" y="694" type="qcurve" smooth="yes"/>
      <point x="126" y="749" type="line" smooth="yes"/>
      <point x="126" y="954"/>
      <point x="290" y="1289"/>
      <point x="434.5" y="1383.0" type="qcurve" smooth="yes" name="inserted"/>
      <point x="506.75" y="1430.0" name="inserted"/>
      <point x="664.5" y="1477.0"/>
      <point x="750" y="1477" type="qcurve" smooth="yes"/>
      <point x="923" y="1477"/>
      <point x="1211" y="1292"/>
      <point x="1292.5" y="1126.0" type="qcurve" smooth="yes" name="inserted"/>
      <point x="1333.25" y="1043.0" name="inserted"/>
      <point x="1374.5" y="858.0"/>
      <point x="1375" y="756" type="qcurve" smooth="yes"/>
    </contour>
    <contour>
      <point x="1184" y="751" type="line" smooth="yes"/>
      <point x="1184" y="913"/>
      <point x="1074" y="1169"/>
      <point x="974.5" y="1240.5" type="qcurve" smooth="yes" name="inserted"/>
      <point x="924.75" y="1276.25" name="inserted"/>
      <point x="812.5" y="1312.0"/>
      <point x="750" y="1312" type="qcurve" smooth="yes"/>
      <point x="630" y="1312"/>
      <point x="432" y="1169"/>
      <point x="375.0" y="1042.0" type="qcurve" smooth="yes" name="inserted"/>
      <point x="346.5" y="978.5" name="inserted"/>
      <point x="317.5" y="837.0"/>
      <point x="317" y="759" type="qcurve"/>
      <point x="317" y="706" type="line" smooth="yes"/>
      <point x="317" y="546"/>
      <point x="430" y="288"/>
      <point x="530.5" y="215.0" type="qcurve" smooth="yes" name="inserted"/>
      <point x="580.75" y="178.5" name="inserted"/>
      <point x="691.5" y="142.0"/>
      <point x="752" y="142" type="qcurve" smooth="yes"/>
      <point x="945" y="142"/>
      <point x="1184" y="457"/>
      <point x="1184" y="712" type="qcurve" smooth="yes"/>
    </contour>
  </outline>
</glyph>
<glyph name="glyph00585" format="2">
  <advance width="1507"/>
  <outline>
    <contour>
      <point x="1375" y="706" type="line" smooth="yes"/>
      <point x="1375" y="494"/>
      <point x="1206" y="154"/>
      <point x="1058" y="64" type="qcurve"/>
      <point x="1308" y="-131" type="line"/>
      <point x="1177" y="-252" type="line"/>
      <point x="869" y="-9" type="line"/>
      <point x="840.5" y="-15.0" name="inserted"/>
      <point x="782.0" y="-21.0"/>
      <point x="752" y="-21" type="qcurve" smooth="yes"/>
      <point x="581" y="-21"/>
      <point x="293" y="165"/>
      <point x="211.0" y="328.0" type="qcurve" smooth="yes" name="inserted"/>
      <point x="170.0" y="409.5" name="inserted"/>
      <point x="127.5" y="590.0"/>
      <point x="126" y="689" type="qcurve" smooth="yes"/>
      <point x="126" y="747" type="line" smooth="yes"/>
      <point x="126" y="951"/>
      <point x="288" y="1287"/>
      <point x="433.0" y="1382.0" type="qcurve" smooth="yes" name="inserted"/>
      <point x="505.5" y="1429.5" name="inserted"/>
      <point x="664.0" y="1477.0"/>
      <point x="750" y="1477" type="qcurve" smooth="yes"/>
      <point x="924" y="1477"/>
      <point x="1213" y="1290"/>
      <point x="1294.0" y="1122.0" type="qcurve" smooth="yes" name="inserted"/>
      <point x="1334.5" y="1038.0" name="inserted"/>
      <point x="1375.0" y="851.0"/>
      <point x="1375" y="748" type="qcurve" smooth="yes"/>
    </contour>
    <contour>
      <point x="1184" y="749" type="line" smooth="yes"/>
      <point x="1184" y="912"/>
      <point x="1074" y="1169"/>
      <point x="974.5" y="1240.5" type="qcurve" smooth="yes" name="inserted"/>
      <point x="924.75" y="1276.25" name="inserted"/>
      <point x="812.5" y="1312.0"/>
      <point x="750" y="1312" type="qcurve" smooth="yes"/>
      <point x="630" y="1312"/>
      <point x="431" y="1168"/>
      <point x="374.5" y="1040.5" type="qcurve" smooth="yes" name="inserted"/>
      <point x="346.25" y="976.75" name="inserted"/>
      <point x="317.5" y="835.0"/>
      <point x="317" y="757" type="qcurve"/>
      <point x="317" y="706" type="line" smooth="yes"/>
      <point x="317" y="546"/>
      <point x="430" y="288"/>
      <point x="530.5" y="215.0" type="qcurve" smooth="yes" name="inserted"/>
      <point x="580.75" y="178.5" name="inserted"/>
      <point x="691.5" y="142.0"/>
      <point x="752" y="142" type="qcurve" smooth="yes"/>
      <point x="945" y="142"/>
      <point x="1184" y="457"/>
      <point x="1184" y="712" type="qcurve" smooth="yes"/>
    </contour>
  </outline>
</glyph>
<glyph name="glyph00590" format="2">
  <advance width="1131"/>
  <outline>
    <contour>
      <point x="134" y="372" type="line"/>
      <point x="236" y="1164" type="line"/>
      <point x="1024" y="1164" type="line"/>
      <point x="1024" y="993" type="line"/>
      <point x="382" y="993" type="line"/>
      <point x="328" y="597" type="line"/>
      <point x="383.5" y="629.0" name="inserted"/>
      <point x="513.5" y="662.0"/>
      <point x="588" y="663" type="qcurve" smooth="yes"/>
      <point x="788" y="665"/>
      <point x="1029" y="398"/>
      <point x="1029" y="173" type="qcurve" smooth="yes"/>
      <point x="1029" y="-66"/>
      <point x="741" y="-352"/>
      <point x="500" y="-352" type="qcurve" smooth="yes"/>
      <point x="388.0" y="-352.0" name="inserted"/>
      <point x="188.5" y="-295.0"/>
      <point x="101" y="-238" type="qcurve"/>
      <point x="159" y="-99" type="line"/>
      <point x="224.0" y="-149.5" name="inserted"/>
      <point x="394.5" y="-200.0"/>
      <point x="500" y="-200" type="qcurve" smooth="yes"/>
      <point x="653" y="-200"/>
      <point x="844" y="7"/>
      <point x="844" y="171" type="qcurve" smooth="yes"/>
      <point x="844" y="314"/>
      <point x="679" y="496"/>
      <point x="544" y="496" type="qcurve" smooth="yes"/>
      <point x="438" y="496"/>
      <point x="321" y="438"/>
      <point x="287" y="355" type="qcurve"/>
    </contour>
  </outline>
</glyph>
<glyph name="glyph00615" format="2">
  <advance width="1149"/>
  <outline>
    <contour>
      <point x="1076" y="530" type="line" smooth="yes"/>
      <point x="1076" y="371"/>
      <point x="965" y="119"/>
      <point x="864.5" y="49.5" type="qcurve" smooth="yes" name="inserted"/>
      <point x="814.25" y="14.75" name="inserted"/>
      <point x="700.0" y="-20.0"/>
      <point x="636" y="-20" type="qcurve" smooth="yes"/>
      <point x="531.5" y="-20.0" name="inserted"/>
      <point x="371.0" y="54.5"/>
      <point x="315" y="129" type="qcurve"/>
      <point x="300" y="0" type="line"/>
      <point x="140" y="0" type="line"/>
      <point x="140" y="1536" type="line"/>
      <point x="325" y="1536" type="line"/>
      <point x="325" y="963" type="line"/>
      <point x="381.0" y="1032.5" name="inserted"/>
      <point x="535.5" y="1102.0"/>
      <point x="634" y="1102" type="qcurve" smooth="yes"/>
      <point x="835" y="1102"/>
      <point x="1076" y="801"/>
      <point x="1076" y="544" type="qcurve" smooth="yes"/>
    </contour>
    <contour>
      <point x="891" y="551" type="qcurve" smooth="yes"/>
      <point x="891" y="731"/>
      <point x="728" y="945"/>
      <point x="588" y="945" type="qcurve" smooth="yes"/>
      <point x="496.5" y="945.0" name="inserted"/>
      <point x="365.0" y="860.0"/>
      <point x="325" y="775" type="qcurve"/>
      <point x="325" y="307" type="line"/>
      <point x="367.5" y="221.5" name="inserted"/>
      <point x="500.0" y="136.0"/>
      <point x="590" y="136" type="qcurve" smooth="yes"/>
      <point x="728" y="136"/>
      <point x="891" y="352"/>
    </contour>
  </outline>
</glyph>
<glyph name="glyph00617" format="2">
  <advance width="1171"/>
  <outline>
    <contour>
      <point x="91" y="550" type="line" smooth="yes"/>
      <point x="91" y="709"/>
      <point x="204" y="961"/>
      <point x="307.0" y="1031.5" type="qcurve" smooth="yes" name="inserted"/>
      <point x="358.5" y="1066.75" name="inserted"/>
      <point x="474.0" y="1102.0"/>
      <point x="538" y="1102" type="qcurve" smooth="yes"/>
      <point x="633.0" y="1102.0" name="inserted"/>
      <point x="783.5" y="1037.0"/>
      <point x="839" y="972" type="qcurve"/>
      <point x="839" y="1536" type="line"/>
      <point x="1024" y="1536" type="line"/>
      <point x="1024" y="0" type="line"/>
      <point x="863" y="0" type="line"/>
      <point x="849" y="120" type="line"/>
      <point x="793.5" y="50.0" name="inserted"/>
      <point x="637.0" y="-20.0"/>
      <point x="536" y="-20" type="qcurve" smooth="yes"/>
      <point x="412" y="-20"/>
      <point x="209" y="120"/>
      <point x="150.5" y="245.5" type="qcurve" smooth="yes" name="inserted"/>
      <point x="121.25" y="308.25" name="inserted"/>
      <point x="91.5" y="447.0"/>
      <point x="91" y="523" type="qcurve" smooth="yes"/>
    </contour>
    <contour>
      <point x="276" y="529" type="qcurve" smooth="yes"/>
      <point x="276" y="352"/>
      <point x="444" y="136"/>
      <point x="582" y="136" type="qcurve" smooth="yes"/>
      <point x="669.5" y="136.0" name="inserted"/>
      <point x="798.0" y="215.5"/>
      <point x="839" y="295" type="qcurve"/>
      <point x="839" y="792" type="line"/>
      <point x="797.5" y="868.5" name="inserted"/>
      <point x="670.0" y="945.0"/>
      <point x="584" y="945" type="qcurve" smooth="yes"/>
      <point x="443" y="945"/>
      <point x="276" y="731"/>
    </contour>
  </outline>
</glyph>
<glyph name="glyph00622" format="2">
  <advance width="1085"/>
  <outline>
    <contour>
      <point x="625" y="-20" type="qcurve" smooth="yes"/>
      <point x="396" y="-20"/>
      <point x="105" y="259"/>
      <point x="94" y="486" type="qcurve" smooth="yes"/>
      <point x="93" y="564" type="line" smooth="yes"/>
      <point x="93" y="719"/>
      <point x="217" y="964"/>
      <point x="327.5" y="1033.0" type="qcurve" smooth="yes" name="inserted"/>
      <point x="382.75" y="1067.5" name="inserted"/>
      <point x="502.0" y="1102.0"/>
      <point x="566" y="1102" type="qcurve" smooth="yes"/>
      <point x="779" y="1102"/>
      <point x="1011" y="844"/>
      <point x="1011" y="604" type="qcurve" smooth="yes"/>
      <point x="1011" y="488" type="line"/>
      <point x="279" y="488" type="line"/>
      <point x="287" y="331"/>
      <point x="481" y="131"/>
      <point x="634" y="131" type="qcurve" smooth="yes"/>
      <point x="714.0" y="131.0" name="inserted"/>
      <point x="854.0" y="176.0"/>
      <point x="914" y="221" type="qcurve"/>
      <point x="971" y="94" type="line"/>
      <point x="905.5" y="37.0" name="inserted"/>
      <point x="732.5" y="-20.0"/>
    </contour>
    <contour>
      <point x="566" y="950" type="qcurve" smooth="yes"/>
      <point x="451" y="950"/>
      <point x="299" y="790"/>
      <point x="282" y="640" type="qcurve"/>
      <point x="826" y="640" type="line"/>
      <point x="826" y="665" type="line" smooth="yes"/>
      <point x="826" y="796"/>
      <point x="689" y="950"/>
    </contour>
  </outline>
</glyph>
<glyph name="glyph00623" format="2">
  <advance width="1149"/>
  <outline>
    <contour>
      <point x="96" y="549" type="line" smooth="yes"/>
      <point x="96" y="799"/>
      <point x="328" y="1102"/>
      <point x="523" y="1102" type="qcurve" smooth="yes"/>
      <point x="624.0" y="1102.0" name="inserted"/>
      <point x="781.0" y="1028.5"/>
      <point x="837" y="955" type="qcurve"/>
      <point x="853" y="1082" type="line"/>
      <point x="1010" y="1082" type="line"/>
      <point x="1010" y="63" type="line" smooth="yes"/>
      <point x="1010" y="-171"/>
      <point x="765" y="-426"/>
      <point x="540" y="-426" type="qcurve" smooth="yes"/>
      <point x="458" y="-426"/>
      <point x="283" y="-381"/>
      <point x="218" y="-340" type="qcurve"/>
      <point x="273" y="-202" type="line"/>
      <point x="334.0" y="-238.5" name="inserted"/>
      <point x="466.5" y="-275.0"/>
      <point x="538" y="-275" type="qcurve" smooth="yes"/>
      <point x="687" y="-275"/>
      <point x="824" y="-108"/>
      <point x="824" y="50" type="qcurve" smooth="yes"/>
      <point x="824" y="108" type="line"/>
      <point x="768.5" y="44.0" name="inserted"/>
      <point x="617.0" y="-20.0"/>
      <point x="521" y="-20" type="qcurve" smooth="yes"/>
      <point x="331" y="-20"/>
      <point x="96" y="286"/>
      <point x="96" y="536" type="qcurve" smooth="yes"/>
    </contour>
    <contour>
      <point x="282" y="528" type="qcurve" smooth="yes"/>
      <point x="282" y="347"/>
      <point x="431" y="136"/>
      <point x="567" y="136" type="qcurve" smooth="yes"/>
      <point x="654.5" y="136.0" name="inserted"/>
      <point x="783.0" y="216.0"/>
      <point x="824" y="296" type="qcurve"/>
      <point x="824" y="790" type="line"/>
      <point x="781.5" y="867.5" name="inserted"/>
      <point x="654.0" y="945.0"/>
      <point x="569" y="945" type="qcurve" smooth="yes"/>
      <point x="432" y="945"/>
      <point x="282" y="737"/>
    </contour>
  </outline>
</glyph>
<glyph name="glyph00629" format="2">
  <advance width="1211"/>
  <outline>
    <contour>
      <point x="982" y="1020" type="line"/>
      <point x="1048.0" y="943.5" name="inserted"/>
      <point x="1114.0" y="738.5"/>
      <point x="1114" y="610" type="qcurve" smooth="yes"/>
      <point x="1114" y="548" type="line" smooth="yes"/>
      <point x="1114" y="287"/>
      <point x="838" y="-16"/>
      <point x="606" y="-16" type="qcurve" smooth="yes"/>
      <point x="529.0" y="-16.0" name="inserted"/>
      <point x="394.0" y="19.5"/>
      <point x="336" y="55" type="qcurve"/>
      <point x="261" y="-57" type="line"/>
      <point x="112" y="-57" type="line"/>
      <point x="239" y="133" type="line"/>
      <point x="167.5" y="210.0" name="inserted"/>
      <point x="96.0" y="419.5"/>
      <point x="96" y="552" type="qcurve" smooth="yes"/>
      <point x="96" y="615" type="line" smooth="yes"/>
      <point x="96" y="873"/>
      <point x="375" y="1181"/>
      <point x="604" y="1181" type="qcurve" smooth="yes"/>
      <point x="684.5" y="1181.0" name="inserted"/>
      <point x="826.5" y="1142.0"/>
      <point x="888" y="1103" type="qcurve"/>
      <point x="957" y="1206" type="line"/>
      <point x="1106" y="1206" type="line"/>
    </contour>
    <contour>
      <point x="279" y="548" type="line" smooth="yes"/>
      <point x="279.0" y="468.5" name="inserted"/>
      <point x="309.5" y="336.5"/>
      <point x="340" y="284" type="qcurve"/>
      <point x="797" y="966" type="line"/>
      <point x="757.5" y="995.5" name="inserted"/>
      <point x="661.0" y="1025.0"/>
      <point x="604" y="1025" type="qcurve" smooth="yes"/>
      <point x="454" y="1025"/>
      <point x="279" y="811"/>
      <point x="279" y="614" type="qcurve" smooth="yes"/>
    </contour>
    <contour>
      <point x="931" y="617" type="line" smooth="yes"/>
      <point x="931.0" y="692.5" name="inserted"/>
      <point x="905.0" y="817.0"/>
      <point x="879" y="866" type="qcurve"/>
      <point x="426" y="190" type="line"/>
      <point x="463.0" y="164.0" name="inserted"/>
      <point x="553.0" y="138.0"/>
      <point x="606" y="138" type="qcurve" smooth="yes"/>
      <point x="762" y="138"/>
      <point x="931" y="349"/>
      <point x="931" y="548" type="qcurve" smooth="yes"/>
    </contour>
  </outline>
</glyph>
<glyph name="glyph00630" format="2">
  <advance width="1251"/>
  <outline>
    <contour>
      <point x="1203" y="847" type="line"/>
      <point x="1112" y="847" type="line"/>
      <point x="1112" y="0" type="line"/>
      <point x="927" y="0" type="line"/>
      <point x="927" y="498" type="line"/>
      <point x="323" y="498" type="line"/>
      <point x="323" y="0" type="line"/>
      <point x="138" y="0" type="line"/>
      <point x="138" y="847" type="line"/>
      <point x="48" y="847" type="line"/>
      <point x="48" y="998" type="line"/>
      <point x="138" y="998" type="line"/>
      <point x="138" y="1165" type="line"/>
      <point x="323" y="1165" type="line"/>
      <point x="323" y="998" type="line"/>
      <point x="927" y="998" type="line"/>
      <point x="927" y="1165" type="line"/>
      <point x="1112" y="1165" type="line"/>
      <point x="1112" y="998" type="line"/>
      <point x="1203" y="998" type="line"/>
    </contour>
    <contour>
      <point x="323" y="650" type="line"/>
      <point x="927" y="650" type="line"/>
      <point x="927" y="847" type="line"/>
      <point x="323" y="847" type="line"/>
    </contour>
  </outline>
</glyph>
<glyph name="glyph00856" format="2">
  <advance width="998"/>
  <outline>
    <contour>
      <point x="855" y="526" type="line"/>
      <point x="323" y="526" type="line"/>
      <point x="323" y="151" type="line"/>
      <point x="942" y="151" type="line"/>
      <point x="942" y="0" type="line"/>
      <point x="881" y="0" type="line"/>
      <point x="823" y="-45" type="line" smooth="yes"/>
      <point x="766.5" y="-90.5" name="inserted"/>
      <point x="710.0" y="-179.0"/>
      <point x="710" y="-222" type="qcurve" smooth="yes"/>
      <point x="710.0" y="-258.0" name="inserted"/>
      <point x="749.0" y="-294.0"/>
      <point x="788" y="-294" type="qcurve" smooth="yes"/>
      <point x="812.0" y="-294.0" name="inserted"/>
      <point x="862.0" y="-281.0"/>
      <point x="888" y="-268" type="qcurve"/>
      <point x="901" y="-389" type="line"/>
      <point x="866.0" y="-411.0" name="inserted"/>
      <point x="786.0" y="-433.0"/>
      <point x="741" y="-433" type="qcurve" smooth="yes"/>
      <point x="652" y="-433"/>
      <point x="549" y="-329"/>
      <point x="549" y="-243" type="qcurve" smooth="yes"/>
      <point x="549.0" y="-174.0" name="inserted"/>
      <point x="626.5" y="-52.5"/>
      <point x="704" y="0" type="qcurve"/>
      <point x="138" y="0" type="line"/>
      <point x="138" y="1165" type="line"/>
      <point x="936" y="1165" type="line"/>
      <point x="936" y="1012" type="line"/>
      <point x="323" y="1012" type="line"/>
      <point x="323" y="678" type="line"/>
      <point x="855" y="678" type="line"/>
    </contour>
  </outline>
</glyph>
<glyph name="glyph01272" format="2">
  <advance width="1251"/>
  <outline>
    <contour>
      <point x="1274" y="-359" type="line"/>
      <point x="1088" y="-359" type="line"/>
      <point x="1088" y="0" type="line"/>
      <point x="927" y="0" type="line"/>
      <point x="927" y="498" type="line"/>
      <point x="323" y="498" type="line"/>
      <point x="323" y="0" type="line"/>
      <point x="138" y="0" type="line"/>
      <point x="138" y="1165" type="line"/>
      <point x="323" y="1165" type="line"/>
      <point x="323" y="650" type="line"/>
      <point x="927" y="650" type="line"/>
      <point x="927" y="1165" type="line"/>
      <point x="1112" y="1165" type="line"/>
      <point x="1112" y="153" type="line"/>
      <point x="1274" y="153" type="line"/>
    </contour>
  </outline>
</glyph>
<glyph name="glyph01273" format="2">
  <advance width="1148"/>
  <outline>
    <contour>
      <point x="1072" y="377" type="line"/>
      <point x="1052" y="209"/>
      <point x="849" y="10"/>
      <point x="680" y="-10" type="qcurve"/>
      <point x="680" y="-426" type="line"/>
      <point x="494" y="-426" type="line"/>
      <point x="494" y="-8" type="line"/>
      <point x="311" y="22"/>
      <point x="96" y="308"/>
      <point x="96" y="535" type="qcurve" smooth="yes"/>
      <point x="96" y="632" type="line" smooth="yes"/>
      <point x="96" y="796"/>
      <point x="219" y="1045"/>
      <point x="334.5" y="1113.0" type="qcurve" smooth="yes" name="inserted"/>
      <point x="392.25" y="1147.0" name="inserted"/>
      <point x="526.0" y="1181.0"/>
      <point x="602" y="1181" type="qcurve" smooth="yes"/>
      <point x="806" y="1181"/>
      <point x="1053" y="970"/>
      <point x="1072" y="783" type="qcurve"/>
      <point x="887" y="783" type="line"/>
      <point x="869" y="913"/>
      <point x="728" y="1029"/>
      <point x="602" y="1029" type="qcurve" smooth="yes"/>
      <point x="449" y="1029"/>
      <point x="282" y="826"/>
      <point x="281" y="637" type="qcurve"/>
      <point x="281" y="531" type="line" smooth="yes"/>
      <point x="281" y="342"/>
      <point x="440" y="135"/>
      <point x="591" y="135" type="qcurve" smooth="yes"/>
      <point x="726" y="135"/>
      <point x="867" y="246"/>
      <point x="887" y="377" type="qcurve"/>
    </contour>
  </outline>
</glyph>
